<svg width="48" height="53" viewBox="0 0 48 53" fill="none" xmlns="http://www.w3.org/2000/svg">
<path d="M44.4879 21.2937L9.01805 0.814951C7.13575 -0.271829 4.88846 -0.271399 3.00616 0.814734C1.12386 1.9013 0 3.84785 0 6.02119V46.9786C0 49.152 1.12365 51.0983 3.00616 52.1851C3.9472 52.7286 4.97923 53 6.01168 53C7.04434 53 8.0768 52.7279 9.01784 52.1849L44.4881 31.7064C46.3702 30.6194 47.4936 28.673 47.4936 26.4997C47.4936 24.3266 46.37 22.3802 44.4879 21.2937ZM41.615 26.7312L6.14491 47.2097C6.10158 47.235 6.01124 47.2869 5.87844 47.2097C5.74521 47.1328 5.74521 47.0289 5.74521 46.9788V6.0214C5.74521 5.97139 5.74521 5.86747 5.87844 5.79051C5.93061 5.76033 5.97611 5.74998 6.01491 5.74998C6.07528 5.74998 6.11882 5.7752 6.14534 5.79051L41.6152 26.2692C41.6585 26.2942 41.7484 26.3462 41.7484 26.5001C41.7484 26.6541 41.6581 26.7062 41.615 26.7312Z" fill="white"/>
</svg>
