<svg width="49" height="54" viewBox="0 0 49 54" fill="none" xmlns="http://www.w3.org/2000/svg">
<path d="M45.3273 21.6954L9.1882 0.830327C7.27039 -0.276958 4.9807 -0.27652 3.06288 0.830106C1.14507 1.93717 0 3.92045 0 6.1348V47.865C0 50.0794 1.14485 52.0624 3.06288 53.1697C4.02168 53.7235 5.07317 54 6.12511 54C7.17726 54 8.22919 53.7228 9.18799 53.1695L45.3275 32.3046C47.2451 31.1971 48.3897 29.214 48.3897 26.9997C48.3897 24.7856 47.2449 22.8025 45.3273 21.6954ZM42.4002 27.2356L6.26085 48.1005C6.2167 48.1262 6.12466 48.1791 5.98936 48.1005C5.85361 48.0221 5.85361 47.9162 5.85361 47.8652V6.13501C5.85361 6.08405 5.85361 5.97818 5.98936 5.89976C6.04251 5.86901 6.08886 5.85847 6.1284 5.85847C6.1899 5.85847 6.23427 5.88417 6.26129 5.89976L42.4004 26.7649C42.4445 26.7904 42.5361 26.8433 42.5361 27.0001C42.5361 27.157 42.4441 27.2101 42.4002 27.2356Z" fill="white"/>
</svg>
