<svg xmlns="http://www.w3.org/2000/svg" xmlns:xlink="http://www.w3.org/1999/xlink" width="807" height="446" viewBox="0 0 807 446">
  <defs>
    <clipPath id="clip-path">
      <rect id="Rectangle_3" data-name="Rectangle 3" width="807" height="446" rx="28" transform="translate(-258 504)" fill="#fff" stroke="#6b2378" stroke-width="1"/>
    </clipPath>
  </defs>
  <g id="Mask_Group_1" data-name="Mask Group 1" transform="translate(258 -504)" clip-path="url(#clip-path)">
    <g id="Formulario" transform="translate(-72.67 504)">
      <g id="Group_4" data-name="Group 4">
        <g id="Group_3" data-name="Group 3">
          <g id="Group_2" data-name="Group 2">
            <path id="Path_2" data-name="Path 2" d="M157.62,246.207a10.056,10.056,0,0,0-10.131-10.131H112.148a10.056,10.056,0,0,0-10.131,10.131v35.341a10.056,10.056,0,0,0,10.131,10.131h35.341a10.056,10.056,0,0,0,10.131-10.131V246.207Z" fill="#6b2378"/>
            <path id="Path_3" data-name="Path 3" d="M245.971,246.207a10.056,10.056,0,0,0-10.131-10.131H200.5a10.056,10.056,0,0,0-10.131,10.131v35.341A10.056,10.056,0,0,0,200.5,291.679H235.84a10.056,10.056,0,0,0,10.131-10.131Z" fill="#6b2378"/>
            <path id="Path_4" data-name="Path 4" d="M334.323,246.207a10.056,10.056,0,0,0-10.131-10.131H288.852a10.056,10.056,0,0,0-10.131,10.131v35.341a10.056,10.056,0,0,0,10.131,10.131h35.341a10.056,10.056,0,0,0,10.131-10.131Z" fill="#6b2378"/>
            <path id="Path_5" data-name="Path 5" d="M157.62,334.323a10.056,10.056,0,0,0-10.131-10.131H112.148a10.056,10.056,0,0,0-10.131,10.131v35.341A10.056,10.056,0,0,0,112.148,379.8h35.341a10.056,10.056,0,0,0,10.131-10.131V334.323Z" fill="#6b2378"/>
            <path id="Path_6" data-name="Path 6" d="M245.971,334.323a10.056,10.056,0,0,0-10.131-10.131H200.5a10.056,10.056,0,0,0-10.131,10.131v35.341A10.056,10.056,0,0,0,200.5,379.8H235.84a10.056,10.056,0,0,0,10.131-10.131Z" fill="#6b2378"/>
            <path id="Path_7" data-name="Path 7" d="M334.323,334.323a10.056,10.056,0,0,0-10.131-10.131H288.852a10.056,10.056,0,0,0-10.131,10.131v35.341A10.056,10.056,0,0,0,288.852,379.8h35.341a10.056,10.056,0,0,0,10.131-10.131V334.323Z" fill="#6b2378"/>
            <path id="Path_8" data-name="Path 8" d="M397.465,49.713v53.954a43.991,43.991,0,0,1-44.058,44.058h-27.8c-24.5,0-44.529-19.555-44.529-44.058V49.477H155.264v54.189c0,24.5-20.026,44.058-44.529,44.058h-27.8a43.842,43.842,0,0,1-44.058-44.058V49.713A40.042,40.042,0,0,0,0,89.53V405.712A40.221,40.221,0,0,0,40.053,446H396.287a40.221,40.221,0,0,0,40.053-40.288V89.53C436.34,67.854,418.67,50.419,397.465,49.713ZM384.507,386.156a17.144,17.144,0,0,1-17.2,17.2H68.325a17.144,17.144,0,0,1-17.2-17.2V222.882a17.144,17.144,0,0,1,17.2-17.2H367.308a17.144,17.144,0,0,1,17.2,17.2V386.156Z" fill="#6b2378"/>
            <path id="Path_9" data-name="Path 9" d="M82.933,118.745H110.5a15.032,15.032,0,0,0,15.079-15.079V15.079A15.184,15.184,0,0,0,110.5,0H82.933A15.032,15.032,0,0,0,67.854,15.079v88.587A15.032,15.032,0,0,0,82.933,118.745Z" fill="#6b2378"/>
            <path id="Path_10" data-name="Path 10" d="M324.9,118.745h27.566a15.184,15.184,0,0,0,15.079-15.079V15.079A15.032,15.032,0,0,0,352.465,0H324.9A15.032,15.032,0,0,0,309.82,15.079v88.587A15.184,15.184,0,0,0,324.9,118.745Z" fill="#6b2378"/>
          </g>
        </g>
      </g>
    </g>
  </g>
</svg>
