<svg xmlns="http://www.w3.org/2000/svg" width="54.82" height="54.8" viewBox="0 0 54.82 54.8">
  <g id="Group_26" data-name="Group 26" transform="translate(-2834.57 -322.88)">
    <path id="Path_47" data-name="Path 47" d="M77.3,58.87A17.746,17.746,0,0,0,64.32,41.8,20.93,20.93,0,1,0,25.38,53.35L22.55,63.56l10.21-2.83a20.86,20.86,0,0,0,9.73,2.88A17.728,17.728,0,0,0,68.58,74.13l8.63,2.39-2.39-8.63a17.541,17.541,0,0,0,2.48-9.02ZM33.28,57.26l-6.12,1.69,1.69-6.12-.39-.6a17.718,17.718,0,1,1,5.41,5.41ZM72.62,71.91l-4.54-1.26-.61.39a14.513,14.513,0,0,1-21.64-7.55A20.97,20.97,0,0,0,64.21,45.11a14.513,14.513,0,0,1,7.55,21.64l-.39.61Z" transform="translate(2812.09 301.09)" fill="#fff"/>
    <path id="Path_48" data-name="Path 48" d="M43.42,50.79h0a1.609,1.609,0,0,1,1.61,1.61h0a1.609,1.609,0,0,1-1.61,1.61h0a1.609,1.609,0,0,1-1.61-1.61h0a1.609,1.609,0,0,1,1.61-1.61Z" transform="translate(2812.09 301.09)" fill="#fff"/>
    <path id="Path_49" data-name="Path 49" d="M46.61,38.18a3.394,3.394,0,0,1-1.11,2.11l-3.08,2.82a1.885,1.885,0,0,0-.61,1.39v1.88a1.208,1.208,0,0,0,1.21,1.21h.79a1.208,1.208,0,0,0,1.21-1.21V45.1a.052.052,0,0,1,.02-.04l2.56-2.34a6.64,6.64,0,0,0,2.23-5.11,6.424,6.424,0,0,0-12.49-1.87,1.607,1.607,0,0,0,1.53,2.11h0a1.57,1.57,0,0,0,1.5-1.04,3.216,3.216,0,0,1,6.24,1.37Z" transform="translate(2812.09 301.09)" fill="#fff"/>
  </g>
</svg>
