<svg width="16" height="16" viewBox="0 0 16 16" fill="none" xmlns="http://www.w3.org/2000/svg">
<path d="M7.99 15.98C12.4028 15.98 15.98 12.4028 15.98 7.99C15.98 3.57724 12.4028 0 7.99 0C3.57725 0 0 3.57724 0 7.99C0 12.4028 3.57725 15.98 7.99 15.98Z" fill="#656565"/>
<path d="M11.6 4.99002C11.51 4.70002 11.3 4.52002 11 4.46002C10.68 4.40002 10.4 4.50002 10.21 4.77002C9.32 5.94002 8.43 7.12002 7.54 8.30002C7.45 8.42002 7.36 8.54002 7.27 8.66002L6.75 9.34002H6.74L6.05 8.30002C5.96 8.15002 5.86 8.00002 5.74 7.85002C5.53 7.60002 5.25 7.51002 4.93 7.60002C4.4 7.74002 4.18 8.34002 4.49 8.82002C4.99 9.60002 5.49 10.37 6 11.15C6.33 11.66 6.98 11.68 7.35 11.2C8.29 9.95002 9.24 8.71002 10.18 7.46002C10.61 6.89002 11.04 6.32002 11.48 5.75002C11.64 5.51002 11.69 5.26002 11.6 4.99002Z" fill="#FFFAFA"/>
</svg>
