<svg width="22" height="22" viewBox="0 0 22 22" fill="none" xmlns="http://www.w3.org/2000/svg">
<path d="M12.3787 10.5158L20.6366 2.25791C20.762 2.13677 20.8621 1.99185 20.9309 1.83163C20.9997 1.6714 21.036 1.49907 21.0375 1.3247C21.039 1.15032 21.0058 0.977386 20.9397 0.815988C20.8737 0.65459 20.7762 0.50796 20.6529 0.384652C20.5296 0.261344 20.3829 0.163829 20.2215 0.0977957C20.0601 0.0317626 19.8872 -0.0014657 19.7128 4.95853e-05C19.5384 0.00156487 19.3661 0.0377934 19.2059 0.106621C19.0457 0.175449 18.9007 0.275498 18.7796 0.40093L10.5217 8.65886L2.26331 0.40093C2.01562 0.161705 1.68388 0.0293332 1.33954 0.0323254C0.995201 0.0353176 0.665813 0.173434 0.42232 0.416928C0.178826 0.660421 0.0407094 0.989809 0.0377172 1.33415C0.034725 1.67849 0.167097 2.01023 0.406322 2.25791L8.66469 10.5158L0.406322 18.7738C0.279738 18.8946 0.178592 19.0396 0.10883 19.2001C0.0390672 19.3606 0.00209516 19.5335 8.64952e-05 19.7085C-0.00192217 19.8835 0.0310731 20.0572 0.0971331 20.2193C0.163193 20.3813 0.260985 20.5286 0.384761 20.6523C0.508538 20.7761 0.655802 20.8738 0.817898 20.9398C0.979994 21.0059 1.15365 21.0388 1.32867 21.0368C1.50368 21.0347 1.67652 20.9977 1.83702 20.9279C1.99753 20.8581 2.14246 20.7569 2.26331 20.6303L10.5217 12.3724L18.7796 20.6303C18.9007 20.7558 19.0457 20.8558 19.2059 20.9246C19.3661 20.9935 19.5384 21.0297 19.7128 21.0312C19.8872 21.0327 20.0601 20.9995 20.2215 20.9335C20.3829 20.8674 20.5296 20.7699 20.6529 20.6466C20.7762 20.5233 20.8737 20.3767 20.9397 20.2153C21.0058 20.0539 21.039 19.8809 21.0375 19.7066C21.036 19.5322 20.9997 19.3598 20.9309 19.1996C20.8621 19.0394 20.762 18.8945 20.6366 18.7733L12.3787 10.5158Z" fill="white"/>
</svg>
