<svg xmlns="http://www.w3.org/2000/svg" width="73.093" height="66.96" viewBox="0 0 73.093 66.96">
  <g id="cobranza-icon" transform="translate(-0.002)">
    <g id="Group_29" data-name="Group 29">
      <path id="Path_54" data-name="Path 54" d="M72.84,30.59a5.416,5.416,0,0,0-5.39-3.8l-.52.02a6.05,6.05,0,0,0-4.05,1.77L54.8,36.57A5.666,5.666,0,0,0,50.06,34H38.67a23.3,23.3,0,0,1-6.23-.83,15.317,15.317,0,0,0-14.27,2.99,20.435,20.435,0,0,0-3.79,4.09,5.113,5.113,0,0,0-6.6.66L.4,48.56a1.431,1.431,0,0,0,.03,2.01l5.92,5.84a1.432,1.432,0,1,0,2.02-2.03L3.46,49.53,9.84,42.9a2.258,2.258,0,0,1,3.2-.05L24.43,53.9a2.277,2.277,0,0,1,.69,1.59,2.234,2.234,0,0,1-.64,1.61l-6.27,6.43L16.6,61.99a1.429,1.429,0,1,0-1.97,2.07l2.64,2.51a1.45,1.45,0,0,0,2.02-.04l7.26-7.45A5.073,5.073,0,0,0,28,55.43a5.192,5.192,0,0,0-.35-1.8l2.56-.3a30.742,30.742,0,0,1,3.59-.21H51.13c.27,0,.53-.01.8-.03l1.66-.14a9.552,9.552,0,0,0,4.69-1.69,9.4,9.4,0,0,0,1.84-1.67L71.8,35.85A5.6,5.6,0,0,0,72.84,30.59Zm-3.26,3.43L57.9,47.76a6.829,6.829,0,0,1-1.29,1.17,6.73,6.73,0,0,1-3.3,1.19l-1.66.14a5.24,5.24,0,0,1-.56.02H33.76a34.353,34.353,0,0,0-3.92.23l-4.14.48-9.16-8.83a17.977,17.977,0,0,1,3.43-3.77,12.394,12.394,0,0,1,11.7-2.45,26.137,26.137,0,0,0,6.99.93H50.05a2.8,2.8,0,0,1,2.75,2.26,1.2,1.2,0,0,0,.05.38,2.757,2.757,0,0,1-.61,1.91l-.04.06a2.768,2.768,0,0,1-2.18,1.05H40.1a1.43,1.43,0,0,0,0,2.86h9.92a5.627,5.627,0,0,0,4.42-2.12l.04-.05a5.611,5.611,0,0,0,1.24-3.53l9.18-9.08a3.191,3.191,0,0,1,2.15-.94l.52-.02a2.552,2.552,0,0,1,2.54,1.79A2.722,2.722,0,0,1,69.58,34.02Z" fill="#fff"/>
      <path id="Path_55" data-name="Path 55" d="M34.01,42.74l-.07.02a1.428,1.428,0,0,0,.32,2.82,1.242,1.242,0,0,0,.33-.04l.07-.02a1.428,1.428,0,1,0-.65-2.78Z" fill="#fff"/>
      <path id="Path_56" data-name="Path 56" d="M11.2,57.89l-.07.02a1.428,1.428,0,0,0,.32,2.82,1.242,1.242,0,0,0,.33-.04l.07-.02a1.428,1.428,0,1,0-.65-2.78Z" fill="#fff"/>
      <path id="Path_57" data-name="Path 57" d="M41.9,30.31A15.155,15.155,0,0,0,41.9,0a15.007,15.007,0,0,0-9.35,3.23,15.308,15.308,0,0,0-1.73,1.59,14.55,14.55,0,0,0-2.07,2.81A15.155,15.155,0,0,0,41.9,30.31ZM31.24,9.05a12.535,12.535,0,0,1,1.68-2.28,12.334,12.334,0,1,1-1.68,2.28Z" fill="#fff"/>
      <path id="Path_58" data-name="Path 58" d="M43.17,20.05a3.878,3.878,0,0,1-1.84.46c-.97,0-1.81-1.14-1.81-2.43a1.43,1.43,0,0,0-2.86,0,5.219,5.219,0,0,0,3.54,5.14,1.432,1.432,0,0,0,2.86-.06,4.778,4.778,0,0,0,3.85-4.77c0-3.23-3.29-4.99-4.99-4.99-.02,0-2.12-.19-2.12-1.53a2.118,2.118,0,0,1,2.12-2.12,1.934,1.934,0,0,1,1.26.62c.18.18.2.2.2.97a1.43,1.43,0,0,0,2.86,0A3.683,3.683,0,0,0,45.2,8.35a5,5,0,0,0-2.16-1.29,1.431,1.431,0,0,0-2.86.08v.09a4.754,4.754,0,0,0-3.26,4.65c0,3.28,3.41,4.39,4.98,4.39.43.03,2.13.79,2.13,2.12A1.679,1.679,0,0,1,43.17,20.05Z" fill="#fff"/>
    </g>
  </g>
</svg>
