<?xml version="1.0" encoding="utf-8"?>
<!-- Generator: Adobe Illustrator 23.0.2, SVG Export Plug-In . SVG Version: 6.00 Build 0)  -->
<svg version="1.1" id="Capa_1" xmlns="http://www.w3.org/2000/svg" xmlns:xlink="http://www.w3.org/1999/xlink" x="0px" y="0px"
	 viewBox="0 0 73.1 66.97" style="enable-background:new 0 0 73.1 66.97;" xml:space="preserve">
<style type="text/css">
	.st0{clip-path:url(#SVGID_2_);}
	.st1{fill:#FFFFFF;}
	.st2{fill:#6B2378;}
	.st3{fill:none;stroke:#6B2378;stroke-miterlimit:10;}
	.st4{fill:#979797;}
	.st5{fill:none;stroke:#808080;stroke-width:0.1151;stroke-miterlimit:10;}
	.st6{clip-path:url(#SVGID_4_);}
	.st7{fill:none;stroke:#808080;stroke-width:0.1;stroke-miterlimit:10;}
	.st8{fill:none;stroke:#868589;stroke-width:2;stroke-linecap:round;stroke-miterlimit:10;}
	.st9{fill:url(#SVGID_5_);}
	.st10{fill:#713A75;}
	.st11{opacity:0.4;fill:url(#SVGID_6_);}
	.st12{opacity:0.4;}
	.st13{fill:url(#SVGID_7_);}
	.st14{fill:url(#SVGID_8_);}
	.st15{fill:url(#SVGID_9_);}
	.st16{fill:url(#SVGID_10_);}
	.st17{fill:url(#SVGID_11_);}
	.st18{fill:url(#SVGID_12_);}
	.st19{opacity:0.4;clip-path:url(#SVGID_14_);}
	.st20{fill:url(#SVGID_15_);}
	.st21{fill:url(#SVGID_16_);}
	.st22{fill:url(#SVGID_17_);}
	.st23{fill:url(#SVGID_18_);}
	.st24{fill:url(#SVGID_19_);}
	.st25{clip-path:url(#SVGID_21_);}
	.st26{fill:#ECEDEF;}
	.st27{clip-path:url(#SVGID_21_);fill:none;}
	.st28{fill:#040006;}
	.st29{fill:#4E3580;}
	.st30{fill:none;}
	.st31{fill:#D7D8DC;}
	.st32{fill:url(#SVGID_22_);}
	.st33{fill:none;stroke:#FFFFFF;stroke-width:0.25;stroke-miterlimit:10;}
	.st34{opacity:0.4;clip-path:url(#SVGID_24_);}
	.st35{opacity:0.4;fill:url(#SVGID_25_);}
	.st36{fill:url(#SVGID_26_);}
	.st37{fill:url(#SVGID_27_);}
	.st38{fill:url(#SVGID_28_);}
	.st39{fill:url(#SVGID_29_);}
	.st40{fill:url(#SVGID_30_);}
	.st41{fill:url(#SVGID_31_);}
	.st42{fill:url(#SVGID_32_);}
	.st43{fill:#515365;}
	.st44{fill:url(#SVGID_33_);}
	.st45{opacity:0.4;fill:url(#SVGID_34_);}
	.st46{fill:url(#SVGID_35_);}
	.st47{fill:url(#SVGID_36_);}
	.st48{fill:url(#SVGID_37_);}
	.st49{fill:url(#SVGID_38_);}
	.st50{fill:url(#SVGID_39_);}
	.st51{fill:url(#SVGID_40_);}
	.st52{opacity:0.4;clip-path:url(#SVGID_42_);}
	.st53{fill:url(#SVGID_43_);}
	.st54{fill:url(#SVGID_44_);}
	.st55{fill:url(#SVGID_45_);}
	.st56{fill:url(#SVGID_46_);}
	.st57{fill:url(#SVGID_47_);}
	.st58{clip-path:url(#SVGID_49_);}
	.st59{clip-path:url(#SVGID_49_);fill:none;}
	.st60{fill:url(#SVGID_50_);}
	.st61{opacity:0.4;clip-path:url(#SVGID_52_);}
	.st62{opacity:0.4;fill:url(#SVGID_53_);}
	.st63{fill:url(#SVGID_54_);}
	.st64{fill:url(#SVGID_55_);}
	.st65{fill:url(#SVGID_56_);}
	.st66{fill:url(#SVGID_57_);}
	.st67{fill:url(#SVGID_58_);}
	.st68{fill:url(#SVGID_59_);}
	.st69{clip-path:url(#SVGID_61_);}
	.st70{fill:url(#SVGID_62_);}
	.st71{fill:none;stroke:#868589;stroke-width:3.6982;stroke-linecap:round;stroke-miterlimit:10;}
	.st72{fill:none;stroke:#B0B0B0;stroke-width:0.252;stroke-miterlimit:10;}
	.st73{opacity:0.5;}
	.st74{fill-rule:evenodd;clip-rule:evenodd;fill:#D4D3D6;}
	.st75{fill:#ADACB2;}
	.st76{fill:#703A75;}
	.st77{fill:url(#SVGID_63_);}
	.st78{fill:url(#SVGID_64_);}
	.st79{opacity:0.4;fill:url(#SVGID_65_);}
	.st80{fill:url(#SVGID_66_);}
	.st81{fill:url(#SVGID_67_);}
	.st82{fill:url(#SVGID_68_);}
	.st83{fill:url(#SVGID_69_);}
	.st84{fill:url(#SVGID_70_);}
	.st85{fill:url(#SVGID_71_);}
	.st86{opacity:0.4;clip-path:url(#SVGID_73_);}
	.st87{fill:url(#SVGID_74_);}
	.st88{fill:url(#SVGID_75_);}
	.st89{fill:url(#SVGID_76_);}
	.st90{fill:url(#SVGID_77_);}
	.st91{fill:url(#SVGID_78_);}
	.st92{clip-path:url(#SVGID_80_);}
	.st93{clip-path:url(#SVGID_80_);fill:none;}
	.st94{fill:url(#SVGID_81_);}
	.st95{fill:none;stroke:#FFFFFF;stroke-width:0.4707;stroke-miterlimit:10;}
	.st96{opacity:0.4;clip-path:url(#SVGID_83_);}
	.st97{opacity:0.4;fill:url(#SVGID_84_);}
	.st98{fill:url(#SVGID_85_);}
	.st99{fill:url(#SVGID_86_);}
	.st100{fill:url(#SVGID_87_);}
	.st101{fill:url(#SVGID_88_);}
	.st102{fill:url(#SVGID_89_);}
	.st103{fill:url(#SVGID_90_);}
	.st104{fill:#FF4B55;}
	.st105{fill:#FFE15A;}
	.st106{fill:#41479B;}
	.st107{clip-path:url(#SVGID_92_);}
	.st108{fill:#82AFFF;}
	.st109{fill:#F5F5F5;}
	.st110{clip-path:url(#SVGID_94_);}
</style>
<g>
	<g>
		<path class="st10" d="M72.84,30.59c-0.73-2.34-2.94-3.9-5.39-3.8l-0.52,0.02c-1.53,0.06-2.97,0.69-4.05,1.77l-8.08,7.99
			c-0.19-0.29-0.41-0.57-0.66-0.83c-1.06-1.1-2.55-1.74-4.08-1.74H38.67c-2.15,0-4.25-0.28-6.23-0.83
			c-5.17-1.43-10.1-0.4-14.27,2.99c-1.76,1.43-3.02,2.99-3.79,4.09c-0.88-0.61-1.92-0.93-3-0.91c-1.37,0.02-2.65,0.58-3.6,1.57
			L0.4,48.56c-0.54,0.56-0.53,1.46,0.03,2.01l5.92,5.84c0.56,0.55,1.47,0.55,2.03-0.01c0.55-0.56,0.55-1.47-0.01-2.02l-4.91-4.85
			l6.38-6.63c0.42-0.44,0.99-0.68,1.59-0.69c0.61-0.01,1.18,0.22,1.61,0.64l11.39,11.05c0.43,0.42,0.68,0.99,0.69,1.59
			c0.01,0.61-0.22,1.18-0.64,1.61l-6.27,6.43l-1.61-1.54c-0.57-0.55-1.48-0.52-2.02,0.05c-0.54,0.57-0.52,1.48,0.05,2.02l2.64,2.51
			c0.28,0.26,0.63,0.39,0.99,0.39c0.37,0,0.75-0.14,1.03-0.43l7.26-7.45c0.96-0.98,1.47-2.28,1.45-3.65
			c-0.01-0.63-0.13-1.23-0.35-1.8l2.56-0.3c1.19-0.14,2.39-0.21,3.59-0.21h17.33c0.27,0,0.53-0.01,0.8-0.03l1.66-0.14
			c1.68-0.14,3.31-0.72,4.69-1.69c0.68-0.47,1.3-1.03,1.84-1.67l11.68-13.74C73.01,34.4,73.41,32.43,72.84,30.59z M69.58,34.02
			L57.9,47.76c-0.38,0.44-0.81,0.84-1.29,1.17c-0.97,0.68-2.11,1.09-3.3,1.19l-1.66,0.14c-0.19,0.02-0.37,0.02-0.56,0.02H33.76
			c-1.3,0-2.62,0.08-3.92,0.23l-4.14,0.48l-9.16-8.83c0.62-0.92,1.77-2.41,3.43-3.77c3.46-2.82,7.4-3.64,11.7-2.45
			c2.23,0.62,4.59,0.93,6.99,0.93h11.39c0.76,0,1.49,0.31,2.02,0.86c0.38,0.4,0.63,0.89,0.73,1.4c0,0.13,0.01,0.26,0.05,0.38
			c0.04,0.67-0.16,1.36-0.61,1.91l-0.04,0.06c-0.53,0.67-1.33,1.05-2.18,1.05h-9.92c-0.79,0-1.43,0.64-1.43,1.43
			c0,0.79,0.64,1.43,1.43,1.43h9.92c1.73,0,3.34-0.77,4.42-2.12l0.04-0.05c0.83-1.03,1.24-2.28,1.24-3.53l9.18-9.08
			c0.58-0.58,1.34-0.91,2.15-0.94l0.52-0.02c1.15-0.05,2.2,0.69,2.54,1.79C70.39,32.33,70.19,33.3,69.58,34.02z"/>
		<path class="st10" d="M34.01,42.74l-0.07,0.02c-0.77,0.18-1.25,0.95-1.07,1.72c0.15,0.66,0.74,1.1,1.39,1.1
			c0.11,0,0.22-0.01,0.33-0.04l0.07-0.02c0.77-0.18,1.25-0.95,1.07-1.72C35.55,43.03,34.78,42.56,34.01,42.74z"/>
		<path class="st10" d="M11.2,57.89l-0.07,0.02c-0.77,0.18-1.25,0.95-1.07,1.72c0.15,0.66,0.74,1.1,1.39,1.1
			c0.11,0,0.22-0.01,0.33-0.04l0.07-0.02c0.77-0.18,1.25-0.95,1.07-1.72C12.74,58.19,11.97,57.71,11.2,57.89z"/>
		<path class="st10" d="M41.9,30.31c8.36,0,15.15-6.8,15.15-15.15S50.26,0,41.9,0c-3.43,0-6.66,1.12-9.35,3.23
			c-0.61,0.48-1.2,1.02-1.73,1.59c-0.8,0.85-1.5,1.8-2.07,2.81c-1.31,2.28-2,4.89-2,7.53C26.75,23.51,33.55,30.31,41.9,30.31z
			 M31.24,9.05c0.47-0.82,1.04-1.59,1.68-2.28c0.43-0.46,0.9-0.9,1.4-1.29c2.18-1.71,4.8-2.62,7.58-2.62
			c6.78,0,12.29,5.51,12.29,12.29c0,6.78-5.51,12.29-12.29,12.29c-6.78,0-12.29-5.51-12.29-12.29C29.61,13.01,30.17,10.9,31.24,9.05
			z"/>
		<path class="st10" d="M43.17,20.05c-0.58,0.34-1.33,0.46-1.84,0.46c-0.97,0-1.81-1.14-1.81-2.43c0-0.79-0.64-1.43-1.43-1.43
			c-0.79,0-1.43,0.64-1.43,1.43c0,2.48,1.51,4.57,3.54,5.14c0.05,0.75,0.67,1.34,1.43,1.34c0.78,0,1.42-0.63,1.43-1.4
			c2.07-0.54,3.85-2.08,3.85-4.77c0-3.23-3.29-4.99-4.99-4.99c-0.02,0-2.12-0.19-2.12-1.53c0-2.06,2.1-2.12,2.12-2.12
			c0.4,0,0.88,0.24,1.26,0.62c0.18,0.18,0.2,0.2,0.2,0.97c0,0.79,0.64,1.43,1.43,1.43c0.79,0,1.43-0.64,1.43-1.43
			c0-0.92,0-1.95-1.04-2.99c-0.63-0.63-1.38-1.07-2.16-1.29c-0.04-0.75-0.66-1.35-1.43-1.35c-0.79,0-1.43,0.64-1.43,1.43v0.09
			c-1.56,0.58-3.26,1.97-3.26,4.65c0,3.28,3.41,4.39,4.98,4.39c0.43,0.03,2.13,0.79,2.13,2.12C44.05,19.18,43.78,19.69,43.17,20.05z
			"/>
	</g>
</g>
</svg>
