<?xml version="1.0" encoding="utf-8"?>
<!-- Generator: Adobe Illustrator 23.0.2, SVG Export Plug-In . SVG Version: 6.00 Build 0)  -->
<svg version="1.1" xmlns="http://www.w3.org/2000/svg" xmlns:xlink="http://www.w3.org/1999/xlink" x="0px" y="0px"
	 viewBox="0 0 18.22 11.3" style="enable-background:new 0 0 18.22 11.3;" xml:space="preserve">
<style type="text/css">
	.st0{fill:#F4F4F4;}
	.st1{fill:#6B2378;}
	.st2{fill:none;stroke:#6B2378;stroke-miterlimit:10;}
	.st3{fill:#979797;}
	.st4{opacity:0.3;fill:none;stroke:#FFFFFF;stroke-width:0.5;stroke-miterlimit:10;}
	.st5{clip-path:url(#SVGID_2_);}
	.st6{fill:url(#SVGID_3_);}
	.st7{fill:#FFFFFF;}
	.st8{fill:url(#SVGID_4_);}
	.st9{fill:#BBA1BF;}
	.st10{fill:url(#SVGID_5_);}
	.st11{fill:url(#SVGID_6_);}
	.st12{fill:none;stroke:#FFFFFF;stroke-width:2;stroke-miterlimit:10;}
	.st13{clip-path:url(#SVGID_8_);}
	.st14{fill:url(#SVGID_9_);}
	.st15{fill:url(#SVGID_10_);}
	.st16{fill:url(#SVGID_11_);}
	.st17{fill:url(#SVGID_12_);}
	.st18{clip-path:url(#SVGID_14_);}
	.st19{fill:url(#SVGID_15_);}
	.st20{fill:url(#SVGID_16_);}
	.st21{fill:url(#SVGID_17_);}
	.st22{fill:url(#SVGID_18_);}
	.st23{clip-path:url(#SVGID_20_);}
	.st24{fill:url(#SVGID_21_);}
	.st25{opacity:0.5;fill:none;stroke:#D6D7DB;stroke-width:0.6283;stroke-miterlimit:10;}
	.st26{fill:none;stroke:#713A75;stroke-width:0.75;stroke-miterlimit:10;}
	.st27{opacity:0.7;fill:#85A939;}
	.st28{clip-path:url(#SVGID_23_);}
	.st29{fill:url(#SVGID_24_);}
	.st30{clip-path:url(#SVGID_26_);}
	.st31{fill:url(#SVGID_27_);}
	.st32{clip-path:url(#SVGID_31_);}
	.st33{fill:#ADACB2;}
	.st34{clip-path:url(#SVGID_35_);}
	.st35{fill:url(#SVGID_36_);}
	.st36{opacity:0.5;fill:none;stroke:#D8D9DD;stroke-width:0.5;stroke-miterlimit:10;}
	.st37{opacity:0.7;fill:#BA4C36;}
	.st38{clip-path:url(#SVGID_40_);}
	.st39{clip-path:url(#SVGID_44_);}
	.st40{fill:url(#SVGID_45_);}
	.st41{clip-path:url(#SVGID_49_);}
	.st42{clip-path:url(#SVGID_53_);}
	.st43{fill:url(#SVGID_54_);}
	.st44{fill:#D7D8DC;}
</style>
<g id="Inicio_Sesion_01">
</g>
<g id="Inicio_Sesion_02">
	<path class="st44" d="M17.43,4.86H2.69l3.52-3.52c0.31-0.31,0.31-0.81,0-1.12c-0.31-0.31-0.81-0.31-1.12,0L0.23,5.09
		c-0.31,0.31-0.31,0.81,0,1.12l4.86,4.86c0.15,0.15,0.36,0.23,0.56,0.23s0.4-0.08,0.56-0.23c0.31-0.31,0.31-0.81,0-1.12L2.69,6.44
		h14.74c0.44,0,0.79-0.35,0.79-0.79C18.22,5.22,17.86,4.86,17.43,4.86z"/>
</g>
</svg>
