<?xml version="1.0" encoding="utf-8"?>
<!-- Generator: Adobe Illustrator 23.0.3, SVG Export Plug-In . SVG Version: 6.00 Build 0)  -->
<svg version="1.1" id="Capa_1" xmlns="http://www.w3.org/2000/svg" xmlns:xlink="http://www.w3.org/1999/xlink" x="0px" y="0px"
	 viewBox="0 0 258.84 318.25" style="enable-background:new 0 0 258.84 318.25;" xml:space="preserve">
<style type="text/css">
	.st0{fill:#F4F4F4;}
	.st1{fill:none;stroke:#642075;stroke-miterlimit:10;}
	.st2{fill:#FFFFFF;}
	.st3{fill:#E5E5E5;}
	.st4{fill:#85A939;}
	.st5{fill:#FFFFFF;stroke:#85A939;stroke-width:1.3;stroke-miterlimit:10;}
	.st6{fill:#642075;}
	.st7{fill:none;stroke:#FFFFFF;stroke-miterlimit:10;}
	.st8{clip-path:url(#SVGID_4_);}
	.st9{fill:#6B2378;}
	.st10{fill:#ABAAB0;}
	.st11{clip-path:url(#SVGID_6_);}
	.st12{fill:none;stroke:#6B2378;stroke-miterlimit:10;}
	.st13{fill:#979797;}
	.st14{fill:url(#SVGID_7_);}
	.st15{opacity:0.4;fill:url(#SVGID_8_);}
	.st16{opacity:0.4;}
	.st17{fill:url(#SVGID_9_);}
	.st18{fill:url(#SVGID_10_);}
	.st19{fill:url(#SVGID_11_);}
	.st20{fill:url(#SVGID_12_);}
	.st21{fill:url(#SVGID_13_);}
	.st22{fill:url(#SVGID_14_);}
	.st23{opacity:0.4;clip-path:url(#SVGID_16_);}
	.st24{fill:url(#SVGID_17_);}
	.st25{fill:url(#SVGID_18_);}
	.st26{fill:url(#SVGID_19_);}
	.st27{fill:url(#SVGID_20_);}
	.st28{fill:url(#SVGID_21_);}
	.st29{clip-path:url(#SVGID_23_);}
	.st30{fill:#ECEDEF;}
	.st31{clip-path:url(#SVGID_23_);fill:none;}
	.st32{fill:#040006;}
	.st33{fill:#4E3580;}
	.st34{fill:none;}
	.st35{fill:#D7D8DC;}
	.st36{fill:url(#SVGID_24_);}
	.st37{fill:none;stroke:#FFFFFF;stroke-width:0.4707;stroke-miterlimit:10;}
	.st38{opacity:0.4;clip-path:url(#SVGID_26_);}
	.st39{opacity:0.4;fill:url(#SVGID_27_);}
	.st40{fill:url(#SVGID_28_);}
	.st41{fill:url(#SVGID_29_);}
	.st42{fill:url(#SVGID_30_);}
	.st43{fill:url(#SVGID_31_);}
	.st44{fill:url(#SVGID_32_);}
	.st45{fill:url(#SVGID_33_);}
	.st46{fill:#713A75;}
	.st47{fill:#515365;}
	.st48{fill:#FF4B55;}
	.st49{fill:#FFE15A;}
	.st50{fill:#41479B;}
	.st51{clip-path:url(#SVGID_35_);}
	.st52{fill:#82AFFF;}
	.st53{fill:#F5F5F5;}
	.st54{fill:none;stroke:#642075;stroke-width:0.75;stroke-miterlimit:10;}
	.st55{opacity:0.35;}
	.st56{fill:none;stroke:#FFFFFF;stroke-width:1.3785;stroke-linecap:round;stroke-miterlimit:10;}
	.st57{fill:none;stroke:#FFFFFF;stroke-width:0.5;stroke-miterlimit:10;}
	.st58{opacity:0.5;fill:none;stroke:#FFFFFF;stroke-width:0.25;stroke-miterlimit:10;}
	.st59{clip-path:url(#SVGID_45_);}
	.st60{clip-path:url(#SVGID_47_);}
	.st61{opacity:0.5;}
	.st62{fill:#FFFFFF;stroke:url(#SVGID_48_);stroke-width:4.5;stroke-linecap:round;stroke-miterlimit:10;}
	.st63{clip-path:url(#SVGID_50_);fill:#FFFFFF;}
	.st64{clip-path:url(#SVGID_52_);fill:#FFFFFF;}
	.st65{clip-path:url(#SVGID_54_);fill:#FFFFFF;}
	.st66{clip-path:url(#SVGID_56_);}
	.st67{clip-path:url(#SVGID_58_);}
	.st68{fill:#6B2378;stroke:#FFFFFF;stroke-width:0.7;stroke-miterlimit:10;}
	.st69{fill:#6B2378;stroke:#6B2378;stroke-width:0.1473;stroke-miterlimit:10;}
	.st70{clip-path:url(#SVGID_60_);}
	.st71{clip-path:url(#SVGID_62_);fill:#F4F4F4;}
	.st72{opacity:0.3;}
	.st73{fill:none;stroke:url(#SVGID_63_);stroke-miterlimit:10;}
	.st74{fill:none;stroke:url(#SVGID_64_);stroke-miterlimit:10;}
	.st75{fill:none;stroke:url(#SVGID_65_);stroke-miterlimit:10;}
	.st76{fill:none;stroke:url(#SVGID_66_);stroke-miterlimit:10;}
	.st77{fill:none;stroke:url(#SVGID_67_);stroke-miterlimit:10;}
	.st78{fill:none;stroke:url(#SVGID_68_);stroke-miterlimit:10;}
	.st79{fill:none;stroke:url(#SVGID_69_);stroke-miterlimit:10;}
	.st80{fill:none;stroke:url(#SVGID_70_);stroke-miterlimit:10;}
	.st81{fill:#BBA1BF;}
	.st82{opacity:0.9;fill:url(#SVGID_71_);}
	.st83{opacity:0.9;fill:url(#SVGID_72_);}
	.st84{opacity:0.9;fill:url(#SVGID_73_);}
	.st85{fill:#FFFFFF;stroke:url(#SVGID_76_);stroke-width:4.5;stroke-linecap:round;stroke-miterlimit:10;}
	.st86{clip-path:url(#SVGID_78_);fill:#FFFFFF;}
	.st87{clip-path:url(#SVGID_80_);fill:#FFFFFF;}
	.st88{clip-path:url(#SVGID_82_);fill:#FFFFFF;}
	.st89{fill:#FFFFFF;stroke:url(#SVGID_83_);stroke-width:4.5;stroke-linecap:round;stroke-miterlimit:10;}
	.st90{clip-path:url(#SVGID_85_);fill:#FFFFFF;}
	.st91{clip-path:url(#SVGID_87_);fill:#FFFFFF;}
	.st92{clip-path:url(#SVGID_89_);fill:#FFFFFF;}
	.st93{fill:url(#SVGID_90_);}
	.st94{fill:#6B2378;stroke:#FFFFFF;stroke-width:0.1651;stroke-miterlimit:10;}
	.st95{fill:url(#SVGID_91_);}
	.st96{fill:url(#SVGID_92_);}
	.st97{opacity:0.4;fill:url(#SVGID_93_);}
	.st98{fill:url(#SVGID_94_);}
	.st99{fill:url(#SVGID_95_);}
	.st100{fill:url(#SVGID_96_);}
	.st101{fill:url(#SVGID_97_);}
	.st102{fill:url(#SVGID_98_);}
	.st103{fill:url(#SVGID_99_);}
	.st104{opacity:0.4;clip-path:url(#SVGID_101_);}
	.st105{fill:url(#SVGID_102_);}
	.st106{fill:url(#SVGID_103_);}
	.st107{fill:url(#SVGID_104_);}
	.st108{fill:url(#SVGID_105_);}
	.st109{fill:url(#SVGID_106_);}
	.st110{clip-path:url(#SVGID_108_);}
	.st111{clip-path:url(#SVGID_108_);fill:none;}
	.st112{fill:url(#SVGID_109_);}
	.st113{fill:none;stroke:#FFFFFF;stroke-width:0.25;stroke-miterlimit:10;}
	.st114{opacity:0.4;clip-path:url(#SVGID_111_);}
	.st115{opacity:0.4;fill:url(#SVGID_112_);}
	.st116{fill:url(#SVGID_113_);}
	.st117{fill:url(#SVGID_114_);}
	.st118{fill:url(#SVGID_115_);}
	.st119{fill:url(#SVGID_116_);}
	.st120{fill:url(#SVGID_117_);}
	.st121{fill:url(#SVGID_118_);}
	.st122{clip-path:url(#SVGID_120_);}
	.st123{fill:url(#SVGID_121_);}
	.st124{fill:url(#SVGID_122_);}
	.st125{fill:none;stroke:url(#SVGID_123_);stroke-miterlimit:10;}
	.st126{fill:none;stroke:url(#SVGID_124_);stroke-miterlimit:10;}
	.st127{fill:none;stroke:url(#SVGID_125_);stroke-miterlimit:10;}
	.st128{fill:none;stroke:url(#SVGID_126_);stroke-miterlimit:10;}
	.st129{fill:none;stroke:url(#SVGID_127_);stroke-miterlimit:10;}
	.st130{fill:none;stroke:url(#SVGID_128_);stroke-miterlimit:10;}
	.st131{fill:none;stroke:url(#SVGID_129_);stroke-miterlimit:10;}
	.st132{fill:none;stroke:url(#SVGID_130_);stroke-miterlimit:10;}
	.st133{opacity:0.9;fill:url(#SVGID_131_);}
	.st134{opacity:0.9;fill:url(#SVGID_132_);}
	.st135{opacity:0.9;fill:url(#SVGID_133_);}
</style>
<g class="st72">
	<g>
		<linearGradient id="SVGID_2_" gradientUnits="userSpaceOnUse" x1="28.7053" y1="158.0056" x2="29.7053" y2="158.0056">
			<stop  offset="0" style="stop-color:#1B1A4F"/>
			<stop  offset="1" style="stop-color:#54228A"/>
		</linearGradient>
		<line style="fill:none;stroke:url(#SVGID_2_);stroke-miterlimit:10;" x1="29.21" y1="155.24" x2="29.21" y2="160.77"/>
		<linearGradient id="SVGID_4_" gradientUnits="userSpaceOnUse" x1="28.7053" y1="182.3534" x2="29.7053" y2="182.3534">
			<stop  offset="0" style="stop-color:#1B1A4F"/>
			<stop  offset="1" style="stop-color:#54228A"/>
		</linearGradient>
		<line style="fill:none;stroke:url(#SVGID_4_);stroke-miterlimit:10;" x1="29.21" y1="179.59" x2="29.21" y2="185.12"/>
		<linearGradient id="SVGID_6_" gradientUnits="userSpaceOnUse" x1="35.5035" y1="161.5712" x2="40.1236" y2="161.5712">
			<stop  offset="0" style="stop-color:#1B1A4F"/>
			<stop  offset="1" style="stop-color:#54228A"/>
		</linearGradient>
		<line style="fill:none;stroke:url(#SVGID_6_);stroke-miterlimit:10;" x1="39.77" y1="159.61" x2="35.86" y2="163.53"/>
		<linearGradient id="SVGID_7_" gradientUnits="userSpaceOnUse" x1="18.287" y1="178.7877" x2="22.907" y2="178.7877">
			<stop  offset="0" style="stop-color:#1B1A4F"/>
			<stop  offset="1" style="stop-color:#54228A"/>
		</linearGradient>
		<line style="fill:none;stroke:url(#SVGID_7_);stroke-miterlimit:10;" x1="22.55" y1="176.83" x2="18.64" y2="180.74"/>
		<linearGradient id="SVGID_8_" gradientUnits="userSpaceOnUse" x1="38.6125" y1="170.1794" x2="44.1461" y2="170.1794">
			<stop  offset="0" style="stop-color:#1B1A4F"/>
			<stop  offset="1" style="stop-color:#54228A"/>
		</linearGradient>
		<line style="fill:none;stroke:url(#SVGID_8_);stroke-miterlimit:10;" x1="44.15" y1="170.18" x2="38.61" y2="170.18"/>
		<linearGradient id="SVGID_9_" gradientUnits="userSpaceOnUse" x1="14.2646" y1="170.1794" x2="19.798" y2="170.1794">
			<stop  offset="0" style="stop-color:#1B1A4F"/>
			<stop  offset="1" style="stop-color:#54228A"/>
		</linearGradient>
		<line style="fill:none;stroke:url(#SVGID_9_);stroke-miterlimit:10;" x1="19.8" y1="170.18" x2="14.26" y2="170.18"/>
		<linearGradient id="SVGID_10_" gradientUnits="userSpaceOnUse" x1="35.5035" y1="178.7877" x2="40.1236" y2="178.7877">
			<stop  offset="0" style="stop-color:#1B1A4F"/>
			<stop  offset="1" style="stop-color:#54228A"/>
		</linearGradient>
		<line style="fill:none;stroke:url(#SVGID_10_);stroke-miterlimit:10;" x1="39.77" y1="180.74" x2="35.86" y2="176.83"/>
		<linearGradient id="SVGID_11_" gradientUnits="userSpaceOnUse" x1="18.287" y1="161.5712" x2="22.907" y2="161.5712">
			<stop  offset="0" style="stop-color:#1B1A4F"/>
			<stop  offset="1" style="stop-color:#54228A"/>
		</linearGradient>
		<line style="fill:none;stroke:url(#SVGID_11_);stroke-miterlimit:10;" x1="22.55" y1="163.53" x2="18.64" y2="159.61"/>
	</g>
	<path class="st81" d="M176.69,216.96l-8.08-1.31l1.31-8.08c0.16-0.96-0.5-1.87-1.46-2.03l-9.82-1.59c-0.96-0.16-1.87,0.5-2.03,1.46
		c-0.16,0.96,0.5,1.87,1.46,2.03l8.08,1.31l-1.31,8.08c-0.16,0.96,0.5,1.87,1.46,2.03l8.08,1.31l-1.31,8.08
		c-0.16,0.96,0.5,1.87,1.46,2.03l8.08,1.31l-1.31,8.08c-0.16,0.96,0.5,1.87,1.46,2.03l8.08,1.31l-1.31,8.08
		c-0.16,0.96,0.5,1.87,1.46,2.03c0.96,0.16,1.87-0.5,2.03-1.46l1.59-9.82c0.16-0.96-0.5-1.87-1.46-2.03l-8.08-1.31l1.31-8.08
		c0.16-0.96-0.5-1.87-1.46-2.03l-8.08-1.31l1.31-8.08C178.31,218.02,177.65,217.11,176.69,216.96z"/>
	<linearGradient id="SVGID_12_" gradientUnits="userSpaceOnUse" x1="241.868" y1="222.3189" x2="255.9927" y2="208.1942">
		<stop  offset="0" style="stop-color:#1B1A4F"/>
		<stop  offset="1" style="stop-color:#54228A"/>
	</linearGradient>
	<path style="opacity:0.9;fill:url(#SVGID_12_);" d="M248.85,205.19c-2,0-3.86,0.6-5.42,1.61c0.11,0.11,0.22,0.23,0.32,0.35
		c0.75,0.91,1.43,1.85,2.07,2.8c0.89-0.52,1.92-0.82,3.03-0.82c3.34,0,6.05,2.71,6.05,6.05c0,2.35-1.35,4.39-3.32,5.39
		c0.49,1.24,0.86,2.51,1.03,3.86c3.65-1.49,6.23-5.07,6.23-9.25C258.84,209.67,254.36,205.19,248.85,205.19z"/>
	<linearGradient id="SVGID_13_" gradientUnits="userSpaceOnUse" x1="124.1026" y1="10.9175" x2="145.9374" y2="10.9175">
		<stop  offset="0" style="stop-color:#1B1A4F"/>
		<stop  offset="1" style="stop-color:#54228A"/>
	</linearGradient>
	<path style="opacity:0.9;fill:url(#SVGID_13_);" d="M143.45,0.07l-17.89,4.79c-0.68,0.18-1.21,0.71-1.39,1.39
		c-0.18,0.68,0.01,1.41,0.51,1.9l13.1,13.1c0.37,0.37,0.88,0.58,1.39,0.58c0.17,0,0.34-0.02,0.51-0.07c0.68-0.18,1.21-0.71,1.4-1.39
		l4.79-17.89c0.18-0.68-0.01-1.41-0.51-1.9C144.86,0.08,144.13-0.12,143.45,0.07z M138.15,16.05l-8.27-8.27l11.29-3.03L138.15,16.05
		z"/>
	<path class="st81" d="M122.32,128.19l5.84-5.83c0.7-0.7,0.7-1.82,0-2.52c-0.7-0.7-1.82-0.7-2.52,0l-5.84,5.83l-5.84-5.83
		c-0.7-0.7-1.82-0.7-2.52,0c-0.7,0.7-0.7,1.82,0,2.52l5.84,5.83l-5.84,5.83c-0.7,0.7-0.7,1.82,0,2.52c0.35,0.35,0.8,0.52,1.26,0.52
		c0.46,0,0.91-0.17,1.26-0.52l5.84-5.83l5.84,5.83c0.35,0.35,0.8,0.52,1.26,0.52c0.46,0,0.91-0.17,1.26-0.52
		c0.7-0.7,0.7-1.82,0-2.52L122.32,128.19z"/>
	<path class="st81" d="M205.27,299.89h-11.11c-1.09,0-1.97,0.88-1.97,1.97s0.88,1.97,1.97,1.97h9.13v9.13
		c0,1.09,0.88,1.97,1.97,1.97c1.09,0,1.97-0.88,1.97-1.97v-11.11C207.24,300.77,206.36,299.89,205.27,299.89z"/>
	<path class="st81" d="M243.84,62.27h-11.11c-1.09,0-1.97,0.88-1.97,1.97s0.88,1.97,1.97,1.97h9.13v9.13c0,1.09,0.88,1.97,1.97,1.97
		c1.09,0,1.97-0.88,1.97-1.97V64.24C245.82,63.15,244.93,62.27,243.84,62.27z"/>
	<linearGradient id="SVGID_14_" gradientUnits="userSpaceOnUse" x1="9.094947e-13" y1="307.4149" x2="21.6649" y2="307.4149">
		<stop  offset="0" style="stop-color:#1B1A4F"/>
		<stop  offset="1" style="stop-color:#54228A"/>
	</linearGradient>
	<path style="opacity:0.9;fill:url(#SVGID_14_);" d="M20.88,312.54l-7.29-5.51l5.51-7.29c0.66-0.87,0.48-2.11-0.38-2.76
		c-0.87-0.66-2.11-0.48-2.76,0.38l-5.51,7.29l-7.29-5.51c-0.87-0.66-2.11-0.48-2.76,0.38c-0.66,0.87-0.48,2.11,0.38,2.76l7.29,5.51
		l-5.51,7.29c-0.66,0.87-0.48,2.11,0.38,2.76c0.87,0.66,2.11,0.48,2.76-0.38l5.51-7.29l7.29,5.51c0.87,0.66,2.11,0.48,2.76-0.38
		C21.92,314.43,21.75,313.19,20.88,312.54z"/>
</g>
</svg>
