<?xml version="1.0" encoding="utf-8"?>
<!-- Generator: Adobe Illustrator 23.0.2, SVG Export Plug-In . SVG Version: 6.00 Build 0)  -->
<svg version="1.1" xmlns="http://www.w3.org/2000/svg" xmlns:xlink="http://www.w3.org/1999/xlink" x="0px" y="0px"
	 viewBox="0 0 10.55 10.55" style="enable-background:new 0 0 10.55 10.55;" xml:space="preserve">
<style type="text/css">
	.st0{fill:#F4F4F4;}
	.st1{fill:#6B2378;}
	.st2{fill:none;stroke:#6B2378;stroke-miterlimit:10;}
	.st3{fill:#979797;}
	.st4{opacity:0.3;fill:none;stroke:#FFFFFF;stroke-width:0.5;stroke-miterlimit:10;}
	.st5{clip-path:url(#SVGID_2_);}
	.st6{fill:url(#SVGID_3_);}
	.st7{fill:#FFFFFF;}
	.st8{fill:url(#SVGID_4_);}
	.st9{fill:#BBA1BF;}
	.st10{fill:url(#SVGID_5_);}
	.st11{fill:url(#SVGID_6_);}
	.st12{fill:none;stroke:#FFFFFF;stroke-width:2;stroke-miterlimit:10;}
	.st13{clip-path:url(#SVGID_8_);}
	.st14{fill:url(#SVGID_9_);}
	.st15{fill:url(#SVGID_10_);}
	.st16{fill:url(#SVGID_11_);}
	.st17{fill:url(#SVGID_12_);}
	.st18{clip-path:url(#SVGID_14_);}
	.st19{fill:url(#SVGID_15_);}
	.st20{fill:url(#SVGID_16_);}
	.st21{fill:url(#SVGID_17_);}
	.st22{fill:url(#SVGID_18_);}
	.st23{clip-path:url(#SVGID_20_);}
	.st24{fill:url(#SVGID_21_);}
	.st25{opacity:0.5;fill:none;stroke:#D6D7DB;stroke-width:0.6283;stroke-miterlimit:10;}
	.st26{fill:none;stroke:#713A75;stroke-width:0.75;stroke-miterlimit:10;}
	.st27{opacity:0.7;fill:#85A939;}
	.st28{clip-path:url(#SVGID_23_);}
	.st29{fill:url(#SVGID_24_);}
	.st30{clip-path:url(#SVGID_26_);}
	.st31{fill:url(#SVGID_27_);}
	.st32{clip-path:url(#SVGID_31_);}
	.st33{fill:#ADACB2;}
	.st34{clip-path:url(#SVGID_35_);}
	.st35{fill:url(#SVGID_36_);}
	.st36{opacity:0.5;fill:none;stroke:#D8D9DD;stroke-width:0.5;stroke-miterlimit:10;}
	.st37{opacity:0.7;fill:#BA4C36;}
	.st38{clip-path:url(#SVGID_40_);}
	.st39{clip-path:url(#SVGID_44_);}
	.st40{fill:url(#SVGID_45_);}
	.st41{clip-path:url(#SVGID_49_);}
	.st42{clip-path:url(#SVGID_53_);}
	.st43{fill:url(#SVGID_54_);}
	.st44{fill:#D7D8DC;}
</style>
<g id="Inicio_Sesion_01">
</g>
<g id="Inicio_Sesion_02">
	<path class="st37" d="M5.27,0C2.35,0,0,2.35,0,5.27s2.35,5.27,5.27,5.27s5.27-2.35,5.27-5.27S8.2,0,5.27,0z M6.04,5.37l1.8,1.8
		c0.05,0.05,0.07,0.12,0.07,0.17S7.89,7.45,7.84,7.5L7.5,7.84C7.45,7.89,7.38,7.91,7.33,7.91c-0.07,0-0.12-0.02-0.17-0.07l-1.8-1.8
		c-0.05-0.05-0.12-0.05-0.17,0l-1.8,1.8C3.36,7.89,3.28,7.91,3.24,7.91c-0.07,0-0.12-0.02-0.17-0.07L2.73,7.5
		C2.68,7.45,2.66,7.38,2.66,7.33s0.02-0.12,0.07-0.17l1.8-1.8c0.05-0.05,0.05-0.12,0-0.17l-1.8-1.8C2.68,3.36,2.66,3.28,2.66,3.24
		s0.02-0.12,0.07-0.17l0.34-0.34c0.05-0.05,0.12-0.07,0.17-0.07S3.36,2.68,3.4,2.73l1.8,1.8c0.05,0.05,0.12,0.05,0.17,0l1.8-1.8
		c0.05-0.05,0.12-0.07,0.17-0.07c0.07,0,0.12,0.02,0.17,0.07l0.34,0.34c0.05,0.05,0.07,0.12,0.07,0.17S7.89,3.36,7.84,3.4l-1.8,1.8
		C5.99,5.23,5.99,5.32,6.04,5.37z"/>
</g>
</svg>
