<?xml version="1.0" encoding="utf-8"?>
<!-- Generator: Adobe Illustrator 23.0.2, SVG Export Plug-In . SVG Version: 6.00 Build 0)  -->
<svg version="1.1" id="Capa_1" xmlns="http://www.w3.org/2000/svg" xmlns:xlink="http://www.w3.org/1999/xlink" x="0px" y="0px"
	 viewBox="0 0 56 67" style="enable-background:new 0 0 56 67;" xml:space="preserve">
<style type="text/css">
	.st0{fill:none;stroke:url(#SVGID_1_);stroke-width:4.5;stroke-linecap:round;stroke-miterlimit:10;}
	.st1{fill:none;stroke:url(#SVGID_2_);stroke-width:4.5;stroke-linecap:round;stroke-miterlimit:10;}
	.st2{opacity:0.5;fill:none;stroke:url(#SVGID_3_);stroke-width:4.5;stroke-linecap:round;stroke-miterlimit:10;}
	.st3{fill:url(#SVGID_4_);}
	.st4{fill:none;stroke:url(#SVGID_5_);stroke-width:4.5;stroke-linecap:round;stroke-miterlimit:10;}
	.st5{fill:none;stroke:url(#SVGID_6_);stroke-width:4.5;stroke-linecap:round;stroke-miterlimit:10;}
	.st6{fill:none;stroke:url(#SVGID_7_);stroke-width:4.5;stroke-linecap:round;stroke-miterlimit:10;}
	.st7{fill:url(#SVGID_8_);}
	.st8{fill:url(#SVGID_9_);}
	.st9{fill:none;stroke:url(#SVGID_10_);stroke-width:4;stroke-linejoin:round;stroke-miterlimit:10;}
	.st10{fill:none;stroke:url(#SVGID_11_);stroke-width:5;stroke-linecap:round;stroke-linejoin:round;stroke-miterlimit:10;}
	.st11{fill:none;stroke:url(#SVGID_12_);stroke-width:4.5;stroke-linecap:round;stroke-linejoin:round;stroke-miterlimit:10;}
	.st12{fill:url(#SVGID_13_);}
	.st13{fill:url(#SVGID_14_);}
	.st14{fill:none;stroke:url(#SVGID_15_);stroke-width:4.5;stroke-linecap:round;stroke-linejoin:round;stroke-miterlimit:10;}
	.st15{fill:none;stroke:url(#SVGID_16_);stroke-width:4;stroke-linecap:round;stroke-miterlimit:10;}
	.st16{fill:none;stroke:url(#SVGID_17_);stroke-width:4;stroke-linecap:round;stroke-miterlimit:10;}
	.st17{fill:none;stroke:url(#SVGID_18_);stroke-width:4;stroke-linecap:round;stroke-miterlimit:10;}
	.st18{fill:none;stroke:url(#SVGID_19_);stroke-width:4;stroke-linecap:round;stroke-miterlimit:10;}
	.st19{fill:none;stroke:url(#SVGID_20_);stroke-width:4;stroke-linecap:round;stroke-miterlimit:10;}
	.st20{fill:none;stroke:url(#SVGID_21_);stroke-width:4;stroke-linecap:round;stroke-linejoin:round;stroke-miterlimit:10;}
	.st21{fill:none;stroke:url(#SVGID_22_);stroke-width:4;stroke-linecap:round;stroke-linejoin:round;stroke-miterlimit:10;}
	.st22{fill:none;stroke:url(#SVGID_23_);stroke-width:4;stroke-linecap:round;stroke-linejoin:round;stroke-miterlimit:10;}
	.st23{fill:url(#SVGID_24_);}
	.st24{fill:url(#SVGID_25_);}
	.st25{fill:none;stroke:url(#SVGID_26_);stroke-width:5;stroke-miterlimit:10;}
	.st26{fill:none;stroke:url(#SVGID_27_);stroke-width:4;stroke-linecap:round;stroke-linejoin:round;stroke-miterlimit:10;}
	.st27{fill:none;stroke:url(#SVGID_28_);stroke-width:4;stroke-linecap:round;stroke-linejoin:round;stroke-miterlimit:10;}
	.st28{fill:none;stroke:url(#SVGID_29_);stroke-width:4.5;stroke-linecap:round;stroke-miterlimit:10;}
	.st29{fill:url(#SVGID_30_);}
	.st30{fill:none;stroke:url(#SVGID_31_);stroke-width:4.5;stroke-linecap:round;stroke-linejoin:round;stroke-miterlimit:10;}
	.st31{fill:none;stroke:url(#SVGID_32_);stroke-width:4.5;stroke-linecap:round;stroke-linejoin:round;stroke-miterlimit:10;}
	.st32{fill:none;stroke:url(#SVGID_33_);stroke-width:4.5;stroke-linecap:round;stroke-linejoin:round;stroke-miterlimit:10;}
	.st33{fill:none;stroke:url(#SVGID_34_);stroke-width:4.5;stroke-linecap:round;stroke-miterlimit:10;}
	.st34{fill:none;stroke:url(#SVGID_35_);stroke-width:4.5;stroke-linecap:round;stroke-linejoin:round;stroke-miterlimit:10;}
	.st35{fill:none;stroke:url(#SVGID_36_);stroke-width:4.5;stroke-linecap:round;stroke-miterlimit:10;}
	.st36{fill:none;stroke:url(#SVGID_37_);stroke-width:4.5;stroke-miterlimit:10;}
	.st37{fill:none;stroke:url(#SVGID_38_);stroke-width:4.8678;stroke-miterlimit:10;}
	.st38{fill:none;stroke:url(#SVGID_39_);stroke-width:4.8678;stroke-linecap:round;stroke-linejoin:round;stroke-miterlimit:10;}
	.st39{fill:none;stroke:url(#SVGID_40_);stroke-width:4.8678;stroke-linecap:round;stroke-linejoin:round;stroke-miterlimit:10;}
	.st40{fill:none;stroke:url(#SVGID_41_);stroke-width:4.8678;stroke-linecap:round;stroke-linejoin:round;stroke-miterlimit:10;}
	.st41{fill:none;stroke:url(#SVGID_42_);stroke-width:4.8678;stroke-miterlimit:10;}
	.st42{fill:none;stroke:url(#SVGID_43_);stroke-width:4.8678;stroke-linecap:round;stroke-miterlimit:10;}
	.st43{fill:none;stroke:url(#SVGID_44_);stroke-width:4.8678;stroke-linecap:round;stroke-miterlimit:10;}
	.st44{fill:url(#SVGID_45_);}
	.st45{fill:url(#SVGID_46_);}
	.st46{fill:url(#SVGID_47_);}
	.st47{fill:url(#SVGID_48_);}
	.st48{fill:url(#SVGID_49_);}
	.st49{fill:url(#SVGID_50_);}
	.st50{fill:url(#SVGID_51_);}
	.st51{fill:url(#SVGID_52_);}
</style>
<g>
	<g>
		<linearGradient id="SVGID_1_" gradientUnits="userSpaceOnUse" x1="39.1714" y1="53.5674" x2="41.5168" y2="53.5674">
			<stop  offset="0" style="stop-color:#A642A1"/>
			<stop  offset="0.3683" style="stop-color:#8B32A1"/>
			<stop  offset="0.7505" style="stop-color:#7626A1"/>
			<stop  offset="1" style="stop-color:#6E21A1"/>
		</linearGradient>
		<path style="fill:url(#SVGID_1_);" d="M41.22,52.78c-0.43-0.48-1.16-0.52-1.64-0.09l-0.02,0.01c-0.48,0.43-0.52,1.16-0.09,1.64
			c0.23,0.26,0.55,0.39,0.87,0.39c0.28,0,0.55-0.1,0.78-0.3l0.02-0.01C41.61,54,41.65,53.26,41.22,52.78z"/>
	</g>
</g>
<linearGradient id="SVGID_2_" gradientUnits="userSpaceOnUse" x1="3.565" y1="32.9131" x2="52.6755" y2="32.9131">
	<stop  offset="0" style="stop-color:#A642A1"/>
	<stop  offset="0.3683" style="stop-color:#8B32A1"/>
	<stop  offset="0.7505" style="stop-color:#7626A1"/>
	<stop  offset="1" style="stop-color:#6E21A1"/>
</linearGradient>
<path style="fill:url(#SVGID_2_);" d="M52.67,36.45c0-2.57-1.97-4.7-4.48-4.95v-1.81c0-6.73-3.33-12.7-8.44-16.34
	c-0.88-5.7-5.78-9.94-11.61-9.94c-5.83,0-10.73,4.24-11.62,9.94c-5.1,3.64-8.44,9.61-8.44,16.34v1.81
	c-2.52,0.24-4.51,2.37-4.51,4.95l-0.01,2.92c0,1.33,0.52,2.59,1.46,3.53c0.94,0.94,2.2,1.46,3.53,1.46h0.56
	c2.53,8.75,9.54,15.73,18.73,18.02c0.09,0.02,0.19,0.03,0.28,0.03c0.09,0,0.19-0.01,0.28-0.03l0.02,0c2.11-0.53,4.14-1.31,6.05-2.33
	c0.56-0.3,0.77-1,0.47-1.56c-0.3-0.56-1-0.77-1.56-0.47c-1.66,0.89-3.42,1.58-5.25,2.06c-10.46-2.74-17.74-12.15-17.74-22.99v-1.47
	l0.5-0.11c6.56-1.49,12.88-4.17,18.53-7.84c3.89,5.06,9.91,8.05,16.33,8.05h0.13v1.36c0,3.91-0.98,7.79-2.82,11.23
	c-0.3,0.56-0.09,1.26,0.47,1.56c0.17,0.09,0.36,0.14,0.54,0.14c0.41,0,0.81-0.22,1.02-0.61c0.86-1.6,1.55-3.3,2.05-5.04h0.54
	c1.33,0,2.59-0.52,3.53-1.46c0.94-0.94,1.46-2.2,1.46-3.53L52.67,36.45z M8.55,42.06L8.55,42.06c-0.72,0-1.39-0.28-1.9-0.79
	c-0.51-0.51-0.79-1.18-0.78-1.9l0.01-2.92c0-1.31,0.96-2.41,2.21-2.63v3.27C8.08,38.78,8.24,40.44,8.55,42.06L8.55,42.06L8.55,42.06
	z M28.13,5.71c3.96,0,7.38,2.43,8.78,5.95c-2.65-1.3-5.63-2.03-8.78-2.03s-6.13,0.73-8.78,2.03C20.75,8.14,24.18,5.71,28.13,5.71z
	 M45.88,32.91v0.5h-0.13c-5.66,0-10.97-2.61-14.42-7.05c0.8-0.57,1.58-1.15,2.35-1.76c0.5-0.39,0.58-1.12,0.19-1.62
	c-0.39-0.5-1.12-0.58-1.62-0.19c-6.37,5.04-13.93,8.65-21.86,10.45v-0.34v-3.23c0-9.79,7.96-17.75,17.75-17.75
	s17.75,7.96,17.75,17.75L45.88,32.91L45.88,32.91z M49.59,41.27c-0.5,0.5-1.17,0.78-1.88,0.79c0.32-1.64,0.48-3.3,0.48-4.97v-3.26
	c1.24,0.24,2.17,1.33,2.18,2.63l0.01,2.92C50.37,40.09,50.09,40.76,49.59,41.27z"/>
</svg>
