<svg width="18" height="17" viewBox="0 0 18 17" fill="none" xmlns="http://www.w3.org/2000/svg">
<path d="M17.9375 7.53306C17.7592 6.95651 17.213 6.57341 16.6099 6.59617L16.481 6.59996C16.1016 6.61514 15.7489 6.77065 15.4834 7.03617L13.4958 9.00478C13.4503 8.93271 13.3934 8.86443 13.3327 8.79995C13.071 8.52685 12.703 8.37133 12.3275 8.37133H9.52065C8.98962 8.37133 8.47376 8.30306 7.98445 8.16651C6.70998 7.81375 5.49619 8.06788 4.47206 8.90236C4.03965 9.25512 3.72862 9.63822 3.53896 9.91132C3.32276 9.7596 3.06483 9.68374 2.79931 9.68753C2.46173 9.69512 2.1469 9.83167 1.91173 10.0744L0.0986397 11.9558C-0.034118 12.0961 -0.0341179 12.3161 0.106226 12.4527L1.56656 13.8903C1.70691 14.0268 1.9269 14.0268 2.06346 13.8865C2.20001 13.7461 2.20001 13.5261 2.05966 13.3896L0.84967 12.1948L2.42001 10.5637C2.52242 10.4575 2.66276 10.3968 2.81069 10.393C2.96242 10.3892 3.10276 10.4461 3.20897 10.5486L6.01205 13.2682C6.11826 13.3706 6.17895 13.511 6.18274 13.6589C6.18653 13.8068 6.12964 13.9472 6.02343 14.0572L4.47585 15.6465L4.07758 15.2672C3.93724 15.1344 3.71344 15.1382 3.58069 15.2785C3.44793 15.4189 3.45172 15.6427 3.59207 15.7754L4.24068 16.3937C4.30896 16.4582 4.3962 16.4923 4.48344 16.4923C4.57447 16.4923 4.66551 16.4582 4.73758 16.3861L6.52412 14.5503C6.75929 14.3075 6.88825 13.9889 6.88067 13.6513C6.87687 13.4958 6.85032 13.3479 6.79343 13.2075L7.42308 13.1354C7.71514 13.1013 8.011 13.0823 8.30686 13.0823H12.5779C12.6424 13.0823 12.7106 13.0785 12.7751 13.0747L13.1848 13.0406C13.5982 13.0065 14.0003 12.8623 14.3417 12.6234C14.5086 12.5058 14.6603 12.3692 14.793 12.2137L17.6682 8.83029C17.9792 8.47374 18.0778 7.98444 17.9375 7.53306ZM17.1334 8.37892L14.2582 11.7623C14.1672 11.8723 14.0572 11.9672 13.9396 12.0506C13.7006 12.2175 13.4199 12.3199 13.1279 12.3427L12.7182 12.3768C12.6727 12.3806 12.6272 12.3844 12.5817 12.3844H8.31066C7.98825 12.3844 7.66583 12.4034 7.34721 12.4413L6.32688 12.5589L4.06999 10.3855C4.22172 10.1579 4.5062 9.78994 4.91585 9.45615C5.76929 8.76202 6.73653 8.56098 7.79859 8.85305C8.34859 9.00477 8.92893 9.08064 9.52065 9.08064H12.3275C12.5134 9.08064 12.6955 9.1565 12.8244 9.29305C12.9192 9.39167 12.9799 9.51305 13.0027 9.63822C13.0027 9.66856 13.0065 9.7027 13.0141 9.73305C13.0217 9.89994 12.9724 10.0668 12.8624 10.2034L12.851 10.2186C12.7182 10.3817 12.5248 10.4765 12.3124 10.4765H9.86961C9.67617 10.4765 9.51686 10.6358 9.51686 10.8292C9.51686 11.0227 9.67617 11.182 9.86961 11.182H12.3124C12.7372 11.182 13.1355 10.9923 13.401 10.6586L13.4123 10.6434C13.6172 10.3892 13.7158 10.082 13.7196 9.77477L15.9803 7.53685C16.1206 7.39651 16.3103 7.31306 16.5113 7.30548L16.6403 7.30168C16.9247 7.2903 17.1827 7.47237 17.2661 7.74168C17.3344 7.96168 17.2851 8.20064 17.1334 8.37892Z" fill="url(#paint0_linear)"/>
<path d="M2.80311 11.1403C2.27587 11.1403 1.84725 11.5689 1.84725 12.0961C1.84725 12.6234 2.27587 13.052 2.80311 13.052C3.33035 13.052 3.75896 12.6234 3.75896 12.0961C3.75517 11.5689 3.32655 11.1403 2.80311 11.1403ZM2.80311 12.3427C2.66656 12.3427 2.55276 12.2289 2.55276 12.0923C2.55276 11.9558 2.66656 11.842 2.80311 11.842C2.93966 11.842 3.05345 11.9558 3.05345 12.0923C3.04966 12.2327 2.93966 12.3427 2.80311 12.3427Z" fill="url(#paint1_linear)"/>
<path d="M8.37513 10.5258L8.35617 10.5296C8.16651 10.5751 8.04893 10.7648 8.09445 10.9544C8.13238 11.1175 8.27651 11.2275 8.43582 11.2275C8.46237 11.2275 8.48893 11.2237 8.51548 11.2161L8.53444 11.2123C8.7241 11.1668 8.84168 10.9772 8.79616 10.7875C8.75444 10.5979 8.56479 10.4803 8.37513 10.5258Z" fill="url(#paint2_linear)"/>
<path d="M2.75759 14.2582L2.73862 14.262C2.54897 14.3075 2.43138 14.4971 2.4769 14.6868C2.51483 14.8499 2.65897 14.9599 2.81828 14.9599C2.84483 14.9599 2.87138 14.9561 2.89793 14.9523L2.9169 14.9485C3.10655 14.903 3.22414 14.7134 3.17862 14.5237C3.1369 14.3303 2.94724 14.2127 2.75759 14.2582Z" fill="url(#paint3_linear)"/>
<path d="M10.3172 7.46478C12.3768 7.46478 14.0496 5.79203 14.0496 3.73239C14.0496 1.67275 12.3768 0 10.3172 0C9.47133 0 8.67858 0.273102 8.01479 0.796547C7.86307 0.914132 7.71893 1.04689 7.58997 1.18723C7.39273 1.39585 7.22204 1.63102 7.0779 1.87757C6.75549 2.43895 6.5848 3.07998 6.5848 3.73239C6.5848 5.78824 8.26134 7.46478 10.3172 7.46478ZM7.68859 2.22654C7.80617 2.0255 7.94272 1.83585 8.10203 1.66516C8.20824 1.55137 8.32582 1.44516 8.4472 1.34654C8.98582 0.925511 9.63064 0.70172 10.3134 0.70172C11.9824 0.70172 13.3403 2.05964 13.3403 3.7286C13.3403 5.39755 11.9824 6.75548 10.3134 6.75548C8.64444 6.75548 7.28652 5.39755 7.28652 3.7286C7.29031 3.20515 7.43066 2.68171 7.68859 2.22654Z" fill="url(#paint4_linear)"/>
<path d="M10.632 4.93858C10.4917 5.02203 10.3058 5.05238 10.1806 5.05238C9.94168 5.05238 9.73306 4.77169 9.73306 4.45307C9.73306 4.25962 9.57375 4.10031 9.38031 4.10031C9.18686 4.10031 9.02755 4.25962 9.02755 4.45307C9.02755 5.06376 9.39927 5.57582 9.89996 5.71996C9.91134 5.90582 10.0631 6.04996 10.2527 6.04996C10.4462 6.04996 10.6017 5.89444 10.6055 5.70479C11.1137 5.57203 11.5537 5.19272 11.5537 4.52893C11.5537 3.73618 10.742 3.29997 10.3248 3.29997C10.321 3.29997 9.80134 3.25446 9.80134 2.92446C9.80134 2.41619 10.3172 2.40102 10.3248 2.40102C10.4234 2.40102 10.541 2.45791 10.6358 2.55274C10.6813 2.59825 10.6851 2.60205 10.6851 2.7917C10.6851 2.98515 10.8444 3.14446 11.0379 3.14446C11.2313 3.14446 11.3906 2.98515 11.3906 2.7917C11.3906 2.56791 11.3906 2.30998 11.1327 2.05584C10.9772 1.90033 10.7951 1.79033 10.6017 1.73723C10.5903 1.55137 10.4386 1.40343 10.2489 1.40343C10.0555 1.40343 9.89617 1.56274 9.89617 1.75619V1.77895C9.50927 1.92309 9.09203 2.26446 9.09203 2.92446C9.09203 3.73239 9.9303 4.00549 10.3172 4.00549C10.4234 4.01307 10.8406 4.19894 10.8406 4.52893C10.8482 4.72238 10.78 4.85134 10.632 4.93858Z" fill="url(#paint5_linear)"/>
<defs>
<linearGradient id="paint0_linear" x1="-0.00259747" y1="11.545" x2="18.0006" y2="11.545" gradientUnits="userSpaceOnUse">
<stop stop-color="#84438D"/>
<stop offset="0.2631" stop-color="#743C8A"/>
<stop offset="0.7089" stop-color="#5F3286"/>
<stop offset="1" stop-color="#572F84"/>
</linearGradient>
<linearGradient id="paint1_linear" x1="1.84649" y1="12.0936" x2="3.75635" y2="12.0936" gradientUnits="userSpaceOnUse">
<stop stop-color="#84438D"/>
<stop offset="0.2631" stop-color="#743C8A"/>
<stop offset="0.7089" stop-color="#5F3286"/>
<stop offset="1" stop-color="#572F84"/>
</linearGradient>
<linearGradient id="paint2_linear" x1="8.0839" y1="10.8709" x2="8.80751" y2="10.8709" gradientUnits="userSpaceOnUse">
<stop stop-color="#84438D"/>
<stop offset="0.2631" stop-color="#743C8A"/>
<stop offset="0.7089" stop-color="#5F3286"/>
<stop offset="1" stop-color="#572F84"/>
</linearGradient>
<linearGradient id="paint3_linear" x1="2.46571" y1="14.6028" x2="3.18935" y2="14.6028" gradientUnits="userSpaceOnUse">
<stop stop-color="#84438D"/>
<stop offset="0.2631" stop-color="#743C8A"/>
<stop offset="0.7089" stop-color="#5F3286"/>
<stop offset="1" stop-color="#572F84"/>
</linearGradient>
<linearGradient id="paint4_linear" x1="6.58594" y1="3.73175" x2="14.05" y2="3.73175" gradientUnits="userSpaceOnUse">
<stop stop-color="#84438D"/>
<stop offset="0.2631" stop-color="#743C8A"/>
<stop offset="0.7089" stop-color="#5F3286"/>
<stop offset="1" stop-color="#572F84"/>
</linearGradient>
<linearGradient id="paint5_linear" x1="9.02709" y1="3.72795" x2="11.5526" y2="3.72795" gradientUnits="userSpaceOnUse">
<stop stop-color="#84438D"/>
<stop offset="0.2631" stop-color="#743C8A"/>
<stop offset="0.7089" stop-color="#5F3286"/>
<stop offset="1" stop-color="#572F84"/>
</linearGradient>
</defs>
</svg>
