<svg width="29" height="33" viewBox="0 0 29 33" fill="none" xmlns="http://www.w3.org/2000/svg">
<path d="M19.6305 10.3155C19.5558 10.0844 19.3519 9.91452 19.1141 9.88054L16.3212 9.47282L15.0708 6.94492C14.9621 6.72747 14.7378 6.58476 14.4932 6.58476C14.2486 6.58476 14.0243 6.72067 13.9156 6.94492L12.6652 9.47282L9.87232 9.88054C9.62768 9.91452 9.43061 10.0844 9.35586 10.3155C9.28112 10.5465 9.34227 10.8047 9.51895 10.9746L11.5372 12.9453L11.0615 15.7246C11.0207 15.9624 11.1227 16.2071 11.3197 16.3498C11.4285 16.4313 11.5644 16.4721 11.6935 16.4721C11.7954 16.4721 11.8974 16.4449 11.9925 16.3974L14.4864 15.0858L16.9803 16.3974C17.1978 16.5129 17.456 16.4925 17.6531 16.3498C17.8501 16.2071 17.9521 15.9624 17.9113 15.7246L17.4356 12.9453L19.4539 10.9746C19.6373 10.8047 19.7053 10.5465 19.6305 10.3155ZM16.3076 12.2589C16.1581 12.4084 16.0901 12.6191 16.1241 12.8298L16.4367 14.6577L14.7922 13.7947C14.6087 13.6996 14.3845 13.6996 14.1942 13.7947L12.5497 14.6577L12.8623 12.8298C12.8963 12.6191 12.8283 12.4084 12.6788 12.2589L11.3469 10.961L13.1817 10.696C13.3923 10.6688 13.569 10.5329 13.6642 10.3426L14.4864 8.67775L15.3087 10.3426C15.4038 10.5329 15.5805 10.662 15.7911 10.696L17.6259 10.961L16.3076 12.2589Z" fill="url(#paint0_linear)"/>
<path d="M28.9131 28.1806L23.6127 18.9592C25.2164 16.9614 26.1745 14.4267 26.1745 11.6745C26.1745 5.23927 20.9353 0 14.5 0C8.06473 0 2.82546 5.23927 2.82546 11.6745C2.82546 14.4267 3.78362 16.9614 5.38734 18.9592L0.0869102 28.1806C-0.0354073 28.3913 -0.0286128 28.6563 0.107296 28.8602C0.243204 29.064 0.481044 29.1728 0.725679 29.1388L4.86409 28.5816L6.45422 32.4414C6.54936 32.6656 6.76001 32.8219 7.00465 32.8355C7.01824 32.8355 7.03183 32.8355 7.04542 32.8355C7.27647 32.8355 7.48712 32.7132 7.60265 32.5161L12.9574 23.2471C12.9574 23.2471 12.9574 23.2471 12.9574 23.2403C13.4603 23.3083 13.9768 23.3423 14.5 23.3423C15.0232 23.3423 15.5397 23.3083 16.0426 23.2403C16.0426 23.2403 16.0426 23.2403 16.0426 23.2471L21.3974 32.5161C21.5129 32.7132 21.7235 32.8355 21.9546 32.8355C21.9682 32.8355 21.9818 32.8355 21.9953 32.8355C22.24 32.8219 22.4506 32.6656 22.5458 32.4414L24.1359 28.5816L28.2743 29.1388C28.519 29.1728 28.7568 29.064 28.8927 28.8602C29.0286 28.6563 29.0354 28.3913 28.9131 28.1806ZM7.14056 30.7493L5.98534 27.936L7.02504 26.2439C7.20851 25.9449 7.11337 25.544 6.81438 25.3605C6.51538 25.177 6.11445 25.2722 5.93097 25.5712L4.88448 27.2836L1.84692 27.6913L6.29113 19.965C7.74535 21.4056 9.58011 22.4725 11.6255 22.9889L7.14056 30.7493ZM14.4932 22.0647C8.76466 22.0647 4.103 17.4031 4.103 11.6745C4.103 5.946 8.76466 1.28434 14.4932 1.28434C20.2217 1.28434 24.8834 5.946 24.8834 11.6745C24.8834 17.4031 20.2285 22.0647 14.4932 22.0647ZM24.1155 27.2836L23.069 25.5712C22.8856 25.2722 22.4914 25.177 22.1856 25.3605C21.8866 25.544 21.7915 25.9381 21.975 26.2439L23.0147 27.936L21.8594 30.7493L17.3813 22.9889C19.4267 22.4657 21.2614 21.4056 22.7157 19.965L27.1599 27.6913L24.1155 27.2836Z" fill="url(#paint1_linear)"/>
<path d="M14.4932 3.33656C13.0594 3.33656 11.6527 3.70351 10.4092 4.40344C10.1034 4.58012 9.98784 4.96746 10.1645 5.28005C10.3412 5.58584 10.7285 5.70136 11.0411 5.52468C12.0876 4.93348 13.2836 4.62089 14.4932 4.62089C18.387 4.62089 21.5469 7.78756 21.5469 11.6745C21.5469 12.7346 21.3158 13.7607 20.8605 14.7121C20.711 15.0315 20.8401 15.412 21.1663 15.5683C21.2547 15.6091 21.3498 15.6295 21.4449 15.6295C21.6828 15.6295 21.9138 15.4936 22.0225 15.2625C22.5594 14.1345 22.8312 12.9317 22.8312 11.6745C22.838 7.07404 19.0937 3.33656 14.4932 3.33656Z" fill="url(#paint2_linear)"/>
<path d="M20.4664 16.574C20.2149 16.3294 19.8072 16.3362 19.5626 16.5876L19.549 16.6012C19.3044 16.8527 19.3044 17.2604 19.5626 17.505C19.6849 17.6273 19.848 17.6885 20.0111 17.6885C20.181 17.6885 20.3441 17.6205 20.4732 17.4982L20.4868 17.4778C20.7246 17.2264 20.7178 16.8255 20.4664 16.574Z" fill="url(#paint3_linear)"/>
<path d="M18.7675 18.1098C18.5976 17.7972 18.2035 17.6885 17.8977 17.8584C16.8648 18.4292 15.6892 18.7282 14.5 18.7282C10.6062 18.7282 7.44635 15.5615 7.44635 11.6745C7.44635 10.6552 7.65701 9.66989 8.07833 8.75251C8.22783 8.43312 8.08512 8.05258 7.75894 7.90308C7.43956 7.75358 7.05901 7.89629 6.90951 8.22247C6.41345 9.30973 6.16202 10.4718 6.16202 11.6745C6.16202 16.275 9.9063 20.0125 14.5 20.0125C15.9067 20.0125 17.2929 19.6592 18.5161 18.9796C18.8287 18.8097 18.9374 18.4224 18.7675 18.1098Z" fill="url(#paint4_linear)"/>
<path d="M9.30151 5.95959C9.04328 5.71495 8.63556 5.73534 8.39772 5.99356L8.38412 6.00716C8.14628 6.26538 8.15988 6.67311 8.4181 6.91095C8.54042 7.02647 8.69671 7.08083 8.85301 7.08083C9.02289 7.08083 9.19958 7.01288 9.32189 6.87697L9.33548 6.86338C9.57332 6.60515 9.55973 6.19743 9.30151 5.95959Z" fill="url(#paint5_linear)"/>
<defs>
<linearGradient id="paint0_linear" x1="9.33337" y1="11.53" x2="19.6592" y2="11.53" gradientUnits="userSpaceOnUse">
<stop stop-color="#84438D"/>
<stop offset="0.2631" stop-color="#743C8A"/>
<stop offset="0.7089" stop-color="#5F3286"/>
<stop offset="1" stop-color="#572F84"/>
</linearGradient>
<linearGradient id="paint1_linear" x1="-0.00550787" y1="16.4199" x2="28.9982" y2="16.4199" gradientUnits="userSpaceOnUse">
<stop stop-color="#84438D"/>
<stop offset="0.2631" stop-color="#743C8A"/>
<stop offset="0.7089" stop-color="#5F3286"/>
<stop offset="1" stop-color="#572F84"/>
</linearGradient>
<linearGradient id="paint2_linear" x1="10.0849" y1="9.48064" x2="22.8355" y2="9.48064" gradientUnits="userSpaceOnUse">
<stop stop-color="#84438D"/>
<stop offset="0.2631" stop-color="#743C8A"/>
<stop offset="0.7089" stop-color="#5F3286"/>
<stop offset="1" stop-color="#572F84"/>
</linearGradient>
<linearGradient id="paint3_linear" x1="19.3616" y1="17.0437" x2="20.6601" y2="17.0437" gradientUnits="userSpaceOnUse">
<stop stop-color="#84438D"/>
<stop offset="0.2631" stop-color="#743C8A"/>
<stop offset="0.7089" stop-color="#5F3286"/>
<stop offset="1" stop-color="#572F84"/>
</linearGradient>
<linearGradient id="paint4_linear" x1="6.15706" y1="13.928" x2="18.8476" y2="13.928" gradientUnits="userSpaceOnUse">
<stop stop-color="#84438D"/>
<stop offset="0.2631" stop-color="#743C8A"/>
<stop offset="0.7089" stop-color="#5F3286"/>
<stop offset="1" stop-color="#572F84"/>
</linearGradient>
<linearGradient id="paint5_linear" x1="8.20901" y1="6.4337" x2="9.50469" y2="6.4337" gradientUnits="userSpaceOnUse">
<stop stop-color="#84438D"/>
<stop offset="0.2631" stop-color="#743C8A"/>
<stop offset="0.7089" stop-color="#5F3286"/>
<stop offset="1" stop-color="#572F84"/>
</linearGradient>
</defs>
</svg>
