<svg width="18" height="17" viewBox="0 0 18 17" fill="none" xmlns="http://www.w3.org/2000/svg">
<path d="M17.9375 7.53307C17.7592 6.95652 17.213 6.57342 16.6099 6.59618L16.481 6.59997C16.1016 6.61515 15.7489 6.77066 15.4834 7.03618L13.4958 9.00479C13.4503 8.93272 13.3934 8.86444 13.3327 8.79996C13.071 8.52686 12.703 8.37134 12.3275 8.37134H9.52065C8.98962 8.37134 8.47376 8.30307 7.98445 8.16652C6.70998 7.81376 5.49619 8.06789 4.47206 8.90237C4.03965 9.25513 3.72862 9.63823 3.53896 9.91133C3.32276 9.75961 3.06483 9.68375 2.79931 9.68754C2.46173 9.69513 2.1469 9.83168 1.91173 10.0744L0.0986397 11.9558C-0.034118 12.0961 -0.0341179 12.3161 0.106226 12.4527L1.56656 13.8903C1.70691 14.0268 1.9269 14.0268 2.06346 13.8865C2.20001 13.7461 2.20001 13.5261 2.05966 13.3896L0.84967 12.1948L2.42001 10.5637C2.52242 10.4575 2.66276 10.3968 2.81069 10.393C2.96242 10.3892 3.10276 10.4461 3.20897 10.5486L6.01205 13.2682C6.11826 13.3706 6.17895 13.511 6.18274 13.6589C6.18653 13.8068 6.12964 13.9472 6.02343 14.0572L4.47585 15.6465L4.07758 15.2672C3.93724 15.1344 3.71344 15.1382 3.58069 15.2785C3.44793 15.4189 3.45172 15.6427 3.59207 15.7754L4.24068 16.3937C4.30896 16.4582 4.3962 16.4923 4.48344 16.4923C4.57447 16.4923 4.66551 16.4582 4.73758 16.3861L6.52412 14.5503C6.75929 14.3075 6.88825 13.9889 6.88067 13.6513C6.87687 13.4958 6.85032 13.3479 6.79343 13.2075L7.42308 13.1354C7.71514 13.1013 8.011 13.0823 8.30686 13.0823H12.5779C12.6424 13.0823 12.7106 13.0785 12.7751 13.0747L13.1848 13.0406C13.5982 13.0065 14.0003 12.8623 14.3417 12.6234C14.5086 12.5058 14.6603 12.3692 14.793 12.2137L17.6682 8.8303C17.9792 8.47375 18.0778 7.98445 17.9375 7.53307ZM17.1334 8.37893L14.2582 11.7623C14.1672 11.8723 14.0572 11.9672 13.9396 12.0506C13.7006 12.2175 13.4199 12.3199 13.1279 12.3427L12.7182 12.3768C12.6727 12.3806 12.6272 12.3844 12.5817 12.3844H8.31066C7.98825 12.3844 7.66583 12.4034 7.34721 12.4413L6.32688 12.5589L4.06999 10.3855C4.22172 10.1579 4.5062 9.78995 4.91585 9.45616C5.76929 8.76203 6.73653 8.56099 7.79859 8.85306C8.34859 9.00478 8.92893 9.08065 9.52065 9.08065H12.3275C12.5134 9.08065 12.6955 9.15651 12.8244 9.29306C12.9192 9.39168 12.9799 9.51306 13.0027 9.63823C13.0027 9.66857 13.0065 9.70271 13.0141 9.73306C13.0217 9.89995 12.9724 10.0668 12.8624 10.2034L12.851 10.2186C12.7182 10.3817 12.5248 10.4765 12.3124 10.4765H9.86961C9.67617 10.4765 9.51686 10.6358 9.51686 10.8292C9.51686 11.0227 9.67617 11.182 9.86961 11.182H12.3124C12.7372 11.182 13.1355 10.9923 13.401 10.6586L13.4123 10.6434C13.6172 10.3892 13.7158 10.082 13.7196 9.77478L15.9803 7.53686C16.1206 7.39652 16.3103 7.31307 16.5113 7.30549L16.6403 7.30169C16.9247 7.29031 17.1827 7.47238 17.2661 7.74169C17.3344 7.96169 17.2851 8.20065 17.1334 8.37893Z" fill="white"/>
<path d="M2.80352 11.1404C2.27628 11.1404 1.84766 11.569 1.84766 12.0962C1.84766 12.6235 2.27628 13.0521 2.80352 13.0521C3.33076 13.0521 3.75937 12.6235 3.75937 12.0962C3.75558 11.569 3.32696 11.1404 2.80352 11.1404ZM2.80352 12.3428C2.66697 12.3428 2.55317 12.229 2.55317 12.0924C2.55317 11.9559 2.66697 11.8421 2.80352 11.8421C2.94007 11.8421 3.05386 11.9559 3.05386 12.0924C3.05007 12.2328 2.94007 12.3428 2.80352 12.3428Z" fill="white"/>
<path d="M8.37543 10.5259L8.35647 10.5297C8.16681 10.5752 8.04923 10.7649 8.09475 10.9545C8.13268 11.1176 8.27681 11.2276 8.43612 11.2276C8.46267 11.2276 8.48923 11.2238 8.51578 11.2162L8.53474 11.2124C8.7244 11.1669 8.84198 10.9773 8.79646 10.7876C8.75474 10.598 8.56509 10.4804 8.37543 10.5259Z" fill="white"/>
<path d="M2.75728 14.2583L2.73831 14.2621C2.54866 14.3076 2.43107 14.4972 2.47659 14.6869C2.51452 14.85 2.65866 14.96 2.81797 14.96C2.84452 14.96 2.87107 14.9562 2.89762 14.9524L2.91659 14.9486C3.10624 14.9031 3.22383 14.7135 3.17831 14.5238C3.13659 14.3304 2.94693 14.2128 2.75728 14.2583Z" fill="white"/>
<path d="M10.3174 7.46478C12.377 7.46478 14.0498 5.79203 14.0498 3.73239C14.0498 1.67275 12.377 0 10.3174 0C9.47149 0 8.67874 0.273102 8.01495 0.796547C7.86323 0.914132 7.71909 1.04689 7.59013 1.18723C7.39289 1.39585 7.2222 1.63102 7.07806 1.87757C6.75565 2.43895 6.58496 3.07998 6.58496 3.73239C6.58496 5.78824 8.2615 7.46478 10.3174 7.46478ZM7.68875 2.22654C7.80633 2.0255 7.94288 1.83585 8.10219 1.66516C8.2084 1.55137 8.32598 1.44516 8.44736 1.34654C8.98598 0.925511 9.6308 0.70172 10.3136 0.70172C11.9826 0.70172 13.3405 2.05964 13.3405 3.7286C13.3405 5.39755 11.9826 6.75548 10.3136 6.75548C8.6446 6.75548 7.28668 5.39755 7.28668 3.7286C7.29047 3.20515 7.43082 2.68171 7.68875 2.22654Z" fill="white"/>
<path d="M10.6318 4.93847C10.4915 5.02192 10.3056 5.05227 10.1804 5.05227C9.94147 5.05227 9.73285 4.77158 9.73285 4.45296C9.73285 4.25951 9.57354 4.1002 9.3801 4.1002C9.18665 4.1002 9.02734 4.25951 9.02734 4.45296C9.02734 5.06365 9.39906 5.57571 9.89975 5.71985C9.91113 5.90571 10.0629 6.04985 10.2525 6.04985C10.446 6.04985 10.6015 5.89433 10.6053 5.70468C11.1135 5.57192 11.5535 5.19261 11.5535 4.52882C11.5535 3.73607 10.7418 3.29986 10.3246 3.29986C10.3208 3.29986 9.80113 3.25435 9.80113 2.92435C9.80113 2.41608 10.317 2.40091 10.3246 2.40091C10.4232 2.40091 10.5408 2.4578 10.6356 2.55263C10.6811 2.59814 10.6849 2.60194 10.6849 2.79159C10.6849 2.98504 10.8442 3.14435 11.0377 3.14435C11.2311 3.14435 11.3904 2.98504 11.3904 2.79159C11.3904 2.5678 11.3904 2.30987 11.1325 2.05573C10.977 1.90022 10.7949 1.79022 10.6015 1.73712C10.5901 1.55126 10.4384 1.40332 10.2487 1.40332C10.0553 1.40332 9.89596 1.56263 9.89596 1.75608V1.77884C9.50906 1.92298 9.09182 2.26435 9.09182 2.92435C9.09182 3.73228 9.93009 4.00538 10.317 4.00538C10.4232 4.01296 10.8404 4.19883 10.8404 4.52882C10.848 4.72227 10.7798 4.85123 10.6318 4.93847Z" fill="white"/>
</svg>
