<?xml version="1.0" encoding="utf-8"?>
<!-- Generator: Adobe Illustrator 23.0.2, SVG Export Plug-In . SVG Version: 6.00 Build 0)  -->
<svg version="1.1" id="Capa_1" xmlns="http://www.w3.org/2000/svg" xmlns:xlink="http://www.w3.org/1999/xlink" x="0px" y="0px"
	 viewBox="0 0 76 48" style="enable-background:new 0 0 76 48;" xml:space="preserve">
<style type="text/css">
	.st0{fill:none;stroke:url(#SVGID_1_);stroke-width:4.5;stroke-linecap:round;stroke-miterlimit:10;}
	.st1{fill:none;stroke:url(#SVGID_2_);stroke-width:4.5;stroke-linecap:round;stroke-miterlimit:10;}
	.st2{opacity:0.5;fill:none;stroke:url(#SVGID_3_);stroke-width:4.5;stroke-linecap:round;stroke-miterlimit:10;}
	.st3{fill:url(#SVGID_4_);}
	.st4{fill:none;stroke:url(#SVGID_5_);stroke-width:4.5;stroke-linecap:round;stroke-miterlimit:10;}
	.st5{fill:none;stroke:url(#SVGID_6_);stroke-width:4.5;stroke-linecap:round;stroke-miterlimit:10;}
	.st6{fill:none;stroke:url(#SVGID_7_);stroke-width:4.5;stroke-linecap:round;stroke-miterlimit:10;}
	.st7{fill:url(#SVGID_8_);}
	.st8{fill:url(#SVGID_9_);}
	.st9{fill:none;stroke:url(#SVGID_10_);stroke-width:4;stroke-linejoin:round;stroke-miterlimit:10;}
	.st10{fill:none;stroke:url(#SVGID_11_);stroke-width:5;stroke-linecap:round;stroke-linejoin:round;stroke-miterlimit:10;}
	.st11{fill:none;stroke:url(#SVGID_12_);stroke-width:4.5;stroke-linecap:round;stroke-linejoin:round;stroke-miterlimit:10;}
	.st12{fill:url(#SVGID_13_);}
	.st13{fill:url(#SVGID_14_);}
	.st14{fill:none;stroke:url(#SVGID_15_);stroke-width:4.5;stroke-linecap:round;stroke-linejoin:round;stroke-miterlimit:10;}
	.st15{fill:none;stroke:url(#SVGID_16_);stroke-width:4;stroke-linecap:round;stroke-miterlimit:10;}
	.st16{fill:none;stroke:url(#SVGID_17_);stroke-width:4;stroke-linecap:round;stroke-miterlimit:10;}
	.st17{fill:none;stroke:url(#SVGID_18_);stroke-width:4;stroke-linecap:round;stroke-miterlimit:10;}
	.st18{fill:none;stroke:url(#SVGID_19_);stroke-width:4;stroke-linecap:round;stroke-miterlimit:10;}
	.st19{fill:none;stroke:url(#SVGID_20_);stroke-width:4;stroke-linecap:round;stroke-miterlimit:10;}
	.st20{fill:none;stroke:url(#SVGID_21_);stroke-width:4;stroke-linecap:round;stroke-linejoin:round;stroke-miterlimit:10;}
	.st21{fill:none;stroke:url(#SVGID_22_);stroke-width:4;stroke-linecap:round;stroke-linejoin:round;stroke-miterlimit:10;}
	.st22{fill:none;stroke:url(#SVGID_23_);stroke-width:4;stroke-linecap:round;stroke-linejoin:round;stroke-miterlimit:10;}
	.st23{fill:url(#SVGID_24_);}
	.st24{fill:url(#SVGID_25_);}
	.st25{fill:none;stroke:url(#SVGID_26_);stroke-width:5;stroke-miterlimit:10;}
	.st26{fill:none;stroke:url(#SVGID_27_);stroke-width:4;stroke-linecap:round;stroke-linejoin:round;stroke-miterlimit:10;}
	.st27{fill:none;stroke:url(#SVGID_28_);stroke-width:4;stroke-linecap:round;stroke-linejoin:round;stroke-miterlimit:10;}
	.st28{fill:none;stroke:url(#SVGID_29_);stroke-width:4.5;stroke-linecap:round;stroke-miterlimit:10;}
	.st29{fill:url(#SVGID_30_);}
	.st30{fill:none;stroke:url(#SVGID_31_);stroke-width:4.5;stroke-linecap:round;stroke-linejoin:round;stroke-miterlimit:10;}
	.st31{fill:none;stroke:url(#SVGID_32_);stroke-width:4.5;stroke-linecap:round;stroke-linejoin:round;stroke-miterlimit:10;}
	.st32{fill:none;stroke:url(#SVGID_33_);stroke-width:4.5;stroke-linecap:round;stroke-linejoin:round;stroke-miterlimit:10;}
	.st33{fill:none;stroke:url(#SVGID_34_);stroke-width:4.5;stroke-linecap:round;stroke-miterlimit:10;}
	.st34{fill:none;stroke:url(#SVGID_35_);stroke-width:4.5;stroke-linecap:round;stroke-linejoin:round;stroke-miterlimit:10;}
	.st35{fill:none;stroke:url(#SVGID_36_);stroke-width:4.5;stroke-linecap:round;stroke-miterlimit:10;}
	.st36{fill:none;stroke:url(#SVGID_37_);stroke-width:4.5;stroke-miterlimit:10;}
	.st37{fill:none;stroke:url(#SVGID_38_);stroke-width:4.8678;stroke-miterlimit:10;}
	.st38{fill:none;stroke:url(#SVGID_39_);stroke-width:4.8678;stroke-linecap:round;stroke-linejoin:round;stroke-miterlimit:10;}
	.st39{fill:none;stroke:url(#SVGID_40_);stroke-width:4.8678;stroke-linecap:round;stroke-linejoin:round;stroke-miterlimit:10;}
	.st40{fill:none;stroke:url(#SVGID_41_);stroke-width:4.8678;stroke-linecap:round;stroke-linejoin:round;stroke-miterlimit:10;}
	.st41{fill:none;stroke:url(#SVGID_42_);stroke-width:4.8678;stroke-miterlimit:10;}
	.st42{fill:none;stroke:url(#SVGID_43_);stroke-width:4.8678;stroke-linecap:round;stroke-miterlimit:10;}
	.st43{fill:none;stroke:url(#SVGID_44_);stroke-width:4.8678;stroke-linecap:round;stroke-miterlimit:10;}
	.st44{fill:url(#SVGID_45_);}
	.st45{fill:url(#SVGID_46_);}
	.st46{fill:url(#SVGID_47_);}
	.st47{fill:url(#SVGID_48_);}
	.st48{fill:url(#SVGID_49_);}
	.st49{fill:url(#SVGID_50_);}
	.st50{fill:url(#SVGID_51_);}
	.st51{fill:url(#SVGID_52_);}
</style>
<g>
	<g>
		<linearGradient id="SVGID_1_" gradientUnits="userSpaceOnUse" x1="46.0032" y1="29.5547" x2="60.4651" y2="29.5547">
			<stop  offset="0" style="stop-color:#A642A1"/>
			<stop  offset="0.3683" style="stop-color:#8B32A1"/>
			<stop  offset="0.7505" style="stop-color:#7626A1"/>
			<stop  offset="1" style="stop-color:#6E21A1"/>
		</linearGradient>
		<path style="fill:url(#SVGID_1_);" d="M59.39,35.49c-0.26,0-0.53-0.08-0.73-0.25L46.34,25.22c-0.43-0.35-0.45-0.94-0.05-1.31
			c0.4-0.38,1.08-0.39,1.51-0.04l12.32,10.02c0.43,0.35,0.45,0.94,0.05,1.31C59.96,35.39,59.68,35.49,59.39,35.49z"/>
		<linearGradient id="SVGID_2_" gradientUnits="userSpaceOnUse" x1="17.1951" y1="29.5558" x2="31.6612" y2="29.5558">
			<stop  offset="0" style="stop-color:#A642A1"/>
			<stop  offset="0.3683" style="stop-color:#8B32A1"/>
			<stop  offset="0.7505" style="stop-color:#7626A1"/>
			<stop  offset="1" style="stop-color:#6E21A1"/>
		</linearGradient>
		<path style="fill:url(#SVGID_2_);" d="M18.27,35.49c-0.28,0-0.57-0.1-0.78-0.29c-0.4-0.37-0.38-0.96,0.05-1.31l12.32-10.02
			c0.43-0.35,1.11-0.33,1.51,0.04c0.4,0.37,0.38,0.96-0.05,1.31L19,35.24C18.79,35.41,18.53,35.49,18.27,35.49z"/>
	</g>
	<linearGradient id="SVGID_3_" gradientUnits="userSpaceOnUse" x1="5.6292" y1="24.3484" x2="72.0332" y2="24.3484">
		<stop  offset="0" style="stop-color:#A642A1"/>
		<stop  offset="0.3683" style="stop-color:#8B32A1"/>
		<stop  offset="0.7505" style="stop-color:#7626A1"/>
		<stop  offset="1" style="stop-color:#6E21A1"/>
	</linearGradient>
	<path style="fill:url(#SVGID_3_);" d="M66.68,44.81h-55.7c-2.95,0-5.35-2.08-5.35-4.64V8.53c0-2.56,2.4-4.64,5.35-4.64h55.7
		c2.95,0,5.35,2.08,5.35,4.64v31.64C72.03,42.73,69.63,44.81,66.68,44.81z M10.98,5.75c-1.77,0-3.21,1.25-3.21,2.78v31.64
		c0,1.53,1.44,2.78,3.21,2.78h55.7c1.77,0,3.21-1.25,3.21-2.78V8.53c0-1.53-1.44-2.78-3.21-2.78H10.98z"/>
	<linearGradient id="SVGID_4_" gradientUnits="userSpaceOnUse" x1="7.039" y1="17.1898" x2="70.5879" y2="17.1898">
		<stop  offset="0" style="stop-color:#A642A1"/>
		<stop  offset="0.3683" style="stop-color:#8B32A1"/>
		<stop  offset="0.7505" style="stop-color:#7626A1"/>
		<stop  offset="1" style="stop-color:#6E21A1"/>
	</linearGradient>
	<path class="st3" d="M38.83,29.01c-1.42,0-2.85-0.41-3.93-1.23L7.41,6.99C6.96,6.66,6.91,6.07,7.3,5.68
		C7.69,5.3,8.37,5.26,8.81,5.59l27.49,20.79c1.37,1.03,3.68,1.03,5.05,0L68.81,5.63c0.44-0.34,1.12-0.3,1.51,0.09
		c0.39,0.39,0.34,0.97-0.1,1.31L42.76,27.78C41.68,28.6,40.26,29.01,38.83,29.01z"/>
</g>
</svg>
