<svg xmlns="http://www.w3.org/2000/svg" width="35.32" height="39.778" viewBox="0 0 35.32 39.778">
  <g id="icon-btn" transform="translate(1 0.998)">
    <g id="Group_14" data-name="Group 14">
      <g id="Group_13" data-name="Group 13">
        <path id="Path_26" data-name="Path 26" d="M33.65,17.34l-8.16-4.72a.578.578,0,0,0-.14-.05L17.46,8.04.01-.93a1.519,1.519,0,0,0-.2-.06.809.809,0,0,0-.22,0,.786.786,0,0,0-.26.08A.624.624,0,0,0-1-.32V38.1a.705.705,0,0,0,.34.61.5.5,0,0,0,.34.07.6.6,0,0,0,.34-.07L17.47,29l7.67-4.45h.01c.13,0,.2-.07.34-.2h0a.507.507,0,0,0,.16-.09l8-4.63a1.3,1.3,0,0,0,.67-1.15A1.39,1.39,0,0,0,33.65,17.34ZM.35,1.23,18.88,18.54.35,36.45ZM24.07,13.36l-2.35,2.39L19.89,17.6l-8.12-7.55L3.72,2.54,16.8,9.18ZM16.8,27.85,3.84,35,16.12,23.13l3.77-3.63,4.14,4.2Zm8.47-4.88L20.9,18.55l4.39-4.45,7.68,4.45Z" fill="#fff"/>
      </g>
    </g>
  </g>
</svg>
