<?xml version="1.0" encoding="utf-8"?>
<!-- Generator: Adobe Illustrator 23.0.3, SVG Export Plug-In . SVG Version: 6.00 Build 0)  -->
<svg version="1.1" id="Capa_1" xmlns="http://www.w3.org/2000/svg" xmlns:xlink="http://www.w3.org/1999/xlink" x="0px" y="0px"
	 viewBox="0 0 28.89 27.35" style="enable-background:new 0 0 28.89 27.35;" xml:space="preserve">
<style type="text/css">
	.st0{fill:#F4F4F4;}
	.st1{fill:none;stroke:#642075;stroke-miterlimit:10;}
	.st2{fill:#FFFFFF;}
	.st3{fill:#E5E5E5;}
	.st4{fill:#85A939;}
	.st5{fill:#FFFFFF;stroke:#85A939;stroke-width:1.3;stroke-miterlimit:10;}
	.st6{fill:#642075;}
	.st7{fill:none;stroke:#FFFFFF;stroke-miterlimit:10;}
	.st8{clip-path:url(#SVGID_4_);}
	.st9{fill:#6B2378;}
	.st10{fill:#ABAAB0;}
	.st11{clip-path:url(#SVGID_6_);}
	.st12{fill:none;stroke:#6B2378;stroke-miterlimit:10;}
	.st13{fill:#979797;}
	.st14{fill:url(#SVGID_7_);}
	.st15{opacity:0.4;fill:url(#SVGID_8_);}
	.st16{opacity:0.4;}
	.st17{fill:url(#SVGID_9_);}
	.st18{fill:url(#SVGID_10_);}
	.st19{fill:url(#SVGID_11_);}
	.st20{fill:url(#SVGID_12_);}
	.st21{fill:url(#SVGID_13_);}
	.st22{fill:url(#SVGID_14_);}
	.st23{opacity:0.4;clip-path:url(#SVGID_16_);}
	.st24{fill:url(#SVGID_17_);}
	.st25{fill:url(#SVGID_18_);}
	.st26{fill:url(#SVGID_19_);}
	.st27{fill:url(#SVGID_20_);}
	.st28{fill:url(#SVGID_21_);}
	.st29{clip-path:url(#SVGID_23_);}
	.st30{fill:#ECEDEF;}
	.st31{clip-path:url(#SVGID_23_);fill:none;}
	.st32{fill:#040006;}
	.st33{fill:#4E3580;}
	.st34{fill:none;}
	.st35{fill:#D7D8DC;}
	.st36{fill:url(#SVGID_24_);}
	.st37{fill:none;stroke:#FFFFFF;stroke-width:0.4707;stroke-miterlimit:10;}
	.st38{opacity:0.4;clip-path:url(#SVGID_26_);}
	.st39{opacity:0.4;fill:url(#SVGID_27_);}
	.st40{fill:url(#SVGID_28_);}
	.st41{fill:url(#SVGID_29_);}
	.st42{fill:url(#SVGID_30_);}
	.st43{fill:url(#SVGID_31_);}
	.st44{fill:url(#SVGID_32_);}
	.st45{fill:url(#SVGID_33_);}
	.st46{fill:#713A75;}
	.st47{fill:#515365;}
	.st48{fill:#FF4B55;}
	.st49{fill:#FFE15A;}
	.st50{fill:#41479B;}
	.st51{clip-path:url(#SVGID_35_);}
	.st52{fill:#82AFFF;}
	.st53{fill:#F5F5F5;}
	.st54{fill:none;stroke:#642075;stroke-width:0.75;stroke-miterlimit:10;}
	.st55{opacity:0.35;}
	.st56{fill:none;stroke:#FFFFFF;stroke-width:1.3785;stroke-linecap:round;stroke-miterlimit:10;}
	.st57{fill:none;stroke:#FFFFFF;stroke-width:0.5;stroke-miterlimit:10;}
	.st58{opacity:0.5;fill:none;stroke:#FFFFFF;stroke-width:0.25;stroke-miterlimit:10;}
	.st59{clip-path:url(#SVGID_45_);}
	.st60{clip-path:url(#SVGID_47_);}
	.st61{opacity:0.5;}
	.st62{fill:#FFFFFF;stroke:url(#SVGID_48_);stroke-width:4.5;stroke-linecap:round;stroke-miterlimit:10;}
	.st63{clip-path:url(#SVGID_50_);fill:#FFFFFF;}
	.st64{clip-path:url(#SVGID_52_);fill:#FFFFFF;}
	.st65{clip-path:url(#SVGID_54_);fill:#FFFFFF;}
	.st66{clip-path:url(#SVGID_56_);}
	.st67{clip-path:url(#SVGID_58_);}
	.st68{fill:#6B2378;stroke:#FFFFFF;stroke-width:0.7;stroke-miterlimit:10;}
	.st69{fill:#6B2378;stroke:#6B2378;stroke-width:0.1473;stroke-miterlimit:10;}
	.st70{clip-path:url(#SVGID_60_);}
	.st71{clip-path:url(#SVGID_62_);fill:#F4F4F4;}
	.st72{opacity:0.3;}
	.st73{fill:none;stroke:url(#SVGID_63_);stroke-miterlimit:10;}
	.st74{fill:none;stroke:url(#SVGID_64_);stroke-miterlimit:10;}
	.st75{fill:none;stroke:url(#SVGID_65_);stroke-miterlimit:10;}
	.st76{fill:none;stroke:url(#SVGID_66_);stroke-miterlimit:10;}
	.st77{fill:none;stroke:url(#SVGID_67_);stroke-miterlimit:10;}
	.st78{fill:none;stroke:url(#SVGID_68_);stroke-miterlimit:10;}
	.st79{fill:none;stroke:url(#SVGID_69_);stroke-miterlimit:10;}
	.st80{fill:none;stroke:url(#SVGID_70_);stroke-miterlimit:10;}
	.st81{fill:#BBA1BF;}
	.st82{opacity:0.9;fill:url(#SVGID_71_);}
	.st83{opacity:0.9;fill:url(#SVGID_72_);}
	.st84{opacity:0.9;fill:url(#SVGID_73_);}
	.st85{fill:#FFFFFF;stroke:url(#SVGID_76_);stroke-width:4.5;stroke-linecap:round;stroke-miterlimit:10;}
	.st86{clip-path:url(#SVGID_78_);fill:#FFFFFF;}
	.st87{clip-path:url(#SVGID_80_);fill:#FFFFFF;}
	.st88{clip-path:url(#SVGID_82_);fill:#FFFFFF;}
	.st89{fill:#FFFFFF;stroke:url(#SVGID_83_);stroke-width:4.5;stroke-linecap:round;stroke-miterlimit:10;}
	.st90{clip-path:url(#SVGID_85_);fill:#FFFFFF;}
	.st91{clip-path:url(#SVGID_87_);fill:#FFFFFF;}
	.st92{clip-path:url(#SVGID_89_);fill:#FFFFFF;}
	.st93{fill:url(#SVGID_90_);}
	.st94{fill:#6B2378;stroke:#FFFFFF;stroke-width:0.1651;stroke-miterlimit:10;}
	.st95{fill:url(#SVGID_91_);}
	.st96{fill:url(#SVGID_92_);}
	.st97{opacity:0.4;fill:url(#SVGID_93_);}
	.st98{fill:url(#SVGID_94_);}
	.st99{fill:url(#SVGID_95_);}
	.st100{fill:url(#SVGID_96_);}
	.st101{fill:url(#SVGID_97_);}
	.st102{fill:url(#SVGID_98_);}
	.st103{fill:url(#SVGID_99_);}
	.st104{opacity:0.4;clip-path:url(#SVGID_101_);}
	.st105{fill:url(#SVGID_102_);}
	.st106{fill:url(#SVGID_103_);}
	.st107{fill:url(#SVGID_104_);}
	.st108{fill:url(#SVGID_105_);}
	.st109{fill:url(#SVGID_106_);}
	.st110{clip-path:url(#SVGID_108_);}
	.st111{clip-path:url(#SVGID_108_);fill:none;}
	.st112{fill:url(#SVGID_109_);}
	.st113{fill:none;stroke:#FFFFFF;stroke-width:0.25;stroke-miterlimit:10;}
	.st114{opacity:0.4;clip-path:url(#SVGID_111_);}
	.st115{opacity:0.4;fill:url(#SVGID_112_);}
	.st116{fill:url(#SVGID_113_);}
	.st117{fill:url(#SVGID_114_);}
	.st118{fill:url(#SVGID_115_);}
	.st119{fill:url(#SVGID_116_);}
	.st120{fill:url(#SVGID_117_);}
	.st121{fill:url(#SVGID_118_);}
	.st122{clip-path:url(#SVGID_120_);}
	.st123{fill:url(#SVGID_121_);}
	.st124{fill:url(#SVGID_122_);}
	.st125{fill:none;stroke:url(#SVGID_123_);stroke-miterlimit:10;}
	.st126{fill:none;stroke:url(#SVGID_124_);stroke-miterlimit:10;}
	.st127{fill:none;stroke:url(#SVGID_125_);stroke-miterlimit:10;}
	.st128{fill:none;stroke:url(#SVGID_126_);stroke-miterlimit:10;}
	.st129{fill:none;stroke:url(#SVGID_127_);stroke-miterlimit:10;}
	.st130{fill:none;stroke:url(#SVGID_128_);stroke-miterlimit:10;}
	.st131{fill:none;stroke:url(#SVGID_129_);stroke-miterlimit:10;}
	.st132{fill:none;stroke:url(#SVGID_130_);stroke-miterlimit:10;}
	.st133{opacity:0.9;fill:url(#SVGID_131_);}
	.st134{opacity:0.9;fill:url(#SVGID_132_);}
	.st135{opacity:0.9;fill:url(#SVGID_133_);}
</style>
<g>
	<g>
		<g>
			<g>
				<path class="st69" d="M24.71,10.37c0-5.7-4.59-10.29-10.27-10.29S4.18,4.67,4.18,10.34c0,0,0,0,0,0.03
					c-2.28,0.13-4.11,2.03-4.11,4.34v0.51c0,2.41,1.95,4.36,4.36,4.36h0.23l1.82,2.9c1.28,2.05,3.46,3.26,5.88,3.26h0.36
					c0.23,0.87,1.03,1.54,1.98,1.54c1.13,0,2.05-0.92,2.05-2.05c0-1.13-0.92-2.05-2.05-2.05c-0.95,0-1.75,0.67-1.98,1.54h-0.36
					c-2.05,0-3.93-1.05-5-2.8l-1.49-2.34h0.36c0.56,0,1.03-0.46,1.03-1.03v-7.19c0-0.56-0.46-1.03-1.03-1.03H5.21
					c0-5.11,4.13-9.24,9.24-9.24s9.24,4.13,9.24,9.24h-1.03c-0.56,0-1.03,0.46-1.03,1.03v7.19c0,0.56,0.46,1.03,1.03,1.03h1.8
					c2.41,0,4.36-1.95,4.36-4.36V14.7C28.82,12.39,27,10.49,24.71,10.37z M14.7,24.2c0.56,0,1.03,0.46,1.03,1.03
					s-0.46,1.03-1.03,1.03c-0.56,0-1.03-0.46-1.03-1.03S14.14,24.2,14.7,24.2z M6.23,11.37v7.19h-1.8c-1.85,0-3.34-1.49-3.34-3.34
					V14.7c0-1.85,1.49-3.34,3.34-3.34H6.23z M27.79,15.22c0,1.85-1.49,3.34-3.34,3.34h-1.8v-7.19h1.8c1.85,0,3.34,1.49,3.34,3.34
					V15.22z"/>
				<path class="st69" d="M18.71,3.95c-0.05-0.03-0.13-0.08-0.21-0.13c-0.08-0.05-0.15-0.1-0.21-0.13
					c-0.23-0.15-0.56-0.08-0.69,0.18c-0.13,0.26-0.08,0.54,0.18,0.69c0.05,0.03,0.13,0.08,0.21,0.13c0.08,0.05,0.15,0.1,0.23,0.13
					C18.3,4.87,18.4,4.9,18.48,4.9c0.18,0,0.33-0.08,0.44-0.26C19.04,4.41,18.96,4.1,18.71,3.95z"/>
				<path class="st69" d="M14.45,2.64c-2.18,0-4.23,0.95-5.65,2.59C8.62,5.44,8.65,5.77,8.85,5.95c0.1,0.08,0.21,0.13,0.33,0.13
					c0.15,0,0.28-0.05,0.38-0.18c1.23-1.41,3-2.23,4.88-2.23c0.46,0,0.92,0.05,1.39,0.15c0.28,0.05,0.54-0.13,0.62-0.38
					s-0.13-0.54-0.38-0.62C15.52,2.69,14.99,2.64,14.45,2.64z"/>
			</g>
		</g>
	</g>
</g>
</svg>
