<svg xmlns="http://www.w3.org/2000/svg" width="53.966" height="63.147" viewBox="0 0 53.966 63.147">
  <path id="home-icon" d="M52.43,31.32a1.53,1.53,0,0,0-1.53,1.53V60.09H34.5V42.99a1.53,1.53,0,0,0-1.53-1.53H20.99a1.53,1.53,0,0,0-1.53,1.53V56.55a1.53,1.53,0,0,0,3.06,0V44.51h8.92V60.08H3.06V22.66L26.98,3.49l24.5,19.63a1.53,1.53,0,1,0,1.91-2.39L27.94.34a1.52,1.52,0,0,0-1.91,0L.57,20.73A1.537,1.537,0,0,0,0,21.93V61.62a1.53,1.53,0,0,0,1.53,1.53h50.9a1.53,1.53,0,0,0,1.53-1.53V32.84A1.522,1.522,0,0,0,52.43,31.32Z" transform="translate(0 -0.003)" fill="#713b74"/>
</svg>
