<?xml version="1.0" encoding="utf-8"?>
<!-- Generator: Adobe Illustrator 23.0.2, SVG Export Plug-In . SVG Version: 6.00 Build 0)  -->
<svg version="1.1" id="Capa_1" xmlns="http://www.w3.org/2000/svg" xmlns:xlink="http://www.w3.org/1999/xlink" x="0px" y="0px"
	 viewBox="0 0 84.75 58.04" style="enable-background:new 0 0 84.75 58.04;" xml:space="preserve">
<style type="text/css">
	.st0{clip-path:url(#SVGID_2_);}
	.st1{fill:#FFFFFF;}
	.st2{fill:#6B2378;}
	.st3{fill:none;stroke:#6B2378;stroke-miterlimit:10;}
	.st4{fill:#979797;}
	.st5{fill:none;stroke:#808080;stroke-width:0.1151;stroke-miterlimit:10;}
	.st6{clip-path:url(#SVGID_4_);}
	.st7{fill:none;stroke:#808080;stroke-width:0.1;stroke-miterlimit:10;}
	.st8{fill:none;stroke:#868589;stroke-width:2;stroke-linecap:round;stroke-miterlimit:10;}
	.st9{fill:url(#SVGID_5_);}
	.st10{fill:#713A75;}
	.st11{opacity:0.4;fill:url(#SVGID_6_);}
	.st12{opacity:0.4;}
	.st13{fill:url(#SVGID_7_);}
	.st14{fill:url(#SVGID_8_);}
	.st15{fill:url(#SVGID_9_);}
	.st16{fill:url(#SVGID_10_);}
	.st17{fill:url(#SVGID_11_);}
	.st18{fill:url(#SVGID_12_);}
	.st19{opacity:0.4;clip-path:url(#SVGID_14_);}
	.st20{fill:url(#SVGID_15_);}
	.st21{fill:url(#SVGID_16_);}
	.st22{fill:url(#SVGID_17_);}
	.st23{fill:url(#SVGID_18_);}
	.st24{fill:url(#SVGID_19_);}
	.st25{clip-path:url(#SVGID_21_);}
	.st26{fill:#ECEDEF;}
	.st27{clip-path:url(#SVGID_21_);fill:none;}
	.st28{fill:#040006;}
	.st29{fill:#4E3580;}
	.st30{fill:none;}
	.st31{fill:#D7D8DC;}
	.st32{fill:url(#SVGID_22_);}
	.st33{fill:none;stroke:#FFFFFF;stroke-width:0.25;stroke-miterlimit:10;}
	.st34{opacity:0.4;clip-path:url(#SVGID_24_);}
	.st35{opacity:0.4;fill:url(#SVGID_25_);}
	.st36{fill:url(#SVGID_26_);}
	.st37{fill:url(#SVGID_27_);}
	.st38{fill:url(#SVGID_28_);}
	.st39{fill:url(#SVGID_29_);}
	.st40{fill:url(#SVGID_30_);}
	.st41{fill:url(#SVGID_31_);}
	.st42{fill:url(#SVGID_32_);}
	.st43{fill:#515365;}
	.st44{fill:url(#SVGID_33_);}
	.st45{opacity:0.4;fill:url(#SVGID_34_);}
	.st46{fill:url(#SVGID_35_);}
	.st47{fill:url(#SVGID_36_);}
	.st48{fill:url(#SVGID_37_);}
	.st49{fill:url(#SVGID_38_);}
	.st50{fill:url(#SVGID_39_);}
	.st51{fill:url(#SVGID_40_);}
	.st52{opacity:0.4;clip-path:url(#SVGID_42_);}
	.st53{fill:url(#SVGID_43_);}
	.st54{fill:url(#SVGID_44_);}
	.st55{fill:url(#SVGID_45_);}
	.st56{fill:url(#SVGID_46_);}
	.st57{fill:url(#SVGID_47_);}
	.st58{clip-path:url(#SVGID_49_);}
	.st59{clip-path:url(#SVGID_49_);fill:none;}
	.st60{fill:url(#SVGID_50_);}
	.st61{opacity:0.4;clip-path:url(#SVGID_52_);}
	.st62{opacity:0.4;fill:url(#SVGID_53_);}
	.st63{fill:url(#SVGID_54_);}
	.st64{fill:url(#SVGID_55_);}
	.st65{fill:url(#SVGID_56_);}
	.st66{fill:url(#SVGID_57_);}
	.st67{fill:url(#SVGID_58_);}
	.st68{fill:url(#SVGID_59_);}
	.st69{clip-path:url(#SVGID_61_);}
	.st70{fill:url(#SVGID_62_);}
	.st71{fill:none;stroke:#868589;stroke-width:3.6982;stroke-linecap:round;stroke-miterlimit:10;}
	.st72{fill:none;stroke:#B0B0B0;stroke-width:0.252;stroke-miterlimit:10;}
	.st73{opacity:0.5;}
	.st74{fill-rule:evenodd;clip-rule:evenodd;fill:#D4D3D6;}
	.st75{fill:#ADACB2;}
	.st76{fill:#703A75;}
	.st77{fill:url(#SVGID_63_);}
	.st78{fill:url(#SVGID_64_);}
	.st79{opacity:0.4;fill:url(#SVGID_65_);}
	.st80{fill:url(#SVGID_66_);}
	.st81{fill:url(#SVGID_67_);}
	.st82{fill:url(#SVGID_68_);}
	.st83{fill:url(#SVGID_69_);}
	.st84{fill:url(#SVGID_70_);}
	.st85{fill:url(#SVGID_71_);}
	.st86{opacity:0.4;clip-path:url(#SVGID_73_);}
	.st87{fill:url(#SVGID_74_);}
	.st88{fill:url(#SVGID_75_);}
	.st89{fill:url(#SVGID_76_);}
	.st90{fill:url(#SVGID_77_);}
	.st91{fill:url(#SVGID_78_);}
	.st92{clip-path:url(#SVGID_80_);}
	.st93{clip-path:url(#SVGID_80_);fill:none;}
	.st94{fill:url(#SVGID_81_);}
	.st95{fill:none;stroke:#FFFFFF;stroke-width:0.4707;stroke-miterlimit:10;}
	.st96{opacity:0.4;clip-path:url(#SVGID_83_);}
	.st97{opacity:0.4;fill:url(#SVGID_84_);}
	.st98{fill:url(#SVGID_85_);}
	.st99{fill:url(#SVGID_86_);}
	.st100{fill:url(#SVGID_87_);}
	.st101{fill:url(#SVGID_88_);}
	.st102{fill:url(#SVGID_89_);}
	.st103{fill:url(#SVGID_90_);}
	.st104{fill:#FF4B55;}
	.st105{fill:#FFE15A;}
	.st106{fill:#41479B;}
	.st107{clip-path:url(#SVGID_92_);}
	.st108{fill:#82AFFF;}
	.st109{fill:#F5F5F5;}
	.st110{clip-path:url(#SVGID_94_);}
</style>
<g>
	<g>
		<g>
			<g>
				<path class="st10" d="M66.59,23.51c-2.79,0-5.06,2.46-5.06,5.48s2.27,5.48,5.06,5.48c2.79,0,5.06-2.46,5.06-5.48
					S69.38,23.51,66.59,23.51z M66.59,31.77c-1.41,0-2.56-1.25-2.56-2.78s1.15-2.78,2.56-2.78c1.41,0,2.56,1.25,2.56,2.78
					C69.15,30.53,68,31.77,66.59,31.77z"/>
			</g>
		</g>
		<path class="st10" d="M81.95,18.74h-1.31V5.96c0-1.97-0.9-3.71-2.26-4.8C77.69,0.66,76.01,0,76.01,0H75.8H5.17
			C3.29,0.36,3.23,0.5,3.23,0.5C1.33,1.45,0,3.54,0,5.96v46.07c0,3.31,2.49,6.01,5.54,6.01H75.1c3.06,0,5.54-2.69,5.54-6.01V39.24
			h1.31c1.55,0,2.8-1.36,2.8-3.04V21.78C84.76,20.11,83.5,18.74,81.95,18.74z M2.49,5.96c0-1.82,1.37-3.3,3.05-3.3H75.1
			c1.68,0,3.05,1.48,3.05,3.3v3.75H2.49V5.96z M78.15,45.58H17.2c-0.69,0-1.25,0.61-1.25,1.35c0,0.75,0.56,1.35,1.25,1.35h60.95
			v3.75c0,1.82-1.37,3.3-3.05,3.3H5.54c-1.68,0-3.05-1.48-3.05-3.3v-3.75h6.72c0.69,0,1.25-0.6,1.25-1.35
			c0-0.75-0.56-1.35-1.25-1.35H2.49V12.41h75.66v6.33H66.3c-3.73,0-6.97,2.36-8.51,5.78c0,0.01-0.01,0.02-0.02,0.03
			c-0.01,0.03-0.02,0.06-0.04,0.09c-0.18,0.42-0.34,0.86-0.47,1.31c0,0,0,0,0,0c-0.28,0.96-0.42,1.98-0.42,3.04
			c0,5.65,4.24,10.25,9.46,10.25h11.85V45.58z M82.26,36.21c0,0.18-0.14,0.34-0.31,0.34H66.3c-2.64,0-4.94-1.6-6.12-3.95
			c-0.05-0.11-0.1-0.22-0.15-0.33c-0.1-0.22-0.19-0.44-0.26-0.68c-0.27-0.81-0.42-1.68-0.42-2.59s0.15-1.78,0.42-2.59
			c0.08-0.23,0.17-0.46,0.26-0.68c0.05-0.11,0.1-0.22,0.15-0.33c1.18-2.35,3.48-3.95,6.12-3.95h15.66c0.17,0,0.31,0.15,0.31,0.34
			V36.21z"/>
	</g>
</g>
</svg>
