<?xml version="1.0" encoding="utf-8"?>
<!-- Generator: Adobe Illustrator 23.0.2, SVG Export Plug-In . SVG Version: 6.00 Build 0)  -->
<svg version="1.1" id="Capa_1" xmlns="http://www.w3.org/2000/svg" xmlns:xlink="http://www.w3.org/1999/xlink" x="0px" y="0px"
	 viewBox="0 0 48.9 49.77" style="enable-background:new 0 0 48.9 49.77;" xml:space="preserve">
<style type="text/css">
	.st0{fill:#FFFFFF;}
	.st1{fill:#713A75;}
	.st2{fill:none;stroke:#6B2378;stroke-width:1.4706;stroke-miterlimit:10;}
	.st3{fill:none;stroke:#6B2378;stroke-width:1.1956;stroke-miterlimit:10;}
	.st4{clip-path:url(#SVGID_2_);}
	.st5{fill:none;stroke:#6B2378;stroke-miterlimit:10;}
	.st6{fill:url(#SVGID_3_);}
	.st7{opacity:0.4;fill:url(#SVGID_4_);}
	.st8{opacity:0.4;}
	.st9{fill:url(#SVGID_5_);}
	.st10{fill:url(#SVGID_6_);}
	.st11{fill:url(#SVGID_7_);}
	.st12{fill:url(#SVGID_8_);}
	.st13{fill:url(#SVGID_9_);}
	.st14{fill:url(#SVGID_10_);}
	.st15{opacity:0.4;clip-path:url(#SVGID_12_);}
	.st16{fill:url(#SVGID_13_);}
	.st17{fill:url(#SVGID_14_);}
	.st18{fill:url(#SVGID_15_);}
	.st19{fill:url(#SVGID_16_);}
	.st20{fill:url(#SVGID_17_);}
	.st21{clip-path:url(#SVGID_19_);}
	.st22{fill:#ECEDEF;}
	.st23{clip-path:url(#SVGID_19_);fill:none;}
	.st24{fill:#040006;}
	.st25{fill:#4E3580;}
	.st26{fill:none;}
	.st27{fill:#D7D8DC;}
	.st28{fill:url(#SVGID_20_);}
	.st29{fill:none;stroke:#FFFFFF;stroke-width:0.25;stroke-miterlimit:10;}
	.st30{opacity:0.4;clip-path:url(#SVGID_22_);}
	.st31{opacity:0.4;fill:url(#SVGID_23_);}
	.st32{fill:url(#SVGID_24_);}
	.st33{fill:url(#SVGID_25_);}
	.st34{fill:url(#SVGID_26_);}
	.st35{fill:url(#SVGID_27_);}
	.st36{fill:url(#SVGID_28_);}
	.st37{fill:url(#SVGID_29_);}
	.st38{fill:none;stroke:#6B2378;stroke-width:0.5;stroke-miterlimit:10;}
	.st39{clip-path:url(#SVGID_31_);}
	.st40{clip-path:url(#SVGID_33_);}
	.st41{fill:#6B2378;}
	.st42{fill:#ABAAB0;}
	.st43{fill:none;stroke:#6B2378;stroke-width:1.0956;stroke-miterlimit:10;}
	.st44{fill:#F4F4F4;}
	.st45{fill:#5E126B;}
	.st46{fill:#666666;}
	.st47{fill:#F4F4F4;stroke:#713A75;stroke-width:10;stroke-miterlimit:10;}
	.st48{fill:#F4F4F4;stroke:#713A75;stroke-width:3.8174;stroke-miterlimit:10;}
	.st49{fill:#515365;}
	.st50{fill:#FF4B55;}
	.st51{fill:#FFE15A;}
	.st52{fill:#41479B;}
	.st53{clip-path:url(#SVGID_35_);}
	.st54{fill:#82AFFF;}
	.st55{fill:#F5F5F5;}
	.st56{fill:#979797;}
	.st57{fill:url(#SVGID_36_);}
	.st58{opacity:0.4;fill:url(#SVGID_37_);}
	.st59{fill:url(#SVGID_38_);}
	.st60{fill:url(#SVGID_39_);}
	.st61{fill:url(#SVGID_40_);}
	.st62{fill:url(#SVGID_41_);}
	.st63{fill:url(#SVGID_42_);}
	.st64{fill:url(#SVGID_43_);}
	.st65{opacity:0.4;clip-path:url(#SVGID_45_);}
	.st66{fill:url(#SVGID_46_);}
	.st67{fill:url(#SVGID_47_);}
	.st68{fill:url(#SVGID_48_);}
	.st69{fill:url(#SVGID_49_);}
	.st70{fill:url(#SVGID_50_);}
	.st71{clip-path:url(#SVGID_52_);}
	.st72{clip-path:url(#SVGID_52_);fill:none;}
	.st73{fill:url(#SVGID_53_);}
	.st74{fill:none;stroke:#FFFFFF;stroke-width:0.4707;stroke-miterlimit:10;}
	.st75{opacity:0.4;clip-path:url(#SVGID_55_);}
	.st76{opacity:0.4;fill:url(#SVGID_56_);}
	.st77{fill:url(#SVGID_57_);}
	.st78{fill:url(#SVGID_58_);}
	.st79{fill:url(#SVGID_59_);}
	.st80{fill:url(#SVGID_60_);}
	.st81{fill:url(#SVGID_61_);}
	.st82{fill:url(#SVGID_62_);}
	.st83{clip-path:url(#SVGID_64_);}
	.st84{fill:url(#SVGID_65_);}
	.st85{opacity:0.4;fill:url(#SVGID_66_);}
	.st86{fill:url(#SVGID_67_);}
	.st87{fill:url(#SVGID_68_);}
	.st88{fill:url(#SVGID_69_);}
	.st89{fill:url(#SVGID_70_);}
	.st90{fill:url(#SVGID_71_);}
	.st91{fill:url(#SVGID_72_);}
	.st92{opacity:0.4;clip-path:url(#SVGID_74_);}
	.st93{fill:url(#SVGID_75_);}
	.st94{fill:url(#SVGID_76_);}
	.st95{fill:url(#SVGID_77_);}
	.st96{fill:url(#SVGID_78_);}
	.st97{fill:url(#SVGID_79_);}
	.st98{clip-path:url(#SVGID_81_);}
	.st99{clip-path:url(#SVGID_81_);fill:none;}
	.st100{fill:url(#SVGID_82_);}
	.st101{opacity:0.4;clip-path:url(#SVGID_84_);}
	.st102{opacity:0.4;fill:url(#SVGID_85_);}
	.st103{fill:url(#SVGID_86_);}
	.st104{fill:url(#SVGID_87_);}
	.st105{fill:url(#SVGID_88_);}
	.st106{fill:url(#SVGID_89_);}
	.st107{fill:url(#SVGID_90_);}
	.st108{fill:url(#SVGID_91_);}
	.st109{clip-path:url(#SVGID_93_);}
</style>
<g>
	<g>
		<g>
			<path class="st1" d="M23.64,12.93c-0.38,0-0.85-0.06-1.16-0.41c-0.11-0.12-0.21-0.24-0.3-0.34c-0.76-0.8-2.07,0.31-1.27,1.35
				l0.19,0.25c0.12,0.16,0.35,0.34,0.67,0.54c0.31,0.2,0.66,0.34,1.05,0.43v1.37c0,0.47,0.39,0.86,0.86,0.86
				c0.47,0,0.88-0.39,0.88-0.86v-1.38c0.62-0.14,1.15-0.45,1.59-0.9c0.44-0.46,0.66-1.07,0.66-1.82c0-0.52-0.1-0.95-0.3-1.29
				c-0.2-0.34-0.44-0.59-0.73-0.72c-0.29-0.14-0.61-0.26-0.96-0.36c-0.35-0.1-0.67-0.17-0.96-0.22c-0.29-0.04-0.53-0.13-0.73-0.26
				c-0.2-0.13-0.3-0.31-0.3-0.52c0-1.02,1.5-0.9,2.16-0.34c0.97,0.82,2.06-0.68,0.93-1.53l-0.13-0.12
				c-0.09-0.07-0.24-0.16-0.47-0.26c-0.22-0.11-0.47-0.19-0.74-0.25V5.31V4.95c0-0.47-0.39-0.86-0.86-0.86
				c-0.47,0-0.86,0.39-0.86,0.86v1.18c-0.63,0.12-1.16,0.44-1.52,0.9c-0.37,0.47-0.55,0.99-0.55,1.58c0,0.59,0.14,1.07,0.41,1.45
				c0.27,0.38,0.6,0.65,0.99,0.8c0.39,0.16,0.78,0.28,1.16,0.37c0.39,0.09,0.72,0.2,0.99,0.32c0.27,0.12,0.41,0.28,0.41,0.49
				C24.72,12.63,24.36,12.93,23.64,12.93z"/>
			<path class="st1" d="M48.31,28.08l-7.99-10.23c-0.54-0.69-1.35-1.09-2.24-1.09c-0.62,0-1.21,0.2-1.71,0.57l-5.23,3.98
				c-0.6,0.46-0.98,1.12-1.08,1.86c-0.01,0.11-0.02,0.22-0.02,0.33c-1.99-0.15-4.05,0-6.05,1.3l-0.09,0.06l-5.06-0.77
				c0.01-0.18,0-0.35-0.02-0.53c-0.1-0.74-0.48-1.4-1.08-1.86l-5.23-3.98c-1.23-0.94-3-0.71-3.95,0.51l-1.9,2.44
				c-0.33,0.43-0.26,1.04,0.17,1.38c0.43,0.33,1.04,0.26,1.38-0.17l1.9-2.44c0.29-0.37,0.84-0.44,1.21-0.16l5.23,3.98
				c0.18,0.14,0.29,0.33,0.32,0.55c0.03,0.22-0.03,0.44-0.17,0.62L8.73,34.67c-0.29,0.37-0.84,0.44-1.21,0.16l-5.23-3.99
				C2.11,30.71,2,30.51,1.97,30.29C1.94,30.07,2,29.85,2.14,29.68l1.36-1.74c0.33-0.43,0.26-1.04-0.17-1.38
				c-0.43-0.33-1.04-0.26-1.38,0.17l-1.36,1.74c-0.46,0.59-0.66,1.33-0.57,2.07c0.1,0.75,0.48,1.41,1.08,1.86l5.23,3.99
				c0.51,0.39,1.11,0.57,1.71,0.57c0.35,0,0.69-0.06,1.01-0.19l0.68,0.93c-0.37,0.67-0.43,1.48-0.13,2.26
				c0.42,1.11,1.42,1.87,2.5,1.9c0.03,0.16,0.08,0.32,0.14,0.47c0.43,1.08,1.43,1.81,2.49,1.86c0,0.03,0.01,0.06,0.01,0.08
				c0.2,0.99,0.96,1.83,1.93,2.15c0.25,0.08,0.5,0.12,0.74,0.13c0.09,0.4,0.29,0.78,0.59,1.12c0.47,0.53,1.16,0.86,1.92,0.86
				c0.55,0,1.13-0.18,1.7-0.59l1.11,1.04c0.57,0.53,1.28,0.79,1.98,0.79c0.72,0,1.42-0.27,1.96-0.81c0.32-0.32,0.57-0.71,0.73-1.11
				c0.28,0.08,0.54,0.12,0.8,0.12c0.73,0,1.37-0.31,1.83-0.78c0.38-0.39,0.65-0.9,0.76-1.45c0.04,0,0.08,0,0.12,0
				c0.01,0,0.02,0,0.03,0c0.77,0,1.52-0.3,2.04-0.82c0.37-0.37,0.62-0.82,0.74-1.31c0.19,0.04,0.37,0.06,0.56,0.06
				c0.24,0,0.47-0.03,0.7-0.09c0.95-0.24,1.68-0.98,1.9-1.93c0.21-0.87-0.01-1.79-0.6-2.63c1.54-1.24,2.16-1.85,2.87-2.99
				c0.48,0.35,1.07,0.55,1.68,0.55h0c0.63,0,1.22-0.2,1.71-0.58l5.23-3.98c0.6-0.45,0.98-1.11,1.07-1.86
				C48.97,29.41,48.77,28.67,48.31,28.08z M12.61,39.7c-0.15,0.14-0.3,0.2-0.43,0.2c-0.28,0-0.61-0.28-0.75-0.64
				c-0.12-0.33-0.07-0.6,0.17-0.81l0,0c0,0,0,0,0,0l3.3-2.94c0.28-0.25,0.55-0.37,0.8-0.37c0.37,0,0.64,0.28,0.74,0.54
				c0.11,0.28,0.04,0.52-0.19,0.73l-0.58,0.52c0,0,0,0,0,0c0,0-0.01,0-0.01,0.01c-0.02,0.02-0.04,0.04-0.06,0.06L12.61,39.7z
				 M15.28,42.04c-0.15,0.13-0.29,0.2-0.43,0.2c-0.3,0-0.64-0.28-0.79-0.64c-0.16-0.39,0.03-0.58,0.09-0.63
				c0.04-0.04,0.08-0.08,0.13-0.13c0,0,0,0,0,0l0.01-0.01c0.19-0.17,1.85-1.67,2.64-2.39l0.06-0.05c0.27-0.24,0.54-0.36,0.79-0.36
				c0.39,0,0.68,0.3,0.78,0.57c0.1,0.28,0.04,0.52-0.18,0.71l-0.2,0.18c0,0,0,0,0,0c0,0,0,0,0,0L15.28,42.04z M18.2,44.16
				c-0.01,0.01-0.03,0.02-0.04,0.04l-0.23,0.21c-0.2,0.18-0.41,0.24-0.64,0.16c-0.3-0.1-0.56-0.38-0.62-0.68
				c-0.05-0.26,0.05-0.5,0.31-0.73l0.33-0.29c0.01-0.01,0.02-0.02,0.02-0.02l2.14-1.88c0.51-0.45,1.02-0.5,1.36-0.12
				c0.05,0.05,0.45,0.53-0.04,0.98l-1.32,1.19c-0.01,0.01-0.03,0.02-0.04,0.04c0,0-0.01,0.01-0.01,0.01l-1.2,1.09
				C18.21,44.15,18.2,44.15,18.2,44.16z M19.47,46.36c-0.1-0.11-0.3-0.41,0.02-0.73l1.31-1.18c0.1-0.08,0.2-0.15,0.28-0.2
				c0,0,0.01,0,0.01-0.01c0.53-0.28,0.82,0.05,0.89,0.15c0.1,0.14,0.22,0.41-0.08,0.68l-0.9,0.81c0,0-0.01,0.01-0.01,0.01
				l-0.39,0.35C19.97,46.82,19.58,46.48,19.47,46.36z M35,41.18c-0.06,0.25-0.24,0.43-0.49,0.49c-0.41,0.11-0.93-0.12-1.41-0.61
				c-0.04-0.04-0.07-0.08-0.11-0.12l-3.7-3.66c-0.39-0.38-1.01-0.38-1.39,0.01c-0.38,0.39-0.38,1.01,0.01,1.39l3.69,3.65
				c0.01,0.01,0.01,0.01,0.02,0.02c0.15,0.15,0.23,0.35,0.23,0.57c0,0.23-0.09,0.45-0.25,0.61c-0.16,0.16-0.4,0.25-0.65,0.25
				c0,0-0.01,0-0.01,0c-0.23,0-0.43-0.08-0.58-0.21c-0.06-0.08-0.13-0.16-0.2-0.23l-2.71-2.71c-0.38-0.38-1-0.38-1.39,0
				c-0.38,0.38-0.38,1,0,1.39l2.57,2.57c0.03,0.05,0.07,0.09,0.1,0.13l0.11,0.11c0.14,0.27,0.05,0.72-0.22,1
				c-0.42,0.43-1,0.05-1.42-0.34l-1.16-1.09c-0.39-0.37-1.01-0.35-1.39,0.04c-0.37,0.39-0.35,1.01,0.04,1.39l0.88,0.83
				c0,0,0,0,0.01,0.01c0.02,0.02,0.05,0.05,0.05,0.15c0,0.23-0.15,0.54-0.37,0.77c-0.32,0.32-0.86,0.31-1.22-0.03l-0.97-0.91
				l0.12-0.11c0.96-0.86,1.12-2.2,0.38-3.26c-0.24-0.34-0.54-0.61-0.88-0.8c0.48-0.94,0.34-2.08-0.43-2.94
				c-0.43-0.49-1.05-0.82-1.73-0.89c-0.02-0.25-0.07-0.49-0.17-0.74c-0.33-0.88-1.07-1.53-1.94-1.76c0.04-0.39-0.02-0.79-0.17-1.19
				c-0.41-1.07-1.44-1.79-2.57-1.79c-0.74,0-1.46,0.3-2.11,0.87l-2.5,2.22l-0.55-0.75l7.46-9.56l3.41,0.52l-0.52,0.33
				c-2.76,1.79-2.97,3.88-2.23,5.23c0.59,1.08,1.76,1.7,3,1.7c0.51,0,1.04-0.11,1.54-0.33c0.01-0.01,0.03-0.01,0.04-0.02l2.58-1.28
				l1.49,1.36c0,0,0,0,0,0c0,0,0,0,0,0l6.9,6.13C34.83,40.15,35.11,40.73,35,41.18z M34.92,37.61l-6.28-5.58l-1.98-1.81
				c-0.3-0.27-0.73-0.33-1.1-0.15l-3.16,1.57c-0.86,0.37-1.7,0.02-2-0.52c-0.4-0.75,0.2-1.76,1.58-2.66l3.08-2
				c1.67-1.09,3.42-1.17,5.82-0.89l6.94,8.89C37.09,35.77,36.7,36.19,34.92,37.61z M46.93,29.9c-0.03,0.22-0.14,0.42-0.32,0.55
				l-5.23,3.98c-0.19,0.14-0.39,0.17-0.52,0.17l0,0c-0.28,0-0.53-0.12-0.69-0.33l-7.99-10.23c-0.14-0.18-0.2-0.39-0.17-0.61
				c0.03-0.22,0.14-0.42,0.32-0.55l5.23-3.98c0.19-0.14,0.39-0.17,0.52-0.17c0.28,0,0.53,0.12,0.69,0.33l7.99,10.23
				C46.9,29.46,46.96,29.68,46.93,29.9z"/>
			<path class="st1" d="M18.7,19.91c1.54,0.83,3.28,1.27,5.03,1.27c5.83,0,10.58-4.75,10.58-10.59c0-4.08-2.38-7.84-6.06-9.58
				C26.82,0.34,25.3,0,23.72,0c-5.83,0-10.58,4.75-10.58,10.59C13.14,14.49,15.27,18.06,18.7,19.91z M23.72,1.96
				c1.29,0,2.53,0.28,3.68,0.82c3,1.42,4.94,4.48,4.94,7.81c0,4.76-3.87,8.63-8.62,8.63c-1.43,0-2.84-0.36-4.1-1.03
				c-2.79-1.51-4.52-4.42-4.52-7.6C15.11,5.83,18.97,1.96,23.72,1.96z"/>
			<path class="st1" d="M4.47,25.07c0.18,0.14,0.4,0.21,0.61,0.21c0.29,0,0.57-0.13,0.77-0.37l0.01-0.01
				c0.34-0.42,0.27-1.04-0.15-1.38c-0.42-0.34-1.04-0.27-1.38,0.15l-0.01,0.01C3.98,24.12,4.05,24.73,4.47,25.07z"/>
		</g>
	</g>
</g>
</svg>
