<svg id="pagos-icon" xmlns="http://www.w3.org/2000/svg" width="84.75" height="58.04" viewBox="0 0 84.75 58.04">
  <g id="Group_25" data-name="Group 25">
    <g id="Group_24" data-name="Group 24">
      <g id="Group_23" data-name="Group 23">
        <path id="Path_39" data-name="Path 39" d="M66.59,23.51a5.29,5.29,0,0,0-5.06,5.48,5.076,5.076,0,1,0,10.12,0A5.29,5.29,0,0,0,66.59,23.51Zm0,8.26a2.789,2.789,0,1,1,2.56-2.78A2.683,2.683,0,0,1,66.59,31.77Z" fill="#fff"/>
      </g>
    </g>
    <path id="Path_40" data-name="Path 40" d="M81.95,18.74H80.64V5.96a6.141,6.141,0,0,0-2.26-4.8A15.046,15.046,0,0,0,76.01,0H5.17C3.29.36,3.23.5,3.23.5A6.069,6.069,0,0,0,0,5.96V52.03a5.8,5.8,0,0,0,5.54,6.01H75.1a5.789,5.789,0,0,0,5.54-6.01V39.24h1.31a2.924,2.924,0,0,0,2.8-3.04V21.78A2.924,2.924,0,0,0,81.95,18.74ZM2.49,5.96a3.187,3.187,0,0,1,3.05-3.3H75.1a3.187,3.187,0,0,1,3.05,3.3V9.71H2.49ZM78.15,45.58H17.2a1.354,1.354,0,0,0,0,2.7H78.15v3.75a3.187,3.187,0,0,1-3.05,3.3H5.54a3.187,3.187,0,0,1-3.05-3.3V48.28H9.21a1.354,1.354,0,0,0,0-2.7H2.49V12.41H78.15v6.33H66.3a9.45,9.45,0,0,0-8.51,5.78c0,.01-.01.02-.02.03a.355.355,0,0,1-.04.09,11.3,11.3,0,0,0-.47,1.31h0a10.838,10.838,0,0,0-.42,3.04c0,5.65,4.24,10.25,9.46,10.25H78.15Zm4.11-9.37a.332.332,0,0,1-.31.34H66.3a6.912,6.912,0,0,1-6.12-3.95l-.15-.33a5.031,5.031,0,0,1-.26-.68,8.2,8.2,0,0,1,0-5.18c.08-.23.17-.46.26-.68l.15-.33a6.912,6.912,0,0,1,6.12-3.95H81.96a.325.325,0,0,1,.31.34V36.21Z" fill="#fff"/>
  </g>
</svg>
