<?xml version="1.0" encoding="utf-8"?>
<!-- Generator: Adobe Illustrator 23.0.2, SVG Export Plug-In . SVG Version: 6.00 Build 0)  -->
<svg version="1.1" id="Capa_1" xmlns="http://www.w3.org/2000/svg" xmlns:xlink="http://www.w3.org/1999/xlink" x="0px" y="0px"
	 viewBox="0 0 21.49 21.49" style="enable-background:new 0 0 21.49 21.49;" xml:space="preserve">
<style type="text/css">
	.st0{opacity:0.4;}
	.st1{opacity:0.3;}
	.st2{fill:#523788;}
	.st3{fill:#F4F4F4;}
	.st4{fill:#979797;}
	.st5{fill:none;stroke:#979797;stroke-width:0.25;stroke-miterlimit:10;}
	.st6{fill:url(#SVGID_1_);}
	.st7{fill:#FFFFFF;}
	.st8{fill:url(#SVGID_2_);}
	.st9{fill:url(#SVGID_3_);}
	.st10{fill:url(#SVGID_4_);}
	.st11{fill:url(#SVGID_5_);}
	.st12{fill:url(#SVGID_6_);}
	.st13{fill:url(#SVGID_7_);}
	.st14{fill:url(#SVGID_8_);}
	.st15{fill:url(#SVGID_9_);}
	.st16{fill:url(#SVGID_10_);}
	.st17{fill:url(#SVGID_11_);}
	.st18{fill:url(#SVGID_12_);}
	.st19{fill:url(#SVGID_13_);}
	.st20{fill:url(#SVGID_14_);}
	.st21{fill:url(#SVGID_15_);}
	.st22{fill:url(#SVGID_16_);}
	.st23{fill:url(#SVGID_17_);}
	.st24{fill:url(#SVGID_18_);}
	.st25{fill:url(#SVGID_19_);}
	.st26{fill:url(#SVGID_20_);}
	.st27{fill:url(#SVGID_21_);}
	.st28{fill:url(#SVGID_22_);}
	.st29{fill:url(#SVGID_23_);}
	.st30{fill:url(#SVGID_24_);}
	.st31{fill:url(#SVGID_25_);}
	.st32{fill:url(#SVGID_26_);}
	.st33{fill:url(#SVGID_27_);}
	.st34{fill:url(#SVGID_28_);}
	.st35{fill:url(#SVGID_29_);}
	.st36{fill:url(#SVGID_30_);}
	.st37{fill:url(#SVGID_31_);}
	.st38{fill:url(#SVGID_32_);}
	.st39{fill:#ECEDEF;}
	.st40{opacity:0.1;fill:#F0F5FA;}
	.st41{fill:#D7D8DC;}
	.st42{fill:#E6E6E6;}
	.st43{opacity:0.1;fill:url(#SVGID_33_);}
	.st44{fill-rule:evenodd;clip-rule:evenodd;fill:#FFFFFF;}
	.st45{fill-rule:evenodd;clip-rule:evenodd;fill:none;stroke:#FFFFFF;stroke-width:0.25;stroke-miterlimit:10;}
	.st46{fill:none;stroke:#FFFFFF;stroke-width:0.5;stroke-miterlimit:10;}
	.st47{opacity:0.3;fill:none;stroke:#FFFFFF;stroke-width:0.5;stroke-miterlimit:10;}
	.st48{fill:#A4CD3C;}
	.st49{fill:#85A939;}
	.st50{fill:#606060;}
	.st51{fill:#CACACA;}
	.st52{fill:url(#SVGID_34_);}
	.st53{fill:#FFEA00;}
	.st54{fill:none;stroke:#FFEA00;stroke-miterlimit:10;}
	.st55{clip-path:url(#SVGID_38_);}
	.st56{fill:#F0F0F0;}
	.st57{clip-path:url(#SVGID_42_);}
	.st58{clip-path:url(#SVGID_48_);fill:#FFFFFF;}
	.st59{fill:url(#SVGID_49_);}
	.st60{fill:url(#SVGID_50_);}
	.st61{fill:url(#SVGID_51_);}
	.st62{fill:url(#SVGID_52_);}
	.st63{fill:url(#SVGID_53_);}
	.st64{fill:url(#SVGID_54_);}
	.st65{fill:url(#SVGID_55_);}
	.st66{fill:url(#SVGID_56_);}
	.st67{fill:#808080;}
	.st68{fill:url(#SVGID_59_);}
	.st69{fill:none;stroke:#523788;stroke-width:0.75;stroke-miterlimit:10;}
	.st70{fill:none;stroke:#523788;stroke-miterlimit:10;}
	.st71{opacity:0.9;}
	.st72{fill:none;stroke:url(#SVGID_60_);stroke-miterlimit:10;}
	.st73{fill:none;stroke:url(#SVGID_61_);stroke-miterlimit:10;}
	.st74{fill:none;stroke:url(#SVGID_62_);stroke-miterlimit:10;}
	.st75{fill:none;stroke:url(#SVGID_63_);stroke-miterlimit:10;}
	.st76{fill:none;stroke:url(#SVGID_64_);stroke-miterlimit:10;}
	.st77{fill:none;stroke:url(#SVGID_65_);stroke-miterlimit:10;}
	.st78{fill:none;stroke:url(#SVGID_66_);stroke-miterlimit:10;}
	.st79{fill:none;stroke:url(#SVGID_67_);stroke-miterlimit:10;}
	.st80{opacity:0.9;fill:url(#SVGID_68_);}
	.st81{fill:#BBA1BF;}
	.st82{opacity:0.9;fill:url(#SVGID_69_);}
	.st83{opacity:0.8;}
</style>
<g>
	<g>
		<g>
			<path class="st4" d="M16.34,14.22c-0.7-0.69-1.58-0.69-2.28,0c-0.53,0.53-1.06,1.06-1.59,1.59c-0.14,0.15-0.26,0.18-0.44,0.08
				c-0.34-0.19-0.71-0.34-1.04-0.55c-1.54-0.97-2.84-2.22-3.98-3.62c-0.57-0.7-1.07-1.44-1.43-2.29C5.52,9.27,5.53,9.16,5.67,9.02
				C6.2,8.5,6.72,7.97,7.24,7.45c0.73-0.73,0.73-1.59,0-2.33C6.82,4.7,6.41,4.28,5.99,3.86C5.56,3.43,5.14,3,4.7,2.58
				c-0.7-0.68-1.58-0.68-2.28,0c-0.54,0.53-1.05,1.07-1.6,1.59C0.32,4.65,0.07,5.23,0.02,5.92C-0.07,7.03,0.2,8.08,0.59,9.11
				c0.79,2.12,1.99,4,3.44,5.73c1.96,2.33,4.31,4.18,7.05,5.51c1.23,0.6,2.51,1.06,3.9,1.14c0.96,0.05,1.79-0.19,2.46-0.93
				c0.46-0.51,0.97-0.98,1.45-1.46c0.72-0.72,0.72-1.6,0.01-2.32C18.05,15.92,17.19,15.07,16.34,14.22z"/>
			<path class="st4" d="M15.49,10.65l1.65-0.28c-0.26-1.52-0.98-2.89-2.06-3.98c-1.15-1.15-2.6-1.87-4.2-2.1l-0.23,1.66
				c1.24,0.17,2.37,0.73,3.26,1.62C14.73,8.42,15.28,9.48,15.49,10.65z"/>
			<path class="st4" d="M18.07,3.48C16.16,1.57,13.75,0.37,11.09,0l-0.23,1.66c2.3,0.32,4.38,1.36,6.03,3.01
				c1.56,1.56,2.59,3.53,2.96,5.7l1.65-0.28C21.06,7.57,19.87,5.29,18.07,3.48z"/>
		</g>
	</g>
</g>
</svg>
