<svg width="22" height="22" viewBox="0 0 22 22" fill="none" xmlns="http://www.w3.org/2000/svg">
<path d="M16.3393 14.22C15.6393 13.53 14.7593 13.53 14.0593 14.22C13.5293 14.75 12.9993 15.28 12.4693 15.81C12.3293 15.96 12.2093 15.99 12.0293 15.89C11.6893 15.7 11.3193 15.55 10.9893 15.34C9.44933 14.37 8.14933 13.12 7.00933 11.72C6.43933 11.02 5.93933 10.28 5.57933 9.43C5.51933 9.27 5.52933 9.16 5.66933 9.02C6.19933 8.5 6.71933 7.97 7.23933 7.45C7.96933 6.72 7.96933 5.86 7.23933 5.12C6.81933 4.7 6.40933 4.28 5.98933 3.86C5.55933 3.43 5.13933 3 4.69933 2.58C3.99933 1.9 3.11933 1.9 2.41933 2.58C1.87933 3.11 1.36933 3.65 0.819329 4.17C0.319329 4.65 0.0693289 5.23 0.0193289 5.92C-0.0706711 7.03 0.199329 8.08 0.589329 9.11C1.37933 11.23 2.57933 13.11 4.02933 14.84C5.98933 17.17 8.33933 19.02 11.0793 20.35C12.3093 20.95 13.5893 21.41 14.9793 21.49C15.9393 21.54 16.7693 21.3 17.4393 20.56C17.8993 20.05 18.4093 19.58 18.8893 19.1C19.6093 18.38 19.6093 17.5 18.8993 16.78C18.0493 15.92 17.1893 15.07 16.3393 14.22Z" fill="white"/>
<path d="M15.4893 10.65L17.1393 10.37C16.8793 8.85 16.1593 7.48 15.0793 6.39C13.9293 5.24 12.4793 4.52 10.8793 4.29L10.6493 5.95C11.8893 6.12 13.0193 6.68 13.9093 7.57C14.7293 8.42 15.2793 9.48 15.4893 10.65Z" fill="white"/>
<path d="M18.0693 3.48C16.1593 1.57 13.7493 0.37 11.0893 0L10.8593 1.66C13.1593 1.98 15.2393 3.02 16.8893 4.67C18.4493 6.23 19.4793 8.2 19.8493 10.37L21.4993 10.09C21.0593 7.57 19.8693 5.29 18.0693 3.48Z" fill="white"/>
</svg>
