<svg id="prestamos-icon" xmlns="http://www.w3.org/2000/svg" width="71.66" height="71.53" viewBox="0 0 71.66 71.53">
  <g id="Group_20" data-name="Group 20">
    <path id="Path_35" data-name="Path 35" d="M35.82,33.46c-2.56,0-4.64-1.8-4.64-4.01s2.08-4.01,4.64-4.01,4.64,1.8,4.64,4.01a2.11,2.11,0,0,0,4.22,0,8.388,8.388,0,0,0-6.74-7.99v-1.1a2.11,2.11,0,0,0-4.22,0v1.1a8.378,8.378,0,0,0-6.74,7.99c0,4.54,3.97,8.23,8.85,8.23,2.56,0,4.64,1.8,4.64,4.01s-2.08,4.01-4.64,4.01-4.64-1.8-4.64-4.01a2.11,2.11,0,1,0-4.22,0,8.388,8.388,0,0,0,6.74,7.99v.91a2.11,2.11,0,0,0,4.22,0v-.91a8.378,8.378,0,0,0,6.74-7.99C44.67,37.15,40.7,33.46,35.82,33.46Z" fill="#fff"/>
  </g>
  <g id="Group_21" data-name="Group 21">
    <path id="Path_36" data-name="Path 36" d="M58.9,20.92a27.467,27.467,0,0,0-11.22-9.93,2.107,2.107,0,1,0-1.82,3.8A23.208,23.208,0,0,1,56.31,46.57a2.1,2.1,0,0,0,.87,2.85,2.079,2.079,0,0,0,.99.25,2.116,2.116,0,0,0,1.86-1.12A27.395,27.395,0,0,0,58.9,20.92Z" fill="#fff"/>
  </g>
  <g id="Group_22" data-name="Group 22">
    <path id="Path_37" data-name="Path 37" d="M39.13,8.3h-.14a2.11,2.11,0,1,0,0,4.22h.13a2.11,2.11,0,0,0,.01-4.22Z" fill="#fff"/>
  </g>
  <path id="Path_38" data-name="Path 38" d="M35.83,71.53A35.877,35.877,0,0,0,71.66,35.74a33.508,33.508,0,0,0-.18-3.48c-.02-.18-.05-.36-.07-.54-.11-.98-.26-1.96-.45-2.91-.04-.19-.08-.37-.12-.55-.21-1-.46-1.98-.76-2.94-.03-.09-.06-.19-.09-.28A35.816,35.816,0,0,0,.26,31.65c-.03.22-.06.44-.08.66A32.6,32.6,0,0,0,0,35.75c0,.08.01.16.01.24.01.97.06,1.92.14,2.87.04.44.09.88.14,1.31A35.014,35.014,0,0,0,1.31,45.3c.23.81.48,1.61.76,2.4.05.15.11.29.16.43a35.9,35.9,0,0,0,4.04,7.81H6.22a36.367,36.367,0,0,0,3.41,4.22h.02A35.829,35.829,0,0,0,35.83,71.53ZM4.21,35.7A31.615,31.615,0,1,1,35.83,67.31,31.646,31.646,0,0,1,4.21,35.7Z" fill="#fff"/>
</svg>
