<?xml version="1.0" encoding="utf-8"?>
<!-- Generator: Adobe Illustrator 23.0.2, SVG Export Plug-In . SVG Version: 6.00 Build 0)  -->
<svg version="1.1" id="Capa_1" xmlns="http://www.w3.org/2000/svg" xmlns:xlink="http://www.w3.org/1999/xlink" x="0px" y="0px"
	 viewBox="0 0 71.65 71.53" style="enable-background:new 0 0 71.65 71.53;" xml:space="preserve">
<style type="text/css">
	.st0{clip-path:url(#SVGID_2_);}
	.st1{fill:#FFFFFF;}
	.st2{fill:#6B2378;}
	.st3{fill:none;stroke:#6B2378;stroke-miterlimit:10;}
	.st4{fill:#979797;}
	.st5{fill:none;stroke:#808080;stroke-width:0.1151;stroke-miterlimit:10;}
	.st6{clip-path:url(#SVGID_4_);}
	.st7{fill:none;stroke:#808080;stroke-width:0.1;stroke-miterlimit:10;}
	.st8{fill:none;stroke:#868589;stroke-width:2;stroke-linecap:round;stroke-miterlimit:10;}
	.st9{fill:url(#SVGID_5_);}
	.st10{fill:#713A75;}
	.st11{opacity:0.4;fill:url(#SVGID_6_);}
	.st12{opacity:0.4;}
	.st13{fill:url(#SVGID_7_);}
	.st14{fill:url(#SVGID_8_);}
	.st15{fill:url(#SVGID_9_);}
	.st16{fill:url(#SVGID_10_);}
	.st17{fill:url(#SVGID_11_);}
	.st18{fill:url(#SVGID_12_);}
	.st19{opacity:0.4;clip-path:url(#SVGID_14_);}
	.st20{fill:url(#SVGID_15_);}
	.st21{fill:url(#SVGID_16_);}
	.st22{fill:url(#SVGID_17_);}
	.st23{fill:url(#SVGID_18_);}
	.st24{fill:url(#SVGID_19_);}
	.st25{clip-path:url(#SVGID_21_);}
	.st26{fill:#ECEDEF;}
	.st27{clip-path:url(#SVGID_21_);fill:none;}
	.st28{fill:#040006;}
	.st29{fill:#4E3580;}
	.st30{fill:none;}
	.st31{fill:#D7D8DC;}
	.st32{fill:url(#SVGID_22_);}
	.st33{fill:none;stroke:#FFFFFF;stroke-width:0.25;stroke-miterlimit:10;}
	.st34{opacity:0.4;clip-path:url(#SVGID_24_);}
	.st35{opacity:0.4;fill:url(#SVGID_25_);}
	.st36{fill:url(#SVGID_26_);}
	.st37{fill:url(#SVGID_27_);}
	.st38{fill:url(#SVGID_28_);}
	.st39{fill:url(#SVGID_29_);}
	.st40{fill:url(#SVGID_30_);}
	.st41{fill:url(#SVGID_31_);}
	.st42{fill:url(#SVGID_32_);}
	.st43{fill:#515365;}
	.st44{fill:url(#SVGID_33_);}
	.st45{opacity:0.4;fill:url(#SVGID_34_);}
	.st46{fill:url(#SVGID_35_);}
	.st47{fill:url(#SVGID_36_);}
	.st48{fill:url(#SVGID_37_);}
	.st49{fill:url(#SVGID_38_);}
	.st50{fill:url(#SVGID_39_);}
	.st51{fill:url(#SVGID_40_);}
	.st52{opacity:0.4;clip-path:url(#SVGID_42_);}
	.st53{fill:url(#SVGID_43_);}
	.st54{fill:url(#SVGID_44_);}
	.st55{fill:url(#SVGID_45_);}
	.st56{fill:url(#SVGID_46_);}
	.st57{fill:url(#SVGID_47_);}
	.st58{clip-path:url(#SVGID_49_);}
	.st59{clip-path:url(#SVGID_49_);fill:none;}
	.st60{fill:url(#SVGID_50_);}
	.st61{opacity:0.4;clip-path:url(#SVGID_52_);}
	.st62{opacity:0.4;fill:url(#SVGID_53_);}
	.st63{fill:url(#SVGID_54_);}
	.st64{fill:url(#SVGID_55_);}
	.st65{fill:url(#SVGID_56_);}
	.st66{fill:url(#SVGID_57_);}
	.st67{fill:url(#SVGID_58_);}
	.st68{fill:url(#SVGID_59_);}
	.st69{clip-path:url(#SVGID_61_);}
	.st70{fill:url(#SVGID_62_);}
	.st71{fill:none;stroke:#868589;stroke-width:3.6982;stroke-linecap:round;stroke-miterlimit:10;}
	.st72{fill:none;stroke:#B0B0B0;stroke-width:0.252;stroke-miterlimit:10;}
	.st73{opacity:0.5;}
	.st74{fill-rule:evenodd;clip-rule:evenodd;fill:#D4D3D6;}
	.st75{fill:#ADACB2;}
	.st76{fill:#703A75;}
	.st77{fill:url(#SVGID_63_);}
	.st78{fill:url(#SVGID_64_);}
	.st79{opacity:0.4;fill:url(#SVGID_65_);}
	.st80{fill:url(#SVGID_66_);}
	.st81{fill:url(#SVGID_67_);}
	.st82{fill:url(#SVGID_68_);}
	.st83{fill:url(#SVGID_69_);}
	.st84{fill:url(#SVGID_70_);}
	.st85{fill:url(#SVGID_71_);}
	.st86{opacity:0.4;clip-path:url(#SVGID_73_);}
	.st87{fill:url(#SVGID_74_);}
	.st88{fill:url(#SVGID_75_);}
	.st89{fill:url(#SVGID_76_);}
	.st90{fill:url(#SVGID_77_);}
	.st91{fill:url(#SVGID_78_);}
	.st92{clip-path:url(#SVGID_80_);}
	.st93{clip-path:url(#SVGID_80_);fill:none;}
	.st94{fill:url(#SVGID_81_);}
	.st95{fill:none;stroke:#FFFFFF;stroke-width:0.4707;stroke-miterlimit:10;}
	.st96{opacity:0.4;clip-path:url(#SVGID_83_);}
	.st97{opacity:0.4;fill:url(#SVGID_84_);}
	.st98{fill:url(#SVGID_85_);}
	.st99{fill:url(#SVGID_86_);}
	.st100{fill:url(#SVGID_87_);}
	.st101{fill:url(#SVGID_88_);}
	.st102{fill:url(#SVGID_89_);}
	.st103{fill:url(#SVGID_90_);}
	.st104{fill:#FF4B55;}
	.st105{fill:#FFE15A;}
	.st106{fill:#41479B;}
	.st107{clip-path:url(#SVGID_92_);}
	.st108{fill:#82AFFF;}
	.st109{fill:#F5F5F5;}
	.st110{clip-path:url(#SVGID_94_);}
</style>
<g>
	<g>
		<path class="st76" d="M35.82,33.46c-2.56,0-4.64-1.8-4.64-4.01c0-2.21,2.08-4.01,4.64-4.01c2.56,0,4.64,1.8,4.64,4.01
			c0,1.16,0.94,2.11,2.11,2.11c1.16,0,2.11-0.94,2.11-2.11c0-3.86-2.88-7.11-6.74-7.99v-1.1c0-1.16-0.94-2.11-2.11-2.11
			c-1.16,0-2.11,0.94-2.11,2.11v1.1c-3.87,0.88-6.74,4.13-6.74,7.99c0,4.54,3.97,8.23,8.85,8.23c2.56,0,4.64,1.8,4.64,4.01
			c0,2.21-2.08,4.01-4.64,4.01c-2.56,0-4.64-1.8-4.64-4.01c0-1.16-0.94-2.11-2.11-2.11c-1.16,0-2.11,0.94-2.11,2.11
			c0,3.86,2.88,7.11,6.74,7.99v0.91c0,1.16,0.94,2.11,2.11,2.11c1.16,0,2.11-0.94,2.11-2.11v-0.91c3.87-0.88,6.74-4.13,6.74-7.99
			C44.67,37.15,40.7,33.46,35.82,33.46z"/>
	</g>
	<g>
		<path class="st76" d="M58.9,20.92c-2.75-4.29-6.63-7.72-11.22-9.93c-1.05-0.5-2.31-0.06-2.81,0.99c-0.5,1.05-0.06,2.31,0.99,2.81
			c7.99,3.84,13.15,12.05,13.15,20.91c0,3.79-0.93,7.55-2.7,10.87c-0.55,1.03-0.16,2.3,0.87,2.85c0.32,0.17,0.65,0.25,0.99,0.25
			c0.75,0,1.48-0.41,1.86-1.12c2.09-3.93,3.2-8.37,3.2-12.85C63.22,30.44,61.73,25.33,58.9,20.92z"/>
	</g>
	<g>
		<path class="st76" d="M39.13,8.3l-0.14,0c-1.16,0-2.11,0.94-2.11,2.11s0.94,2.11,2.11,2.11l0.12,0c0,0,0.01,0,0.01,0
			c1.16,0,2.1-0.94,2.11-2.1C41.23,9.26,40.29,8.31,39.13,8.3z"/>
	</g>
	<path class="st76" d="M35.83,71.53c19.74,0,35.8-16.05,35.83-35.79c0-1.17-0.06-2.33-0.18-3.48c-0.02-0.18-0.05-0.36-0.07-0.54
		c-0.11-0.98-0.26-1.96-0.45-2.91c-0.04-0.19-0.08-0.37-0.12-0.55c-0.21-1-0.46-1.98-0.76-2.94c-0.03-0.09-0.06-0.19-0.09-0.28
		C65.43,10.52,51.86,0,35.83,0C17.44,0,2.31,13.84,0.26,31.65c-0.03,0.22-0.06,0.44-0.08,0.66C0.06,33.44,0,34.59,0,35.75
		c0,0.08,0.01,0.16,0.01,0.24c0.01,0.97,0.06,1.92,0.14,2.87c0.04,0.44,0.09,0.88,0.14,1.31c0.21,1.75,0.56,3.46,1.02,5.13
		c0.23,0.81,0.48,1.61,0.76,2.4c0.05,0.15,0.11,0.29,0.16,0.43c1.03,2.78,2.39,5.4,4.04,7.81H6.22c1.02,1.5,2.18,2.89,3.41,4.22
		h0.02C16.2,67.14,25.51,71.53,35.83,71.53z M4.21,35.7c0-17.43,14.18-31.61,31.61-31.61S67.44,18.27,67.44,35.7
		c0,17.43-14.18,31.61-31.61,31.61S4.21,53.13,4.21,35.7z"/>
</g>
</svg>
