<svg xmlns="http://www.w3.org/2000/svg" width="65.099" height="66.24" viewBox="0 0 65.099 66.24">
  <g id="reclamos-icon" transform="translate(-0.001)">
    <g id="Group_28" data-name="Group 28">
      <g id="Group_27" data-name="Group 27">
        <path id="Path_50" data-name="Path 50" d="M31.47,17.21a1.957,1.957,0,0,1-1.55-.55c-.15-.17-.28-.32-.4-.45-1.01-1.06-2.75.41-1.7,1.8l.25.33a3.668,3.668,0,0,0,.89.72,4.131,4.131,0,0,0,1.4.57v1.82A1.148,1.148,0,0,0,31.5,22.6a1.174,1.174,0,0,0,1.17-1.15V19.61a4.111,4.111,0,0,0,2.11-1.2,3.381,3.381,0,0,0,.87-2.43,3.343,3.343,0,0,0-.4-1.72,2.255,2.255,0,0,0-.98-.96,10.046,10.046,0,0,0-1.28-.48,9.168,9.168,0,0,0-1.28-.29,2.376,2.376,0,0,1-.98-.35.8.8,0,0,1-.4-.69c0-1.36,1.99-1.19,2.87-.45,1.3,1.09,2.74-.9,1.24-2.03l-.17-.16a3.631,3.631,0,0,0-.62-.35,4.794,4.794,0,0,0-.99-.33V6.59a1.14,1.14,0,1,0-2.28,0V8.16a3.333,3.333,0,0,0-2.75,3.3,3.206,3.206,0,0,0,.54,1.92,2.944,2.944,0,0,0,1.32,1.07,10.279,10.279,0,0,0,1.55.49,8.26,8.26,0,0,1,1.32.42c.36.16.54.37.54.66C32.9,16.81,32.43,17.21,31.47,17.21Z" fill="#fff"/>
        <path id="Path_51" data-name="Path 51" d="M64.3,37.37,53.66,23.76a3.792,3.792,0,0,0-5.26-.69l-6.96,5.3a3.653,3.653,0,0,0-1.43,2.48c-.01.15-.02.3-.02.45a12.327,12.327,0,0,0-8.05,1.73l-.12.08-6.73-1.03a4.242,4.242,0,0,0-.02-.71,3.686,3.686,0,0,0-1.43-2.47l-6.96-5.3a3.784,3.784,0,0,0-5.26.68L8.89,27.53a1.3,1.3,0,1,0,2.06,1.6l2.53-3.25a1.178,1.178,0,0,1,1.62-.21l6.96,5.3a1.042,1.042,0,0,1,.42.73,1.1,1.1,0,0,1-.22.82L11.62,46.15a1.176,1.176,0,0,1-1.61.21l-6.96-5.3a1.091,1.091,0,0,1-.43-.74,1.073,1.073,0,0,1,.23-.82l1.81-2.32a1.3,1.3,0,0,0-2.06-1.6L.79,37.89a3.712,3.712,0,0,0,.67,5.24l6.96,5.31a3.787,3.787,0,0,0,2.28.76,3.672,3.672,0,0,0,1.35-.25l.9,1.23a3.524,3.524,0,0,0-.17,3,3.8,3.8,0,0,0,3.33,2.53,3.776,3.776,0,0,0,.19.63,3.864,3.864,0,0,0,3.32,2.47c.01.04.01.07.02.11a3.911,3.911,0,0,0,2.57,2.86,3.43,3.43,0,0,0,.99.17,3.484,3.484,0,0,0,.79,1.49,3.448,3.448,0,0,0,2.55,1.15,3.862,3.862,0,0,0,2.26-.78l1.48,1.38a3.867,3.867,0,0,0,2.64,1.05,3.671,3.671,0,0,0,2.61-1.08,4.5,4.5,0,0,0,.98-1.48,3.7,3.7,0,0,0,1.07.16,3.364,3.364,0,0,0,2.43-1.04,4.058,4.058,0,0,0,1.02-1.93.86.86,0,0,1,.16.01h.04a3.759,3.759,0,0,0,3.7-2.85,3.873,3.873,0,0,0,1.69-.05,3.507,3.507,0,0,0,2.54-2.57,4.267,4.267,0,0,0-.8-3.5,14.013,14.013,0,0,0,3.81-3.98,3.775,3.775,0,0,0,2.24.73h0a3.754,3.754,0,0,0,2.28-.77l6.96-5.3a3.708,3.708,0,0,0,1.43-2.47A3.844,3.844,0,0,0,64.3,37.37ZM16.78,52.84a.88.88,0,0,1-.58.27,1.245,1.245,0,0,1-.99-.85.891.891,0,0,1,.23-1.08h0l4.4-3.91a1.682,1.682,0,0,1,1.07-.5,1.092,1.092,0,0,1,.98.71.816.816,0,0,1-.25.97l-.77.69h0l-.01.01a.3.3,0,0,0-.08.08Zm3.56,3.12a.863.863,0,0,1-.58.26,1.293,1.293,0,0,1-1.05-.85.68.68,0,0,1,.12-.84l.18-.18h0l.01-.01c.25-.22,2.46-2.22,3.52-3.18l.08-.07a1.683,1.683,0,0,1,1.05-.48,1.168,1.168,0,0,1,1.04.76.781.781,0,0,1-.25.95l-.27.24-.01.01h0Zm3.88,2.81-.05.05-.31.28a.808.808,0,0,1-.86.21,1.277,1.277,0,0,1-.82-.9,1.015,1.015,0,0,1,.41-.97l.44-.38.03-.03,2.85-2.51c.68-.6,1.36-.66,1.81-.16a.885.885,0,0,1-.06,1.3l-1.75,1.58c-.02.02-.04.03-.06.05l-.02.02-1.6,1.45C24.24,58.76,24.23,58.77,24.22,58.77Zm1.69,2.93a.646.646,0,0,1,.03-.97l1.75-1.58a1.984,1.984,0,0,1,.38-.26c.01,0,.01-.01.02-.01a.841.841,0,0,1,1.19.21.623.623,0,0,1-.11.9l-1.2,1.08-.01.01-.52.47C26.58,62.32,26.06,61.86,25.91,61.7Zm20.68-6.89a.863.863,0,0,1-.65.65,2.1,2.1,0,0,1-1.88-.82c-.05-.05-.1-.1-.15-.16l-4.93-4.87a1.308,1.308,0,0,0-1.84,1.86l4.92,4.86c.01.01.02.02.02.03a1.066,1.066,0,0,1,.31.76,1.142,1.142,0,0,1-.33.81,1.234,1.234,0,0,1-.87.33h-.01a1.12,1.12,0,0,1-.77-.28,2.606,2.606,0,0,0-.27-.31l-3.6-3.61a1.308,1.308,0,0,0-1.85,1.85l3.41,3.42a1.151,1.151,0,0,0,.14.17l.15.15a1.25,1.25,0,0,1-.29,1.33c-.55.57-1.33.07-1.89-.45l-1.54-1.45a1.3,1.3,0,0,0-1.78,1.9l1.18,1.11.01.01a.211.211,0,0,1,.07.19,1.574,1.574,0,0,1-.49,1.02,1.169,1.169,0,0,1-1.62-.03l-1.29-1.21.16-.14a3.213,3.213,0,0,0,.5-4.34,3.464,3.464,0,0,0-1.17-1.06,3.465,3.465,0,0,0-.57-3.92,3.554,3.554,0,0,0-2.3-1.18,3.753,3.753,0,0,0-.22-.98,3.811,3.811,0,0,0-2.59-2.34,3.471,3.471,0,0,0-.22-1.58,3.7,3.7,0,0,0-3.42-2.39,4.206,4.206,0,0,0-2.8,1.16l-3.33,2.96-.73-1,9.93-12.72,4.54.69-.69.45c-3.68,2.39-3.95,5.16-2.97,6.97a4.492,4.492,0,0,0,3.99,2.27,5.086,5.086,0,0,0,2.04-.43.169.169,0,0,1,.05-.02l3.44-1.71,1.99,1.81h.01l.01.01,9.18,8.16A2.354,2.354,0,0,1,46.59,54.81Zm-.11-4.75-8.35-7.43-2.64-2.4a1.309,1.309,0,0,0-1.46-.2l-4.21,2.09a2.09,2.09,0,0,1-2.66-.7c-.54-.99.27-2.35,2.1-3.54l4.1-2.66c2.22-1.44,4.55-1.56,7.74-1.19l9.24,11.83C49.36,47.62,48.85,48.17,46.48,50.06ZM62.46,39.8a1.118,1.118,0,0,1-.42.73l-6.96,5.3a1.127,1.127,0,0,1-.69.23h0a1.152,1.152,0,0,1-.92-.44L42.83,32a1.085,1.085,0,0,1-.22-.82,1.113,1.113,0,0,1,.43-.74L50,25.14a1.181,1.181,0,0,1,1.62.21L62.25,38.97A1.16,1.16,0,0,1,62.46,39.8Z" fill="#fff"/>
        <path id="Path_52" data-name="Path 52" d="M24.88,26.51A14.1,14.1,0,1,0,37.58,1.35a13.784,13.784,0,0,0-6-1.35,14.109,14.109,0,0,0-6.7,26.51Zm6.7-23.9a11.357,11.357,0,0,1,4.9,1.1,11.461,11.461,0,1,1-4.9-1.1Z" fill="#fff"/>
        <path id="Path_53" data-name="Path 53" d="M5.95,33.37a1.309,1.309,0,0,0,1.83-.21l.01-.02a1.3,1.3,0,0,0-2.04-1.62l-.01.02A1.313,1.313,0,0,0,5.95,33.37Z" fill="#fff"/>
      </g>
    </g>
  </g>
</svg>
