<?xml version="1.0" encoding="utf-8"?>
<!-- Generator: Adobe Illustrator 23.0.2, SVG Export Plug-In . SVG Version: 6.00 Build 0)  -->
<svg version="1.1" id="Capa_1" xmlns="http://www.w3.org/2000/svg" xmlns:xlink="http://www.w3.org/1999/xlink" x="0px" y="0px"
	 viewBox="0 0 65.08 66.25" style="enable-background:new 0 0 65.08 66.25;" xml:space="preserve">
<style type="text/css">
	.st0{clip-path:url(#SVGID_2_);}
	.st1{fill:#FFFFFF;}
	.st2{fill:#6B2378;}
	.st3{fill:none;stroke:#6B2378;stroke-miterlimit:10;}
	.st4{fill:#979797;}
	.st5{fill:none;stroke:#808080;stroke-width:0.1151;stroke-miterlimit:10;}
	.st6{clip-path:url(#SVGID_4_);}
	.st7{fill:none;stroke:#808080;stroke-width:0.1;stroke-miterlimit:10;}
	.st8{fill:none;stroke:#868589;stroke-width:2;stroke-linecap:round;stroke-miterlimit:10;}
	.st9{fill:url(#SVGID_5_);}
	.st10{fill:#713A75;}
	.st11{opacity:0.4;fill:url(#SVGID_6_);}
	.st12{opacity:0.4;}
	.st13{fill:url(#SVGID_7_);}
	.st14{fill:url(#SVGID_8_);}
	.st15{fill:url(#SVGID_9_);}
	.st16{fill:url(#SVGID_10_);}
	.st17{fill:url(#SVGID_11_);}
	.st18{fill:url(#SVGID_12_);}
	.st19{opacity:0.4;clip-path:url(#SVGID_14_);}
	.st20{fill:url(#SVGID_15_);}
	.st21{fill:url(#SVGID_16_);}
	.st22{fill:url(#SVGID_17_);}
	.st23{fill:url(#SVGID_18_);}
	.st24{fill:url(#SVGID_19_);}
	.st25{clip-path:url(#SVGID_21_);}
	.st26{fill:#ECEDEF;}
	.st27{clip-path:url(#SVGID_21_);fill:none;}
	.st28{fill:#040006;}
	.st29{fill:#4E3580;}
	.st30{fill:none;}
	.st31{fill:#D7D8DC;}
	.st32{fill:url(#SVGID_22_);}
	.st33{fill:none;stroke:#FFFFFF;stroke-width:0.25;stroke-miterlimit:10;}
	.st34{opacity:0.4;clip-path:url(#SVGID_24_);}
	.st35{opacity:0.4;fill:url(#SVGID_25_);}
	.st36{fill:url(#SVGID_26_);}
	.st37{fill:url(#SVGID_27_);}
	.st38{fill:url(#SVGID_28_);}
	.st39{fill:url(#SVGID_29_);}
	.st40{fill:url(#SVGID_30_);}
	.st41{fill:url(#SVGID_31_);}
	.st42{fill:url(#SVGID_32_);}
	.st43{fill:#515365;}
	.st44{fill:url(#SVGID_33_);}
	.st45{opacity:0.4;fill:url(#SVGID_34_);}
	.st46{fill:url(#SVGID_35_);}
	.st47{fill:url(#SVGID_36_);}
	.st48{fill:url(#SVGID_37_);}
	.st49{fill:url(#SVGID_38_);}
	.st50{fill:url(#SVGID_39_);}
	.st51{fill:url(#SVGID_40_);}
	.st52{opacity:0.4;clip-path:url(#SVGID_42_);}
	.st53{fill:url(#SVGID_43_);}
	.st54{fill:url(#SVGID_44_);}
	.st55{fill:url(#SVGID_45_);}
	.st56{fill:url(#SVGID_46_);}
	.st57{fill:url(#SVGID_47_);}
	.st58{clip-path:url(#SVGID_49_);}
	.st59{clip-path:url(#SVGID_49_);fill:none;}
	.st60{fill:url(#SVGID_50_);}
	.st61{opacity:0.4;clip-path:url(#SVGID_52_);}
	.st62{opacity:0.4;fill:url(#SVGID_53_);}
	.st63{fill:url(#SVGID_54_);}
	.st64{fill:url(#SVGID_55_);}
	.st65{fill:url(#SVGID_56_);}
	.st66{fill:url(#SVGID_57_);}
	.st67{fill:url(#SVGID_58_);}
	.st68{fill:url(#SVGID_59_);}
	.st69{clip-path:url(#SVGID_61_);}
	.st70{fill:url(#SVGID_62_);}
	.st71{fill:none;stroke:#868589;stroke-width:3.6982;stroke-linecap:round;stroke-miterlimit:10;}
	.st72{fill:none;stroke:#B0B0B0;stroke-width:0.252;stroke-miterlimit:10;}
	.st73{opacity:0.5;}
	.st74{fill-rule:evenodd;clip-rule:evenodd;fill:#D4D3D6;}
	.st75{fill:#ADACB2;}
	.st76{fill:#703A75;}
	.st77{fill:url(#SVGID_63_);}
	.st78{fill:url(#SVGID_64_);}
	.st79{opacity:0.4;fill:url(#SVGID_65_);}
	.st80{fill:url(#SVGID_66_);}
	.st81{fill:url(#SVGID_67_);}
	.st82{fill:url(#SVGID_68_);}
	.st83{fill:url(#SVGID_69_);}
	.st84{fill:url(#SVGID_70_);}
	.st85{fill:url(#SVGID_71_);}
	.st86{opacity:0.4;clip-path:url(#SVGID_73_);}
	.st87{fill:url(#SVGID_74_);}
	.st88{fill:url(#SVGID_75_);}
	.st89{fill:url(#SVGID_76_);}
	.st90{fill:url(#SVGID_77_);}
	.st91{fill:url(#SVGID_78_);}
	.st92{clip-path:url(#SVGID_80_);}
	.st93{clip-path:url(#SVGID_80_);fill:none;}
	.st94{fill:url(#SVGID_81_);}
	.st95{fill:none;stroke:#FFFFFF;stroke-width:0.4707;stroke-miterlimit:10;}
	.st96{opacity:0.4;clip-path:url(#SVGID_83_);}
	.st97{opacity:0.4;fill:url(#SVGID_84_);}
	.st98{fill:url(#SVGID_85_);}
	.st99{fill:url(#SVGID_86_);}
	.st100{fill:url(#SVGID_87_);}
	.st101{fill:url(#SVGID_88_);}
	.st102{fill:url(#SVGID_89_);}
	.st103{fill:url(#SVGID_90_);}
	.st104{fill:#FF4B55;}
	.st105{fill:#FFE15A;}
	.st106{fill:#41479B;}
	.st107{clip-path:url(#SVGID_92_);}
	.st108{fill:#82AFFF;}
	.st109{fill:#F5F5F5;}
	.st110{clip-path:url(#SVGID_94_);}
</style>
<g>
	<g>
		<g>
			<path class="st10" d="M31.47,17.21c-0.51,0-1.13-0.07-1.55-0.55c-0.15-0.17-0.28-0.32-0.4-0.45c-1.01-1.06-2.75,0.41-1.7,1.8
				l0.25,0.33c0.17,0.21,0.46,0.45,0.89,0.72c0.42,0.27,0.88,0.46,1.4,0.57v1.82c0,0.63,0.51,1.15,1.14,1.15
				c0.63,0,1.17-0.52,1.17-1.15v-1.84c0.83-0.19,1.53-0.59,2.11-1.2c0.58-0.61,0.87-1.42,0.87-2.43c0-0.69-0.13-1.26-0.4-1.72
				c-0.27-0.46-0.59-0.78-0.98-0.96c-0.39-0.18-0.82-0.34-1.28-0.48c-0.46-0.14-0.89-0.23-1.28-0.29c-0.39-0.06-0.71-0.17-0.98-0.35
				c-0.27-0.18-0.4-0.41-0.4-0.69c0-1.36,1.99-1.19,2.87-0.45c1.3,1.09,2.74-0.9,1.24-2.03l-0.17-0.16
				c-0.12-0.09-0.32-0.21-0.62-0.35c-0.3-0.14-0.63-0.25-0.99-0.33v-1.1V6.59c0-0.63-0.51-1.15-1.14-1.15
				c-0.63,0-1.14,0.52-1.14,1.15v1.57c-0.84,0.17-1.54,0.58-2.02,1.2c-0.49,0.63-0.73,1.32-0.73,2.1c0,0.78,0.18,1.42,0.54,1.92
				c0.36,0.51,0.8,0.86,1.32,1.07c0.52,0.21,1.03,0.37,1.55,0.49c0.52,0.13,0.96,0.26,1.32,0.42c0.36,0.16,0.54,0.37,0.54,0.66
				C32.9,16.81,32.43,17.21,31.47,17.21z"/>
			<path class="st10" d="M64.3,37.37L53.66,23.76c-0.72-0.92-1.8-1.45-2.98-1.45c-0.83,0-1.62,0.26-2.28,0.76l-6.96,5.3
				c-0.8,0.61-1.31,1.49-1.43,2.48C40,31,39.99,31.15,39.99,31.3c-2.65-0.2-5.39,0-8.05,1.73l-0.12,0.08l-6.73-1.03
				c0.01-0.23,0.01-0.47-0.02-0.71c-0.13-0.99-0.64-1.87-1.43-2.47l-6.96-5.3c-1.63-1.25-3.99-0.94-5.26,0.68l-2.53,3.25
				c-0.44,0.57-0.34,1.39,0.23,1.83c0.57,0.44,1.39,0.34,1.83-0.23l2.53-3.25c0.38-0.49,1.12-0.59,1.62-0.21l6.96,5.3
				c0.24,0.18,0.39,0.44,0.42,0.73c0.04,0.29-0.04,0.59-0.22,0.82L11.62,46.15c-0.38,0.49-1.12,0.58-1.61,0.21l-6.96-5.3
				c-0.24-0.18-0.39-0.44-0.43-0.74c-0.04-0.29,0.04-0.58,0.23-0.82l1.81-2.32c0.44-0.57,0.34-1.39-0.23-1.83
				c-0.57-0.44-1.39-0.34-1.83,0.23l-1.81,2.31c-0.62,0.79-0.88,1.77-0.76,2.76c0.13,0.99,0.64,1.87,1.43,2.48l6.96,5.31
				C9.1,48.95,9.9,49.2,10.7,49.2c0.46,0,0.92-0.08,1.35-0.25l0.9,1.23c-0.49,0.89-0.57,1.97-0.17,3c0.56,1.48,1.89,2.48,3.33,2.53
				c0.04,0.21,0.11,0.42,0.19,0.63c0.58,1.43,1.9,2.41,3.32,2.47c0.01,0.04,0.01,0.07,0.02,0.11c0.27,1.31,1.28,2.43,2.57,2.86
				c0.33,0.11,0.66,0.16,0.99,0.17c0.13,0.53,0.39,1.04,0.79,1.49c0.63,0.7,1.55,1.15,2.55,1.15c0.73,0,1.51-0.24,2.26-0.78
				l1.48,1.38c0.75,0.7,1.7,1.05,2.64,1.05c0.95,0,1.89-0.36,2.61-1.08c0.43-0.43,0.76-0.94,0.98-1.48
				c0.37,0.11,0.72,0.16,1.07,0.16c0.97,0,1.82-0.41,2.43-1.04c0.5-0.52,0.86-1.2,1.02-1.93c0.05,0,0.11,0,0.16,0.01
				c0.01,0,0.03,0,0.04,0c1.03,0,2.02-0.4,2.71-1.1c0.49-0.49,0.82-1.09,0.99-1.75c0.25,0.05,0.5,0.07,0.75,0.07
				c0.31,0,0.63-0.04,0.94-0.12c1.26-0.32,2.23-1.31,2.54-2.57c0.28-1.16-0.01-2.39-0.8-3.5c2.05-1.65,2.88-2.46,3.81-3.98
				c0.64,0.47,1.42,0.73,2.24,0.73h0c0.83,0,1.62-0.27,2.28-0.77l6.96-5.3c0.79-0.61,1.3-1.48,1.43-2.47
				C65.18,39.14,64.91,38.16,64.3,37.37z M16.78,52.84c-0.2,0.18-0.39,0.27-0.58,0.27c-0.37,0-0.81-0.37-0.99-0.85
				c-0.17-0.43-0.09-0.8,0.23-1.08l0,0c0,0,0,0,0,0l4.4-3.91c0.37-0.33,0.74-0.5,1.07-0.5c0.49,0,0.85,0.37,0.98,0.71
				c0.14,0.37,0.06,0.69-0.25,0.97l-0.77,0.69c0,0,0,0,0,0c0,0-0.01,0.01-0.01,0.01c-0.03,0.02-0.06,0.05-0.08,0.08L16.78,52.84z
				 M20.34,55.96c-0.2,0.18-0.39,0.26-0.58,0.26c-0.4,0-0.86-0.37-1.05-0.85c-0.21-0.52,0.04-0.77,0.12-0.84
				c0.05-0.05,0.11-0.11,0.18-0.18c0,0,0,0,0,0l0.01-0.01c0.25-0.22,2.46-2.22,3.52-3.18l0.08-0.07c0.36-0.31,0.72-0.48,1.05-0.48
				c0.52,0,0.9,0.4,1.04,0.76c0.14,0.37,0.06,0.69-0.25,0.95l-0.27,0.24c0,0,0,0-0.01,0.01c0,0,0,0,0,0L20.34,55.96z M24.22,58.77
				c-0.02,0.02-0.03,0.03-0.05,0.05l-0.31,0.28c-0.27,0.25-0.54,0.31-0.86,0.21c-0.4-0.13-0.74-0.51-0.82-0.9
				c-0.07-0.34,0.07-0.66,0.41-0.97l0.44-0.38c0.01-0.01,0.02-0.02,0.03-0.03l2.85-2.51c0.68-0.6,1.36-0.66,1.81-0.16
				c0.06,0.07,0.6,0.71-0.06,1.3l-1.75,1.58c-0.02,0.02-0.04,0.03-0.06,0.05c-0.01,0.01-0.01,0.01-0.02,0.02l-1.6,1.45
				C24.24,58.76,24.23,58.77,24.22,58.77z M25.91,61.7c-0.14-0.15-0.4-0.55,0.03-0.97l1.75-1.58c0.13-0.11,0.26-0.2,0.38-0.26
				c0.01,0,0.01-0.01,0.02-0.01c0.7-0.38,1.09,0.06,1.19,0.21c0.13,0.18,0.29,0.55-0.11,0.9l-1.2,1.08c0,0-0.01,0.01-0.01,0.01
				l-0.52,0.47C26.58,62.32,26.06,61.86,25.91,61.7z M46.59,54.81c-0.08,0.33-0.32,0.57-0.65,0.65c-0.55,0.14-1.24-0.16-1.88-0.82
				c-0.05-0.05-0.1-0.1-0.15-0.16l-4.93-4.87c-0.51-0.51-1.34-0.5-1.85,0.01c-0.51,0.51-0.5,1.34,0.01,1.85l4.92,4.86
				c0.01,0.01,0.02,0.02,0.02,0.03c0.2,0.2,0.31,0.47,0.31,0.76c0,0.31-0.12,0.6-0.33,0.81c-0.21,0.21-0.53,0.33-0.87,0.33
				c0,0-0.01,0-0.01,0c-0.3,0-0.58-0.1-0.77-0.28c-0.08-0.11-0.17-0.21-0.27-0.31l-3.6-3.61c-0.51-0.51-1.34-0.51-1.85,0
				c-0.51,0.51-0.51,1.34,0,1.85l3.41,3.42c0.04,0.06,0.09,0.12,0.14,0.17l0.15,0.15c0.19,0.36,0.07,0.96-0.29,1.33
				c-0.55,0.57-1.33,0.07-1.89-0.45l-1.54-1.45c-0.52-0.49-1.35-0.47-1.84,0.06c-0.49,0.52-0.47,1.35,0.06,1.84l1.18,1.11
				c0,0,0.01,0.01,0.01,0.01c0.03,0.03,0.07,0.06,0.07,0.19c0.01,0.31-0.2,0.73-0.49,1.02c-0.43,0.43-1.14,0.41-1.62-0.03
				l-1.29-1.21l0.16-0.14c1.28-1.15,1.49-2.93,0.5-4.34c-0.32-0.46-0.72-0.81-1.17-1.06c0.63-1.25,0.46-2.77-0.57-3.92
				c-0.58-0.65-1.39-1.09-2.3-1.18c-0.03-0.33-0.1-0.66-0.22-0.98c-0.44-1.17-1.43-2.04-2.59-2.34c0.05-0.52-0.02-1.06-0.22-1.58
				c-0.55-1.43-1.92-2.39-3.42-2.39c-0.98,0-1.95,0.4-2.8,1.16l-3.33,2.96l-0.73-1l9.93-12.72l4.54,0.69l-0.69,0.45
				c-3.68,2.39-3.95,5.16-2.97,6.97c0.78,1.44,2.34,2.27,3.99,2.27c0.68,0,1.38-0.14,2.04-0.43c0.02-0.01,0.04-0.02,0.05-0.02
				l3.44-1.71l1.99,1.81c0,0,0,0,0.01,0c0,0,0,0,0.01,0.01l9.18,8.16C46.35,53.44,46.74,54.21,46.59,54.81z M46.48,50.06l-8.35-7.43
				l-2.64-2.4c-0.4-0.36-0.98-0.44-1.46-0.2l-4.21,2.09c-1.14,0.49-2.27,0.02-2.66-0.7c-0.54-0.99,0.27-2.35,2.1-3.54l4.1-2.66
				c2.22-1.44,4.55-1.56,7.74-1.19l9.24,11.83C49.36,47.62,48.85,48.17,46.48,50.06z M62.46,39.8c-0.04,0.29-0.19,0.55-0.42,0.73
				l-6.96,5.3c-0.25,0.19-0.51,0.23-0.69,0.23l0,0c-0.37,0-0.7-0.16-0.92-0.44L42.83,32c-0.18-0.23-0.26-0.52-0.22-0.82
				c0.04-0.29,0.19-0.56,0.43-0.74l6.96-5.3c0.25-0.19,0.52-0.23,0.7-0.23c0.37,0,0.7,0.16,0.92,0.44l10.63,13.62
				C62.42,39.21,62.5,39.5,62.46,39.8z"/>
			<path class="st10" d="M24.88,26.51c2.05,1.11,4.36,1.69,6.69,1.69c7.77,0,14.08-6.33,14.08-14.1c0-5.43-3.17-10.43-8.07-12.75
				C35.7,0.45,33.68,0,31.58,0C23.81,0,17.5,6.32,17.5,14.1C17.5,19.28,20.33,24.04,24.88,26.51z M31.58,2.61
				c1.71,0,3.36,0.37,4.9,1.1c3.99,1.89,6.58,5.97,6.58,10.39c0,6.34-5.15,11.49-11.47,11.49c-1.9,0-3.78-0.48-5.45-1.38
				c-3.71-2.01-6.02-5.89-6.02-10.12C20.11,7.76,25.25,2.61,31.58,2.61z"/>
			<path class="st10" d="M5.95,33.37c0.24,0.19,0.53,0.28,0.81,0.28c0.38,0,0.76-0.17,1.02-0.49l0.01-0.02
				c0.45-0.56,0.36-1.38-0.21-1.83c-0.56-0.45-1.38-0.36-1.83,0.21l-0.01,0.02C5.3,32.1,5.39,32.92,5.95,33.37z"/>
		</g>
	</g>
</g>
</svg>
