<?xml version="1.0" encoding="utf-8"?>
<!-- Generator: Adobe Illustrator 23.0.2, SVG Export Plug-In . SVG Version: 6.00 Build 0)  -->
<svg version="1.1" id="Capa_1" xmlns="http://www.w3.org/2000/svg" xmlns:xlink="http://www.w3.org/1999/xlink" x="0px" y="0px"
	 viewBox="0 0 42.12 47.67" style="enable-background:new 0 0 42.12 47.67;" xml:space="preserve">
<style type="text/css">
	.st0{opacity:0.4;}
	.st1{opacity:0.3;}
	.st2{fill:#523788;}
	.st3{fill:#F4F4F4;}
	.st4{fill:#979797;}
	.st5{fill:none;stroke:#979797;stroke-width:0.25;stroke-miterlimit:10;}
	.st6{fill:url(#SVGID_1_);}
	.st7{fill:#FFFFFF;}
	.st8{fill:url(#SVGID_2_);}
	.st9{fill:url(#SVGID_3_);}
	.st10{fill:url(#SVGID_4_);}
	.st11{fill:url(#SVGID_5_);}
	.st12{fill:url(#SVGID_6_);}
	.st13{fill:url(#SVGID_7_);}
	.st14{fill:url(#SVGID_8_);}
	.st15{fill:url(#SVGID_9_);}
	.st16{fill:url(#SVGID_10_);}
	.st17{fill:url(#SVGID_11_);}
	.st18{fill:url(#SVGID_12_);}
	.st19{fill:url(#SVGID_13_);}
	.st20{fill:url(#SVGID_14_);}
	.st21{fill:url(#SVGID_15_);}
	.st22{fill:url(#SVGID_16_);}
	.st23{fill:url(#SVGID_17_);}
	.st24{fill:url(#SVGID_18_);}
	.st25{fill:url(#SVGID_19_);}
	.st26{fill:url(#SVGID_20_);}
	.st27{fill:url(#SVGID_21_);}
	.st28{fill:url(#SVGID_22_);}
	.st29{fill:url(#SVGID_23_);}
	.st30{fill:url(#SVGID_24_);}
	.st31{fill:url(#SVGID_25_);}
	.st32{fill:url(#SVGID_26_);}
	.st33{fill:url(#SVGID_27_);}
	.st34{fill:url(#SVGID_28_);}
	.st35{fill:url(#SVGID_29_);}
	.st36{fill:url(#SVGID_30_);}
	.st37{fill:url(#SVGID_31_);}
	.st38{fill:url(#SVGID_32_);}
	.st39{fill:url(#SVGID_33_);}
	.st40{fill:url(#SVGID_34_);}
	.st41{fill:url(#SVGID_35_);}
	.st42{fill:url(#SVGID_36_);}
	.st43{fill:url(#SVGID_37_);}
	.st44{fill:url(#SVGID_38_);}
	.st45{fill:url(#SVGID_39_);}
	.st46{fill:url(#SVGID_40_);}
	.st47{fill:url(#SVGID_41_);}
	.st48{fill:url(#SVGID_42_);}
	.st49{fill:url(#SVGID_43_);}
	.st50{fill:url(#SVGID_44_);}
	.st51{fill:url(#SVGID_45_);}
	.st52{fill:url(#SVGID_46_);}
	.st53{fill:url(#SVGID_47_);}
	.st54{fill:url(#SVGID_48_);}
	.st55{fill:url(#SVGID_49_);}
	.st56{fill:url(#SVGID_50_);}
	.st57{fill:url(#SVGID_51_);}
	.st58{fill:url(#SVGID_52_);}
	.st59{fill:url(#SVGID_53_);}
	.st60{fill:url(#SVGID_54_);}
	.st61{fill:url(#SVGID_55_);}
	.st62{fill:url(#SVGID_56_);}
	.st63{fill:url(#SVGID_57_);}
	.st64{fill:url(#SVGID_58_);}
	.st65{fill:url(#SVGID_59_);}
	.st66{fill:url(#SVGID_60_);}
	.st67{fill:url(#SVGID_61_);}
	.st68{fill:url(#SVGID_62_);}
	.st69{fill:#ECEDEF;}
	.st70{opacity:0.1;fill:#F0F5FA;}
	.st71{fill:#D7D8DC;}
	.st72{fill:#E6E6E6;}
	.st73{opacity:0.1;fill:url(#SVGID_63_);}
	.st74{fill-rule:evenodd;clip-rule:evenodd;fill:#FFFFFF;}
	.st75{fill-rule:evenodd;clip-rule:evenodd;fill:none;stroke:#FFFFFF;stroke-width:0.25;stroke-miterlimit:10;}
	.st76{fill:none;stroke:#FFFFFF;stroke-width:0.5;stroke-miterlimit:10;}
	.st77{opacity:0.3;fill:none;stroke:#FFFFFF;stroke-width:0.5;stroke-miterlimit:10;}
	.st78{fill:#A4CD3C;}
	.st79{fill:#85A939;}
	.st80{fill:#606060;}
	.st81{fill:#CACACA;}
	.st82{fill:url(#SVGID_64_);}
	.st83{fill:#FFEA00;}
	.st84{fill:none;stroke:#FFEA00;stroke-miterlimit:10;}
	.st85{clip-path:url(#SVGID_68_);}
	.st86{fill:#F0F0F0;}
	.st87{clip-path:url(#SVGID_72_);}
	.st88{clip-path:url(#SVGID_78_);fill:#FFFFFF;}
	.st89{fill:url(#SVGID_79_);}
	.st90{fill:url(#SVGID_80_);}
	.st91{fill:url(#SVGID_81_);}
	.st92{fill:url(#SVGID_82_);}
	.st93{fill:url(#SVGID_83_);}
	.st94{fill:url(#SVGID_84_);}
	.st95{fill:url(#SVGID_85_);}
	.st96{fill:url(#SVGID_86_);}
	.st97{fill:#808080;}
	.st98{fill:url(#SVGID_89_);}
	.st99{fill:none;stroke:#523788;stroke-width:0.75;stroke-miterlimit:10;}
	.st100{fill:none;stroke:#523788;stroke-miterlimit:10;}
	.st101{opacity:0.9;}
	.st102{fill:none;stroke:url(#SVGID_90_);stroke-miterlimit:10;}
	.st103{fill:none;stroke:url(#SVGID_91_);stroke-miterlimit:10;}
	.st104{fill:none;stroke:url(#SVGID_92_);stroke-miterlimit:10;}
	.st105{fill:none;stroke:url(#SVGID_93_);stroke-miterlimit:10;}
	.st106{fill:none;stroke:url(#SVGID_94_);stroke-miterlimit:10;}
	.st107{fill:none;stroke:url(#SVGID_95_);stroke-miterlimit:10;}
	.st108{fill:none;stroke:url(#SVGID_96_);stroke-miterlimit:10;}
	.st109{fill:none;stroke:url(#SVGID_97_);stroke-miterlimit:10;}
	.st110{opacity:0.9;fill:url(#SVGID_98_);}
	.st111{fill:#BBA1BF;}
	.st112{opacity:0.9;fill:url(#SVGID_99_);}
	.st113{opacity:0.8;}
</style>
<g>
	<g>
		<g>
			<linearGradient id="SVGID_1_" gradientUnits="userSpaceOnUse" x1="0" y1="31.6962" x2="31.676" y2="31.6962">
				<stop  offset="0.3305" style="stop-color:#7C3F80"/>
				<stop  offset="0.5689" style="stop-color:#6C3879"/>
				<stop  offset="1" style="stop-color:#452667"/>
			</linearGradient>
			<path class="st6" d="M31.52,43.11c-0.28-0.43-0.86-0.55-1.29-0.27c-2.98,1.94-6.44,2.96-10.01,2.96
				c-10.13,0-18.36-8.24-18.36-18.36c0-3.68,1.08-7.22,3.13-10.26c0.29-0.43,0.18-1-0.25-1.29c-0.43-0.29-1-0.18-1.29,0.25
				C1.19,19.48,0,23.39,0,27.44c0,5.4,2.1,10.48,5.92,14.3s8.9,5.92,14.3,5.92c3.93,0,7.75-1.13,11.03-3.27
				C31.68,44.12,31.81,43.54,31.52,43.11z"/>
		</g>
	</g>
	<g>
		<g>
			<linearGradient id="SVGID_2_" gradientUnits="userSpaceOnUse" x1="33.0348" y1="40.97" x2="34.9317" y2="40.97">
				<stop  offset="0.3305" style="stop-color:#7C3F80"/>
				<stop  offset="0.5689" style="stop-color:#6C3879"/>
				<stop  offset="1" style="stop-color:#452667"/>
			</linearGradient>
			<path class="st8" d="M34.65,40.29c-0.37-0.36-0.96-0.35-1.32,0.01l-0.03,0.03c-0.36,0.36-0.36,0.95,0.01,1.32
				c0.18,0.18,0.42,0.27,0.66,0.27c0.24,0,0.48-0.09,0.66-0.28l0.04-0.04C35.03,41.24,35.02,40.65,34.65,40.29z"/>
		</g>
	</g>
	<g>
		<g>
			<linearGradient id="SVGID_3_" gradientUnits="userSpaceOnUse" x1="8.687" y1="19.2727" x2="42.1196" y2="19.2727">
				<stop  offset="0.3305" style="stop-color:#7C3F80"/>
				<stop  offset="0.5689" style="stop-color:#6C3879"/>
				<stop  offset="1" style="stop-color:#452667"/>
			</linearGradient>
			<path class="st9" d="M38.42,15.26c0.18,0.18,0.42,0.27,0.66,0.27s0.48-0.09,0.66-0.27l1.55-1.55c1.1-1.11,1.1-2.9,0-4.01
				l-3.32-3.32c-0.54-0.54-1.25-0.83-2-0.83c-0.76,0-1.47,0.29-2,0.83l-1.55,1.55c-0.17,0.17-0.27,0.41-0.27,0.66
				s0.1,0.48,0.27,0.66l0.44,0.44l-1.12,1.12c-2.37-1.64-5.04-2.75-7.87-3.26V5.96h2.05c0.51,0,0.93-0.42,0.93-0.93v-4.1
				c0-0.51-0.42-0.93-0.93-0.93H14.55c-0.51,0-0.93,0.42-0.93,0.93v4.1c0,0.51,0.42,0.93,0.93,0.93h2.05v1.58
				c-2.66,0.48-5.21,1.5-7.49,3c-0.43,0.28-0.55,0.86-0.26,1.29c0.28,0.43,0.86,0.55,1.29,0.26c3-1.98,6.49-3.02,10.1-3.02
				c10.13,0,18.36,8.24,18.36,18.36c0,3.43-0.95,6.78-2.76,9.68c-0.27,0.44-0.14,1.01,0.3,1.28c0.15,0.1,0.32,0.14,0.49,0.14
				c0.31,0,0.62-0.16,0.79-0.44c1.99-3.2,3.04-6.88,3.04-10.67c0-4.17-1.26-8.15-3.59-11.51l1.12-1.12L38.42,15.26z M22,7.29
				c-0.59-0.05-1.17-0.08-1.77-0.08c-0.59,0-1.18,0.03-1.77,0.08V5.96H22L22,7.29L22,7.29z M17.53,4.1h-2.05V1.86h9.5V4.1h-2.05
				H17.53z M35.73,14.44c-0.38-0.45-0.78-0.89-1.2-1.31c-0.42-0.42-0.86-0.82-1.31-1.2L34.16,11l2.5,2.5L35.73,14.44z M34.82,9.02
				C34.82,9.02,34.82,9.02,34.82,9.02l-0.44-0.44l0.89-0.89c0.18-0.18,0.43-0.28,0.69-0.28c0.26,0,0.5,0.1,0.69,0.28l3.32,3.32
				c0.38,0.38,0.38,1,0,1.38l-0.89,0.89l-0.44-0.44c0,0,0,0,0,0L34.82,9.02z"/>
		</g>
	</g>
	<g>
		<g>
			<linearGradient id="SVGID_4_" gradientUnits="userSpaceOnUse" x1="19.2961" y1="16.1982" x2="21.158" y2="16.1982">
				<stop  offset="0.3305" style="stop-color:#7C3F80"/>
				<stop  offset="0.5689" style="stop-color:#6C3879"/>
				<stop  offset="1" style="stop-color:#452667"/>
			</linearGradient>
			<path class="st10" d="M20.23,14.24c-0.51,0-0.93,0.42-0.93,0.93v2.05c0,0.51,0.42,0.93,0.93,0.93c0.51,0,0.93-0.42,0.93-0.93
				v-2.05C21.16,14.66,20.74,14.24,20.23,14.24z"/>
		</g>
	</g>
	<g>
		<g>
			<linearGradient id="SVGID_5_" gradientUnits="userSpaceOnUse" x1="27.9683" y1="18.7663" x2="29.8303" y2="18.7663">
				<stop  offset="0.3305" style="stop-color:#7C3F80"/>
				<stop  offset="0.5689" style="stop-color:#6C3879"/>
				<stop  offset="1" style="stop-color:#452667"/>
			</linearGradient>
			<path class="st11" d="M29.56,18.11c-0.17-0.17-0.41-0.27-0.66-0.27c-0.24,0-0.49,0.1-0.66,0.27c-0.17,0.17-0.27,0.41-0.27,0.66
				c0,0.25,0.1,0.49,0.27,0.66c0.17,0.17,0.41,0.27,0.66,0.27c0.24,0,0.49-0.1,0.66-0.27c0.17-0.17,0.27-0.41,0.27-0.66
				S29.73,18.28,29.56,18.11z"/>
		</g>
	</g>
	<g>
		<g>
			<linearGradient id="SVGID_6_" gradientUnits="userSpaceOnUse" x1="29.5124" y1="27.4387" x2="33.4226" y2="27.4387">
				<stop  offset="0.3305" style="stop-color:#7C3F80"/>
				<stop  offset="0.5689" style="stop-color:#6C3879"/>
				<stop  offset="1" style="stop-color:#452667"/>
			</linearGradient>
			<path class="st12" d="M32.49,26.51h-2.05c-0.51,0-0.93,0.42-0.93,0.93c0,0.51,0.42,0.93,0.93,0.93h2.05
				c0.51,0,0.93-0.42,0.93-0.93C33.42,26.92,33.01,26.51,32.49,26.51z"/>
		</g>
	</g>
	<g>
		<g>
			<linearGradient id="SVGID_7_" gradientUnits="userSpaceOnUse" x1="27.9683" y1="36.1109" x2="29.8303" y2="36.1109">
				<stop  offset="0.3305" style="stop-color:#7C3F80"/>
				<stop  offset="0.5689" style="stop-color:#6C3879"/>
				<stop  offset="1" style="stop-color:#452667"/>
			</linearGradient>
			<path class="st13" d="M29.56,35.45c-0.17-0.17-0.41-0.27-0.66-0.27c-0.24,0-0.49,0.1-0.66,0.27c-0.17,0.17-0.27,0.41-0.27,0.66
				c0,0.25,0.1,0.49,0.27,0.66c0.17,0.17,0.41,0.27,0.66,0.27c0.24,0,0.49-0.1,0.66-0.27c0.17-0.17,0.27-0.41,0.27-0.66
				C29.83,35.87,29.73,35.63,29.56,35.45z"/>
		</g>
	</g>
	<g>
		<g>
			<linearGradient id="SVGID_8_" gradientUnits="userSpaceOnUse" x1="19.2961" y1="38.6793" x2="21.158" y2="38.6793">
				<stop  offset="0.3305" style="stop-color:#7C3F80"/>
				<stop  offset="0.5689" style="stop-color:#6C3879"/>
				<stop  offset="1" style="stop-color:#452667"/>
			</linearGradient>
			<path class="st14" d="M20.23,36.72c-0.51,0-0.93,0.42-0.93,0.93v2.05c0,0.51,0.42,0.93,0.93,0.93c0.51,0,0.93-0.42,0.93-0.93
				v-2.05C21.16,37.14,20.74,36.72,20.23,36.72z"/>
		</g>
	</g>
	<g>
		<g>
			<linearGradient id="SVGID_9_" gradientUnits="userSpaceOnUse" x1="10.6237" y1="36.1109" x2="12.4856" y2="36.1109">
				<stop  offset="0.3305" style="stop-color:#7C3F80"/>
				<stop  offset="0.5689" style="stop-color:#6C3879"/>
				<stop  offset="1" style="stop-color:#452667"/>
			</linearGradient>
			<path class="st15" d="M12.21,35.45c-0.17-0.17-0.41-0.27-0.66-0.27s-0.49,0.1-0.66,0.27c-0.17,0.17-0.27,0.41-0.27,0.66
				c0,0.25,0.1,0.49,0.27,0.66c0.17,0.17,0.41,0.27,0.66,0.27s0.49-0.1,0.66-0.27c0.17-0.17,0.27-0.41,0.27-0.66
				C12.49,35.87,12.39,35.63,12.21,35.45z"/>
		</g>
	</g>
	<g>
		<g>
			<linearGradient id="SVGID_10_" gradientUnits="userSpaceOnUse" x1="7.0313" y1="27.4387" x2="10.9415" y2="27.4387">
				<stop  offset="0.3305" style="stop-color:#7C3F80"/>
				<stop  offset="0.5689" style="stop-color:#6C3879"/>
				<stop  offset="1" style="stop-color:#452667"/>
			</linearGradient>
			<path class="st16" d="M10.01,26.51H7.96c-0.51,0-0.93,0.42-0.93,0.93c0,0.51,0.42,0.93,0.93,0.93h2.05
				c0.51,0,0.93-0.42,0.93-0.93C10.94,26.92,10.52,26.51,10.01,26.51z"/>
		</g>
	</g>
	<g>
		<g>
			<linearGradient id="SVGID_11_" gradientUnits="userSpaceOnUse" x1="10.6237" y1="18.7663" x2="12.4856" y2="18.7663">
				<stop  offset="0.3305" style="stop-color:#7C3F80"/>
				<stop  offset="0.5689" style="stop-color:#6C3879"/>
				<stop  offset="1" style="stop-color:#452667"/>
			</linearGradient>
			<path class="st17" d="M12.21,18.11c-0.17-0.17-0.41-0.27-0.66-0.27s-0.49,0.1-0.66,0.27c-0.17,0.17-0.27,0.41-0.27,0.66
				s0.1,0.49,0.27,0.66c0.17,0.17,0.41,0.27,0.66,0.27s0.49-0.1,0.66-0.27c0.17-0.17,0.27-0.41,0.27-0.66S12.39,18.28,12.21,18.11z"
				/>
		</g>
	</g>
	<g>
		<g>
			<linearGradient id="SVGID_12_" gradientUnits="userSpaceOnUse" x1="17.0617" y1="25.2506" x2="27.7685" y2="25.2506">
				<stop  offset="0.3305" style="stop-color:#7C3F80"/>
				<stop  offset="0.5689" style="stop-color:#6C3879"/>
				<stop  offset="1" style="stop-color:#452667"/>
			</linearGradient>
			<path class="st18" d="M27.5,20.17c-0.3-0.3-0.77-0.36-1.14-0.14l-7.68,4.65c-0.08,0.05-0.2,0.12-0.28,0.18
				c-0.8,0.57-1.33,1.52-1.33,2.58c0,1.75,1.42,3.17,3.17,3.17c1.06,0,2-0.52,2.57-1.32c0.07-0.09,0.13-0.2,0.19-0.29l4.65-7.68
				C27.86,20.94,27.8,20.47,27.5,20.17z M21.38,28.05l-0.08,0.13c-0.24,0.34-0.63,0.57-1.07,0.57c-0.72,0-1.3-0.58-1.3-1.3
				c0-0.45,0.23-0.84,0.57-1.07l0.13-0.08c0.18-0.1,0.39-0.15,0.61-0.15c0.72,0,1.3,0.58,1.3,1.3
				C21.53,27.66,21.48,27.87,21.38,28.05z M22.83,25.65c-0.22-0.32-0.49-0.59-0.81-0.81l2.06-1.25L22.83,25.65z"/>
		</g>
	</g>
	<g>
		<g>
			<linearGradient id="SVGID_13_" gradientUnits="userSpaceOnUse" x1="4.0992" y1="27.4389" x2="36.3548" y2="27.4389">
				<stop  offset="0.3305" style="stop-color:#7C3F80"/>
				<stop  offset="0.5689" style="stop-color:#6C3879"/>
				<stop  offset="1" style="stop-color:#452667"/>
			</linearGradient>
			<path class="st19" d="M20.23,11.31c-8.89,0-16.13,7.23-16.13,16.13s7.23,16.13,16.13,16.13s16.13-7.23,16.13-16.13
				S29.12,11.31,20.23,11.31z M20.23,41.7c-7.87,0-14.27-6.4-14.27-14.27s6.4-14.27,14.27-14.27c7.87,0,14.27,6.4,14.27,14.27
				S28.09,41.7,20.23,41.7z"/>
		</g>
	</g>
	<g>
		<g>
			<linearGradient id="SVGID_14_" gradientUnits="userSpaceOnUse" x1="5.7089" y1="13.7378" x2="7.5708" y2="13.7378">
				<stop  offset="0.3305" style="stop-color:#7C3F80"/>
				<stop  offset="0.5689" style="stop-color:#6C3879"/>
				<stop  offset="1" style="stop-color:#452667"/>
			</linearGradient>
			<path class="st20" d="M7.3,13.08c-0.17-0.17-0.41-0.27-0.66-0.27s-0.49,0.1-0.66,0.27c-0.17,0.17-0.27,0.41-0.27,0.66
				c0,0.25,0.1,0.49,0.27,0.66c0.17,0.17,0.41,0.27,0.66,0.27s0.49-0.1,0.66-0.27c0.17-0.17,0.27-0.41,0.27-0.66
				C7.57,13.49,7.47,13.25,7.3,13.08z"/>
		</g>
	</g>
</g>
</svg>
