<?xml version="1.0" encoding="utf-8"?>
<!-- Generator: Adobe Illustrator 23.0.2, SVG Export Plug-In . SVG Version: 6.00 Build 0)  -->
<svg version="1.1" id="Capa_1" xmlns="http://www.w3.org/2000/svg" xmlns:xlink="http://www.w3.org/1999/xlink" x="0px" y="0px"
	 viewBox="0 0 41.28 66.04" style="enable-background:new 0 0 41.28 66.04;" xml:space="preserve">
<style type="text/css">
	.st0{clip-path:url(#SVGID_2_);}
	.st1{fill:#FFFFFF;}
	.st2{fill:#6B2378;}
	.st3{fill:none;stroke:#6B2378;stroke-miterlimit:10;}
	.st4{fill:#979797;}
	.st5{fill:none;stroke:#808080;stroke-width:0.1151;stroke-miterlimit:10;}
	.st6{clip-path:url(#SVGID_4_);}
	.st7{fill:none;stroke:#808080;stroke-width:0.1;stroke-miterlimit:10;}
	.st8{fill:none;stroke:#868589;stroke-width:2;stroke-linecap:round;stroke-miterlimit:10;}
	.st9{fill:url(#SVGID_5_);}
	.st10{fill:#713A75;}
	.st11{opacity:0.4;fill:url(#SVGID_6_);}
	.st12{opacity:0.4;}
	.st13{fill:url(#SVGID_7_);}
	.st14{fill:url(#SVGID_8_);}
	.st15{fill:url(#SVGID_9_);}
	.st16{fill:url(#SVGID_10_);}
	.st17{fill:url(#SVGID_11_);}
	.st18{fill:url(#SVGID_12_);}
	.st19{opacity:0.4;clip-path:url(#SVGID_14_);}
	.st20{fill:url(#SVGID_15_);}
	.st21{fill:url(#SVGID_16_);}
	.st22{fill:url(#SVGID_17_);}
	.st23{fill:url(#SVGID_18_);}
	.st24{fill:url(#SVGID_19_);}
	.st25{clip-path:url(#SVGID_21_);}
	.st26{fill:#ECEDEF;}
	.st27{clip-path:url(#SVGID_21_);fill:none;}
	.st28{fill:#040006;}
	.st29{fill:#4E3580;}
	.st30{fill:none;}
	.st31{fill:#D7D8DC;}
	.st32{fill:url(#SVGID_22_);}
	.st33{fill:none;stroke:#FFFFFF;stroke-width:0.25;stroke-miterlimit:10;}
	.st34{opacity:0.4;clip-path:url(#SVGID_24_);}
	.st35{opacity:0.4;fill:url(#SVGID_25_);}
	.st36{fill:url(#SVGID_26_);}
	.st37{fill:url(#SVGID_27_);}
	.st38{fill:url(#SVGID_28_);}
	.st39{fill:url(#SVGID_29_);}
	.st40{fill:url(#SVGID_30_);}
	.st41{fill:url(#SVGID_31_);}
	.st42{fill:url(#SVGID_32_);}
	.st43{fill:#515365;}
	.st44{fill:url(#SVGID_33_);}
	.st45{opacity:0.4;fill:url(#SVGID_34_);}
	.st46{fill:url(#SVGID_35_);}
	.st47{fill:url(#SVGID_36_);}
	.st48{fill:url(#SVGID_37_);}
	.st49{fill:url(#SVGID_38_);}
	.st50{fill:url(#SVGID_39_);}
	.st51{fill:url(#SVGID_40_);}
	.st52{opacity:0.4;clip-path:url(#SVGID_42_);}
	.st53{fill:url(#SVGID_43_);}
	.st54{fill:url(#SVGID_44_);}
	.st55{fill:url(#SVGID_45_);}
	.st56{fill:url(#SVGID_46_);}
	.st57{fill:url(#SVGID_47_);}
	.st58{clip-path:url(#SVGID_49_);}
	.st59{clip-path:url(#SVGID_49_);fill:none;}
	.st60{fill:url(#SVGID_50_);}
	.st61{opacity:0.4;clip-path:url(#SVGID_52_);}
	.st62{opacity:0.4;fill:url(#SVGID_53_);}
	.st63{fill:url(#SVGID_54_);}
	.st64{fill:url(#SVGID_55_);}
	.st65{fill:url(#SVGID_56_);}
	.st66{fill:url(#SVGID_57_);}
	.st67{fill:url(#SVGID_58_);}
	.st68{fill:url(#SVGID_59_);}
	.st69{clip-path:url(#SVGID_61_);}
	.st70{fill:url(#SVGID_62_);}
	.st71{fill:none;stroke:#868589;stroke-width:3.6982;stroke-linecap:round;stroke-miterlimit:10;}
	.st72{fill:none;stroke:#B0B0B0;stroke-width:0.252;stroke-miterlimit:10;}
	.st73{opacity:0.5;}
	.st74{fill-rule:evenodd;clip-rule:evenodd;fill:#D4D3D6;}
	.st75{fill:#ADACB2;}
	.st76{fill:#703A75;}
	.st77{fill:url(#SVGID_63_);}
	.st78{fill:url(#SVGID_64_);}
	.st79{opacity:0.4;fill:url(#SVGID_65_);}
	.st80{fill:url(#SVGID_66_);}
	.st81{fill:url(#SVGID_67_);}
	.st82{fill:url(#SVGID_68_);}
	.st83{fill:url(#SVGID_69_);}
	.st84{fill:url(#SVGID_70_);}
	.st85{fill:url(#SVGID_71_);}
	.st86{opacity:0.4;clip-path:url(#SVGID_73_);}
	.st87{fill:url(#SVGID_74_);}
	.st88{fill:url(#SVGID_75_);}
	.st89{fill:url(#SVGID_76_);}
	.st90{fill:url(#SVGID_77_);}
	.st91{fill:url(#SVGID_78_);}
	.st92{clip-path:url(#SVGID_80_);}
	.st93{clip-path:url(#SVGID_80_);fill:none;}
	.st94{fill:url(#SVGID_81_);}
	.st95{fill:none;stroke:#FFFFFF;stroke-width:0.4707;stroke-miterlimit:10;}
	.st96{opacity:0.4;clip-path:url(#SVGID_83_);}
	.st97{opacity:0.4;fill:url(#SVGID_84_);}
	.st98{fill:url(#SVGID_85_);}
	.st99{fill:url(#SVGID_86_);}
	.st100{fill:url(#SVGID_87_);}
	.st101{fill:url(#SVGID_88_);}
	.st102{fill:url(#SVGID_89_);}
	.st103{fill:url(#SVGID_90_);}
	.st104{fill:#FF4B55;}
	.st105{fill:#FFE15A;}
	.st106{fill:#41479B;}
	.st107{clip-path:url(#SVGID_92_);}
	.st108{fill:#82AFFF;}
	.st109{fill:#F5F5F5;}
	.st110{clip-path:url(#SVGID_94_);}
</style>
<g>
	<path class="st10" d="M34.83,42.05c0.71,0,1.29-0.58,1.29-1.29c0-0.71-0.58-1.29-1.29-1.29s-1.29,0.58-1.29,1.29
		C33.54,41.47,34.12,42.05,34.83,42.05z"/>
	<path class="st10" d="M0.25,41.29c0.8,3.4,2.06,6.66,3.76,9.71c1.7,3.05,3.81,5.84,6.27,8.31l0.04,0.04v5.4
		c0,0.71,0.58,1.29,1.29,1.29h23.22c0.71,0,1.29-0.58,1.29-1.29V59.2c3.35-5.16,5.16-11.2,5.16-17.42V31.73
		c0-2.84-2.31-5.16-5.16-5.16c-1.06,0-2.05,0.32-2.87,0.87c-0.71-2.01-2.62-3.45-4.87-3.45c-1.06,0-2.05,0.32-2.87,0.87
		c-0.71-2.01-2.62-3.45-4.87-3.45c-0.92,0-1.8,0.24-2.58,0.69V10.32c0-2.85-2.31-5.16-5.16-5.16c-2.84,0-5.16,2.31-5.16,5.16v18.57
		l-3.52,2.35C0.94,33.42-0.65,37.46,0.25,41.29z M5.65,33.38l2.09-1.4v8.77c0,0.71,0.58,1.29,1.29,1.29s1.29-0.58,1.29-1.29
		c0-0.94,0-29.66,0-30.44c0-1.42,1.16-2.58,2.58-2.58c1.42,0,2.58,1.15,2.58,2.58V35.6c0,0.71,0.58,1.29,1.29,1.29
		s1.29-0.58,1.29-1.29v-9.03c0-1.42,1.15-2.58,2.58-2.58c1.42,0,2.58,1.16,2.58,2.58v9.03c0,0.71,0.58,1.29,1.29,1.29
		s1.29-0.58,1.29-1.29v-6.45c0-1.42,1.16-2.58,2.58-2.58c1.42,0,2.58,1.16,2.58,2.58v6.45c0,0.71,0.58,1.29,1.29,1.29
		c0.71,0,1.29-0.58,1.29-1.29v-3.87c0-1.42,1.16-2.58,2.58-2.58c1.42,0,2.58,1.16,2.58,2.58v10.05c0,5.78-1.7,11.46-4.94,16.32
		c-0.14,0.21-0.22,0.46-0.22,0.72v4.64H12.9v-4.64c0-0.34-0.14-0.67-0.38-0.91c-0.27-0.31-3.5-3.19-6.26-8.16
		c-1.58-2.84-2.76-5.88-3.5-9.04C2.1,37.91,3.27,34.97,5.65,33.38z"/>
	<path class="st10" d="M29.82,57.02c0.59,0.39,1.39,0.24,1.79-0.36c2.14-3.21,3.54-6.76,4.16-10.55c0.11-0.7-0.36-1.37-1.07-1.48
		c-0.7-0.11-1.37,0.36-1.48,1.07c-0.56,3.43-1.82,6.64-3.76,9.54C29.07,55.83,29.23,56.63,29.82,57.02z"/>
	<path class="st10" d="M3.87,11.61c0.71,0,1.29-0.58,1.29-1.29c0-4.27,3.47-7.74,7.74-7.74c4.27,0,7.74,3.47,7.74,7.74
		c0,0.71,0.58,1.29,1.29,1.29s1.29-0.58,1.29-1.29C23.22,4.63,18.59,0,12.9,0S2.58,4.63,2.58,10.32
		C2.58,11.03,3.16,11.61,3.87,11.61z"/>
</g>
</svg>
