<?xml version="1.0" encoding="utf-8"?>
<!-- Generator: Adobe Illustrator 23.0.2, SVG Export Plug-In . SVG Version: 6.00 Build 0)  -->
<svg version="1.1" id="Capa_1" xmlns="http://www.w3.org/2000/svg" xmlns:xlink="http://www.w3.org/1999/xlink" x="0px" y="0px"
	 viewBox="0 0 415.75 100.59" style="enable-background:new 0 0 415.75 100.59;" xml:space="preserve">
<style type="text/css">
	.st0{fill:url(#SVGID_1_);}
	.st1{fill:url(#SVGID_2_);}
	.st2{fill:url(#SVGID_3_);}
	.st3{fill:url(#SVGID_4_);}
	.st4{fill:url(#SVGID_5_);}
	.st5{fill:url(#SVGID_6_);}
	.st6{fill:url(#SVGID_7_);}
	.st7{fill:url(#SVGID_8_);}
	.st8{fill:url(#SVGID_9_);}
	.st9{fill:url(#SVGID_10_);}
	.st10{fill:url(#SVGID_11_);}
	.st11{fill:url(#SVGID_12_);}
	.st12{fill:url(#SVGID_13_);}
	.st13{fill:url(#SVGID_14_);}
	.st14{fill:url(#SVGID_15_);}
	.st15{fill:url(#SVGID_16_);}
	.st16{fill:url(#SVGID_17_);}
	.st17{fill:url(#SVGID_18_);}
	.st18{fill:url(#SVGID_19_);}
	.st19{fill:url(#SVGID_20_);}
	.st20{fill:url(#SVGID_21_);}
	.st21{fill:url(#SVGID_22_);}
	.st22{fill:url(#SVGID_23_);}
	.st23{fill:url(#SVGID_24_);}
	.st24{fill:url(#SVGID_25_);}
	.st25{fill:url(#SVGID_26_);}
	.st26{fill:url(#SVGID_27_);}
	.st27{fill:url(#SVGID_28_);}
	.st28{fill:#FFFFFF;}
	.st29{fill:url(#SVGID_29_);}
	.st30{fill:url(#SVGID_30_);}
	.st31{fill:url(#SVGID_31_);}
	.st32{fill:url(#SVGID_32_);}
	.st33{fill:url(#SVGID_33_);}
	.st34{fill:url(#SVGID_34_);}
	.st35{fill:url(#SVGID_35_);}
	.st36{fill:url(#SVGID_36_);}
	.st37{fill:url(#SVGID_37_);}
	.st38{fill:url(#SVGID_38_);}
	.st39{fill:url(#SVGID_39_);}
	.st40{fill:url(#SVGID_40_);}
	.st41{fill:url(#SVGID_41_);}
	.st42{fill:url(#SVGID_42_);}
	.st43{fill:url(#SVGID_43_);}
	.st44{fill:url(#SVGID_44_);}
	.st45{fill:url(#SVGID_45_);}
	.st46{fill:url(#SVGID_46_);stroke:#FFFFFF;stroke-width:4;stroke-miterlimit:10;}
	.st47{fill:url(#SVGID_47_);}
	.st48{fill:url(#SVGID_48_);}
	.st49{fill:url(#SVGID_49_);}
	.st50{fill:url(#SVGID_50_);}
	.st51{fill:url(#SVGID_51_);}
	.st52{fill:url(#SVGID_52_);}
	.st53{fill:url(#SVGID_53_);}
	.st54{fill:url(#SVGID_54_);}
	.st55{fill:url(#SVGID_55_);}
	.st56{fill:url(#SVGID_56_);}
	.st57{fill:url(#SVGID_57_);}
	.st58{fill:url(#SVGID_58_);}
	.st59{fill:url(#SVGID_59_);}
	.st60{fill:url(#SVGID_60_);}
	.st61{fill:url(#SVGID_61_);}
	.st62{fill:url(#SVGID_62_);}
	.st63{fill:url(#SVGID_63_);}
	.st64{fill:url(#SVGID_64_);}
	.st65{fill:url(#SVGID_65_);}
	.st66{fill:url(#SVGID_66_);}
	.st67{fill:url(#SVGID_67_);}
	.st68{fill:url(#SVGID_68_);}
	.st69{fill:url(#SVGID_69_);}
	.st70{fill:url(#SVGID_70_);}
	.st71{fill:url(#SVGID_71_);}
	.st72{fill:url(#SVGID_72_);}
	.st73{fill:url(#SVGID_73_);}
	.st74{fill:url(#SVGID_74_);}
	.st75{fill:url(#SVGID_75_);}
	.st76{fill:url(#SVGID_76_);}
	.st77{fill:url(#SVGID_77_);}
	.st78{fill:url(#SVGID_78_);}
	.st79{fill:url(#SVGID_79_);}
	.st80{fill:url(#SVGID_80_);}
	.st81{fill:url(#SVGID_81_);}
	.st82{fill:url(#SVGID_82_);}
	.st83{fill:url(#SVGID_83_);}
	.st84{fill:url(#SVGID_84_);}
	.st85{fill:url(#SVGID_85_);}
	.st86{fill:url(#SVGID_86_);}
	.st87{fill:url(#SVGID_87_);}
	.st88{fill:url(#SVGID_88_);}
	.st89{fill:url(#SVGID_89_);}
	.st90{fill:url(#SVGID_90_);}
	.st91{fill:url(#SVGID_91_);}
	.st92{fill:url(#SVGID_92_);}
	.st93{fill:url(#SVGID_93_);}
	.st94{fill:url(#SVGID_94_);}
	.st95{fill:url(#SVGID_95_);}
	.st96{fill:url(#SVGID_96_);}
	.st97{fill:url(#SVGID_97_);}
	.st98{fill:url(#SVGID_98_);}
	.st99{fill:url(#SVGID_99_);}
	.st100{fill:url(#SVGID_100_);}
	.st101{fill:url(#SVGID_101_);}
	.st102{fill:url(#SVGID_102_);}
	.st103{fill:url(#SVGID_103_);}
	.st104{fill:url(#SVGID_104_);}
	.st105{fill:url(#SVGID_105_);}
	.st106{fill:url(#SVGID_106_);}
	.st107{fill:url(#SVGID_107_);}
	.st108{fill:url(#SVGID_108_);}
	.st109{fill:url(#SVGID_109_);}
	.st110{fill:url(#SVGID_110_);}
	.st111{fill:url(#SVGID_111_);}
	.st112{fill:url(#SVGID_112_);}
	.st113{fill:url(#SVGID_113_);}
	.st114{fill:url(#SVGID_114_);}
	.st115{fill:url(#SVGID_115_);}
	.st116{fill:url(#SVGID_116_);}
	.st117{fill:url(#SVGID_117_);}
	.st118{fill:url(#SVGID_118_);}
	.st119{fill:url(#SVGID_119_);}
	.st120{fill:url(#SVGID_120_);}
	.st121{fill:url(#SVGID_121_);}
	.st122{fill:url(#SVGID_122_);}
	.st123{fill:url(#SVGID_123_);}
	.st124{fill:url(#SVGID_124_);}
	.st125{fill:url(#SVGID_125_);}
	.st126{fill:url(#SVGID_126_);}
	.st127{fill:url(#SVGID_127_);}
	.st128{fill:url(#SVGID_128_);}
	.st129{fill:url(#SVGID_129_);}
	.st130{fill:url(#SVGID_130_);}
	.st131{fill:url(#SVGID_131_);}
	.st132{fill:url(#SVGID_132_);}
	.st133{fill:url(#SVGID_133_);}
	.st134{fill:url(#SVGID_134_);}
	.st135{fill:url(#SVGID_135_);}
	.st136{fill:url(#SVGID_136_);}
	.st137{fill:url(#SVGID_137_);}
	.st138{fill:url(#SVGID_138_);}
	.st139{fill:url(#SVGID_139_);}
	.st140{fill:url(#SVGID_140_);}
	.st141{fill:url(#SVGID_141_);}
	.st142{fill:url(#SVGID_142_);}
	.st143{fill:url(#SVGID_143_);}
	.st144{fill:url(#SVGID_144_);}
	.st145{fill:url(#SVGID_145_);}
	.st146{fill:url(#SVGID_146_);}
	.st147{fill:url(#SVGID_147_);}
	.st148{fill:url(#SVGID_148_);}
	.st149{fill:url(#SVGID_149_);}
	.st150{fill:url(#SVGID_150_);}
	.st151{fill:url(#SVGID_151_);}
	.st152{fill:url(#SVGID_152_);}
	.st153{fill:url(#SVGID_153_);}
	.st154{fill:url(#SVGID_154_);}
	.st155{fill:url(#SVGID_155_);}
	.st156{fill:url(#SVGID_156_);}
	.st157{fill:url(#SVGID_157_);}
	.st158{fill:url(#SVGID_158_);}
	.st159{fill:url(#SVGID_159_);}
	.st160{fill:url(#SVGID_160_);}
	.st161{fill:url(#SVGID_161_);}
	.st162{fill:url(#SVGID_162_);}
	.st163{fill:url(#SVGID_163_);}
	.st164{fill:url(#SVGID_164_);}
	.st165{fill:url(#SVGID_165_);}
	.st166{fill:url(#SVGID_166_);}
	.st167{fill:url(#SVGID_167_);}
	.st168{fill:url(#SVGID_168_);}
	.st169{fill:url(#SVGID_169_);}
	.st170{fill:url(#SVGID_170_);}
	.st171{fill:url(#SVGID_171_);}
	.st172{fill:url(#SVGID_172_);}
	.st173{fill:url(#SVGID_173_);}
	.st174{fill:url(#SVGID_174_);}
	.st175{fill:url(#SVGID_175_);}
	.st176{fill:url(#SVGID_176_);}
	.st177{fill:url(#SVGID_177_);}
	.st178{fill:url(#SVGID_178_);}
	.st179{fill:url(#SVGID_179_);}
	.st180{fill:url(#SVGID_180_);}
	.st181{fill:url(#SVGID_181_);}
	.st182{fill:url(#SVGID_182_);}
	.st183{fill:url(#SVGID_183_);}
	.st184{fill:url(#SVGID_184_);}
	.st185{fill:url(#SVGID_185_);}
	.st186{fill:url(#SVGID_186_);}
	.st187{fill:url(#SVGID_187_);}
	.st188{fill:url(#SVGID_188_);}
	.st189{fill:url(#SVGID_189_);}
	.st190{fill:url(#SVGID_190_);}
	.st191{fill:url(#SVGID_191_);}
	.st192{fill:url(#SVGID_192_);}
	.st193{fill:url(#SVGID_193_);}
	.st194{fill:url(#SVGID_194_);}
	.st195{fill:url(#SVGID_195_);}
	.st196{fill:url(#SVGID_196_);}
	.st197{fill:url(#SVGID_197_);}
	.st198{fill:url(#SVGID_198_);}
	.st199{fill:url(#SVGID_199_);}
	.st200{fill:url(#SVGID_200_);}
	.st201{fill:url(#SVGID_201_);}
	.st202{fill:url(#SVGID_202_);}
	.st203{fill:url(#SVGID_203_);}
	.st204{fill:url(#SVGID_204_);}
	.st205{fill:url(#SVGID_205_);}
	.st206{fill:url(#SVGID_206_);}
	.st207{fill:url(#SVGID_207_);}
	.st208{fill:url(#SVGID_208_);}
	.st209{fill:url(#SVGID_209_);}
	.st210{fill:url(#SVGID_210_);}
	.st211{fill:url(#SVGID_211_);}
	.st212{fill:url(#SVGID_212_);}
	.st213{fill:url(#SVGID_213_);}
	.st214{fill:url(#SVGID_214_);}
	.st215{fill:url(#SVGID_215_);}
	.st216{fill:url(#SVGID_216_);}
	.st217{fill:url(#SVGID_217_);}
	.st218{fill:url(#SVGID_218_);}
	.st219{fill:url(#SVGID_219_);}
	.st220{fill:url(#SVGID_220_);}
	.st221{fill:url(#SVGID_221_);}
	.st222{fill:url(#SVGID_222_);}
	.st223{fill:url(#SVGID_223_);}
	.st224{fill:url(#SVGID_224_);}
	.st225{fill:url(#SVGID_225_);}
	.st226{fill:url(#SVGID_226_);}
	.st227{fill:url(#SVGID_227_);}
	.st228{fill:none;}
	.st229{fill:url(#SVGID_228_);}
	.st230{fill:url(#SVGID_229_);}
	.st231{fill:url(#SVGID_230_);}
	.st232{fill:url(#SVGID_231_);}
	.st233{fill:url(#SVGID_232_);}
	.st234{fill:url(#SVGID_233_);}
	.st235{fill:url(#SVGID_234_);}
	.st236{fill:url(#SVGID_235_);}
	.st237{fill:url(#SVGID_236_);}
	.st238{fill:url(#SVGID_237_);}
	.st239{fill:url(#SVGID_238_);}
	.st240{fill:#B9007C;}
	.st241{fill:url(#SVGID_239_);}
	.st242{fill:url(#SVGID_240_);}
	.st243{fill:url(#SVGID_241_);}
	.st244{fill:url(#SVGID_242_);}
	.st245{fill:url(#SVGID_243_);}
	.st246{fill:url(#SVGID_244_);}
	.st247{fill:url(#SVGID_245_);}
	.st248{fill:url(#SVGID_246_);}
	.st249{fill:url(#SVGID_247_);}
	.st250{fill:url(#SVGID_248_);}
	.st251{fill:url(#SVGID_249_);}
	.st252{fill:url(#SVGID_250_);}
	.st253{fill:url(#SVGID_251_);}
	.st254{fill:url(#SVGID_252_);}
	.st255{fill:url(#SVGID_253_);}
	.st256{fill:url(#SVGID_254_);}
	.st257{fill:url(#SVGID_255_);}
	.st258{fill:url(#SVGID_256_);}
	.st259{fill:url(#SVGID_257_);}
	.st260{fill:url(#SVGID_258_);}
	.st261{fill:url(#SVGID_259_);}
	.st262{fill:url(#SVGID_260_);}
	.st263{fill:url(#SVGID_261_);}
	.st264{fill:url(#SVGID_262_);}
	.st265{fill:url(#SVGID_263_);}
	.st266{fill:url(#SVGID_264_);}
	.st267{fill:url(#SVGID_265_);}
	.st268{fill:url(#SVGID_266_);}
	.st269{fill:url(#SVGID_267_);}
	.st270{fill:url(#SVGID_268_);}
	.st271{fill:url(#SVGID_269_);}
	.st272{fill:url(#SVGID_270_);}
	.st273{fill:url(#SVGID_271_);}
	.st274{fill:url(#SVGID_272_);}
	.st275{fill:url(#SVGID_273_);}
	.st276{fill:url(#SVGID_274_);}
	.st277{fill:url(#SVGID_275_);}
	.st278{fill:url(#SVGID_276_);}
	.st279{fill:url(#SVGID_277_);}
	.st280{fill:url(#SVGID_278_);}
	.st281{fill:url(#SVGID_279_);}
	.st282{fill:url(#SVGID_280_);}
	.st283{fill:url(#SVGID_281_);}
	.st284{fill:url(#SVGID_282_);}
	.st285{fill:url(#SVGID_283_);}
	.st286{fill:url(#SVGID_284_);}
	.st287{fill:url(#SVGID_285_);}
	.st288{fill:url(#SVGID_286_);}
	.st289{fill:#713A75;}
	.st290{fill:url(#SVGID_287_);}
	.st291{fill:url(#SVGID_288_);}
	.st292{fill:url(#SVGID_289_);}
	.st293{fill:url(#SVGID_290_);}
	.st294{fill:url(#SVGID_291_);}
	.st295{fill:url(#SVGID_292_);}
	.st296{fill:url(#SVGID_293_);}
	.st297{fill:url(#SVGID_294_);}
	.st298{fill:url(#SVGID_295_);}
	.st299{fill:url(#SVGID_296_);}
	.st300{fill:url(#SVGID_297_);}
	.st301{fill:url(#SVGID_298_);}
	.st302{fill:url(#SVGID_299_);}
	.st303{fill:url(#SVGID_300_);}
	.st304{fill:url(#SVGID_301_);}
	.st305{fill:url(#SVGID_302_);}
	.st306{fill:url(#SVGID_303_);}
	.st307{fill:url(#SVGID_304_);}
	.st308{fill:url(#SVGID_305_);}
	.st309{fill:url(#SVGID_306_);}
	.st310{fill:url(#SVGID_307_);}
	.st311{fill:url(#SVGID_308_);}
	.st312{fill:url(#SVGID_309_);}
	.st313{fill:url(#SVGID_310_);}
	.st314{fill:url(#SVGID_311_);}
	.st315{fill:url(#SVGID_312_);}
	.st316{fill:url(#SVGID_313_);}
	.st317{fill:url(#SVGID_314_);}
	.st318{fill:url(#SVGID_315_);}
	.st319{fill:url(#SVGID_316_);}
	.st320{fill:url(#SVGID_317_);}
	.st321{fill:url(#SVGID_318_);}
	.st322{fill:url(#SVGID_319_);}
	.st323{fill:url(#SVGID_320_);}
	.st324{fill:url(#SVGID_321_);}
	.st325{fill:url(#SVGID_322_);}
	.st326{fill:url(#SVGID_323_);}
	.st327{fill:url(#SVGID_324_);}
	.st328{fill:url(#SVGID_325_);}
	.st329{fill:url(#SVGID_326_);}
	.st330{fill:url(#SVGID_327_);}
	.st331{fill:url(#SVGID_328_);}
	.st332{fill:url(#SVGID_329_);}
	.st333{fill:url(#SVGID_330_);}
	.st334{fill:url(#SVGID_331_);}
	.st335{fill:url(#SVGID_332_);}
	.st336{fill:url(#SVGID_333_);}
	.st337{fill:url(#SVGID_334_);}
	.st338{fill:url(#SVGID_335_);}
	.st339{fill:url(#SVGID_336_);}
	.st340{fill:url(#SVGID_337_);}
	.st341{fill:url(#SVGID_338_);}
	.st342{fill:url(#SVGID_339_);}
	.st343{fill:url(#SVGID_340_);}
	.st344{fill:url(#SVGID_341_);}
	.st345{fill:url(#SVGID_342_);}
	.st346{fill:url(#SVGID_343_);}
	.st347{fill:url(#SVGID_344_);}
	.st348{fill:url(#SVGID_345_);}
	.st349{fill:url(#SVGID_346_);}
	.st350{fill:url(#SVGID_347_);}
	.st351{fill:url(#SVGID_348_);}
	.st352{fill:url(#SVGID_349_);}
	.st353{fill:url(#SVGID_350_);}
	.st354{fill:url(#SVGID_351_);}
	.st355{fill:url(#SVGID_352_);}
	.st356{fill:url(#SVGID_353_);}
	.st357{fill:url(#SVGID_354_);}
	.st358{fill:url(#SVGID_355_);}
	.st359{fill:url(#SVGID_356_);}
	.st360{fill:url(#SVGID_357_);}
	.st361{fill:url(#SVGID_358_);}
	.st362{fill:url(#SVGID_359_);}
	.st363{fill:url(#SVGID_360_);}
	.st364{fill:url(#SVGID_361_);}
	.st365{fill:url(#SVGID_362_);}
	.st366{fill:url(#SVGID_363_);}
	.st367{fill:url(#SVGID_364_);}
	.st368{fill:url(#SVGID_365_);}
	.st369{fill:url(#SVGID_366_);}
	.st370{fill:url(#SVGID_367_);}
	.st371{fill:url(#SVGID_368_);}
	.st372{fill:url(#SVGID_369_);}
	.st373{fill:url(#SVGID_370_);}
	.st374{fill:url(#SVGID_371_);}
	.st375{clip-path:url(#SVGID_373_);fill:#523788;}
	.st376{clip-path:url(#SVGID_373_);fill:#282828;}
	.st377{clip-path:url(#SVGID_373_);fill:#FFFFFF;}
	.st378{clip-path:url(#SVGID_373_);fill:none;}
</style>
<g>
	<g>
		<defs>
			<rect id="SVGID_372_" x="-55" y="-254.93" width="512" height="512"/>
		</defs>
		<clipPath id="SVGID_1_">
			<use xlink:href="#SVGID_372_"  style="overflow:visible;"/>
		</clipPath>
		<path style="clip-path:url(#SVGID_1_);fill:#282828;" d="M58.32,37.25c-0.35-3.56-1.64-6.21-3.88-7.96
			c-2.24-1.74-5.55-2.62-9.95-2.62c-4.12,0-7.23,0.7-9.32,2.1c-2.09,1.4-3.14,3.42-3.14,6.07c0,2.24,0.82,4.02,2.46,5.34
			c1.64,1.33,4.42,2.48,8.33,3.45c3.98,0.98,7.76,1.94,11.36,2.88c3.6,0.94,6.68,2.01,9.27,3.19c1.53,0.7,2.97,1.5,4.29,2.41
			c1.33,0.91,2.48,2.03,3.45,3.35c0.98,1.33,1.75,2.9,2.31,4.71c0.56,1.82,0.84,3.95,0.84,6.39c0,3.84-0.68,7.14-2.04,9.9
			c-1.36,2.76-3.28,5.04-5.76,6.86c-2.48,1.82-5.41,3.16-8.8,4.03c-3.39,0.87-7.1,1.31-11.15,1.31c-4.33,0-8.27-0.47-11.84-1.41
			c-3.56-0.94-6.63-2.39-9.22-4.35c-2.58-1.95-4.61-4.38-6.07-7.28c-1.47-2.9-2.24-6.3-2.31-10.21h14.04
			c0.14,3.56,1.59,6.37,4.35,8.43c2.76,2.06,6.48,3.09,11.15,3.09c4.33,0,7.66-0.85,10-2.57c2.34-1.71,3.51-4.14,3.51-7.28
			c0-1.05-0.16-1.99-0.47-2.83c-0.32-0.84-0.87-1.62-1.68-2.36c-0.8-0.73-1.9-1.4-3.3-1.99c-1.4-0.59-3.18-1.13-5.34-1.62
			c-4.33-0.98-7.98-1.83-10.94-2.57c-2.97-0.73-5.67-1.66-8.12-2.78c-3.77-1.68-6.65-3.86-8.64-6.55
			c-1.99-2.69-2.99-6.23-2.99-10.63c0-3.14,0.52-6.02,1.57-8.64c1.05-2.62,2.64-4.87,4.77-6.76c2.13-1.89,4.78-3.35,7.96-4.4
			c3.18-1.05,6.89-1.57,11.15-1.57c4.4,0,8.31,0.56,11.73,1.68c3.42,1.12,6.3,2.69,8.64,4.71c2.34,2.03,4.15,4.43,5.45,7.23
			c1.29,2.79,2.01,5.86,2.15,9.22H58.32z"/>
		<path style="clip-path:url(#SVGID_1_);fill:#282828;" d="M103.56,87.62c-4.19,0-7.92-0.66-11.21-1.99
			c-3.28-1.33-6.06-3.18-8.33-5.55c-2.27-2.37-4-5.24-5.18-8.59c-1.19-3.35-1.78-7.01-1.78-11c0-4.05,0.61-7.75,1.83-11.1
			c1.22-3.35,2.99-6.21,5.29-8.59c2.3-2.37,5.08-4.21,8.33-5.5c3.25-1.29,6.93-1.94,11.05-1.94c4.05,0,7.68,0.65,10.89,1.94
			c3.21,1.29,5.95,3.11,8.22,5.45c2.27,2.34,4.01,5.18,5.24,8.54c1.22,3.35,1.83,7.09,1.83,11.21c0,4.12-0.61,7.84-1.83,11.15
			c-1.22,3.32-2.97,6.16-5.24,8.54c-2.27,2.38-5.03,4.21-8.27,5.5C111.15,86.98,107.54,87.62,103.56,87.62 M103.56,76.21
			c8.31,0,12.46-5.24,12.46-15.71c0-10.4-4.15-15.6-12.46-15.6c-8.31,0-12.46,5.2-12.46,15.6C91.1,70.97,95.25,76.21,103.56,76.21"
			/>
		<rect x="134.66" y="15.88" style="clip-path:url(#SVGID_1_);fill:#282828;" width="13.61" height="70.38"/>
		<polygon style="clip-path:url(#SVGID_1_);fill:#282828;" points="170.07,86.26 151.63,34.73 166.82,34.73 177.61,68.77 
			188.5,34.73 202.85,34.73 184.31,86.26 		"/>
		<path style="clip-path:url(#SVGID_1_);fill:#282828;" d="M215.42,64.06c0.21,3.91,1.34,7.02,3.4,9.32
			c2.06,2.31,4.77,3.46,8.12,3.46c2.23,0,4.21-0.51,5.92-1.52c1.71-1.01,2.81-2.43,3.3-4.24h14.03c-1.61,5.31-4.4,9.39-8.38,12.26
			c-3.98,2.86-8.73,4.29-14.24,4.29c-17.17,0-25.77-9.36-25.77-28.07c0-3.98,0.56-7.58,1.68-10.79c1.12-3.21,2.74-5.97,4.87-8.27
			c2.13-2.3,4.73-4.07,7.8-5.29c3.07-1.22,6.6-1.83,10.58-1.83c7.96,0,13.98,2.55,18.07,7.65c4.08,5.1,6.13,12.78,6.13,23.04H215.42
			z M236.88,55.47c-0.07-1.89-0.4-3.54-0.99-4.98c-0.59-1.43-1.38-2.62-2.36-3.56c-0.98-0.94-2.09-1.64-3.35-2.1
			c-1.26-0.45-2.55-0.68-3.88-0.68c-2.72,0-5.08,0.99-7.07,2.99c-1.99,1.99-3.12,4.76-3.4,8.33H236.88z"/>
		<path style="clip-path:url(#SVGID_1_);fill:#282828;" d="M288.62,86.26V55.05c0-3.98-0.66-6.67-1.99-8.06
			c-1.33-1.4-3.6-2.1-6.81-2.1c-7.05,0-10.58,3.95-10.58,11.83v29.53h-13.61V34.73h12.99v7.54c1.61-2.93,3.73-5.15,6.39-6.65
			c2.65-1.5,6.07-2.25,10.26-2.25c2.44,0,4.71,0.37,6.81,1.1c2.1,0.73,3.89,1.83,5.39,3.3c1.5,1.47,2.69,3.26,3.56,5.39
			c0.87,2.13,1.31,4.59,1.31,7.38v35.71H288.62z"/>
		<path style="clip-path:url(#SVGID_1_);fill:#282828;" d="M337.53,52.33h12.67v14.66c0,2.72-0.4,5.33-1.2,7.8
			c-0.8,2.48-2.06,4.68-3.77,6.6c-1.71,1.92-3.87,3.44-6.49,4.56c-2.62,1.12-5.74,1.68-9.37,1.68c-3.77,0-6.98-0.56-9.64-1.68
			c-2.65-1.12-4.84-2.62-6.55-4.5c-1.71-1.89-2.95-4.08-3.72-6.6c-0.77-2.51-1.15-5.17-1.15-7.96V20.81h13.41v13.93h28.49v9.64
			h-28.49v21.15c0,3.29,0.61,5.82,1.83,7.6c1.22,1.78,3.23,2.67,6.02,2.67c2.72,0,4.73-0.87,6.02-2.62
			c1.29-1.74,1.94-4.22,1.94-7.44V52.33z"/>
		<path style="clip-path:url(#SVGID_1_);fill:#282828;" d="M388.01,86.27c-0.42-1.33-0.7-2.86-0.84-4.61
			c-1.61,1.81-3.74,3.26-6.39,4.34c-2.65,1.08-5.72,1.62-9.22,1.62c-5.93,0-10.28-1.31-13.04-3.92c-2.76-2.62-4.14-6.02-4.14-10.22
			c0-3.7,0.59-6.65,1.78-8.85c1.18-2.2,2.83-3.93,4.92-5.18c2.09-1.26,4.59-2.18,7.49-2.78c2.9-0.59,6.06-1.13,9.48-1.62
			c3.42-0.49,5.72-1.14,6.91-1.94c1.19-0.8,1.78-2.11,1.78-3.93c0-1.68-0.78-2.98-2.36-3.93c-1.57-0.94-3.69-1.41-6.34-1.41
			c-3.14,0-5.39,0.7-6.76,2.09c-1.36,1.4-2.22,3.25-2.56,5.55h-12.67c0.07-2.65,0.51-5.09,1.31-7.33c0.8-2.24,2.09-4.15,3.87-5.76
			c1.78-1.61,4.1-2.85,6.97-3.72c2.86-0.87,6.35-1.31,10.47-1.31c4.05,0,7.49,0.45,10.32,1.36c2.83,0.91,5.1,2.22,6.81,3.93
			c1.71,1.71,2.95,3.84,3.72,6.39c0.77,2.55,1.15,5.43,1.15,8.64v32.57H388.01z M387.07,61.02c-0.7,0.7-1.71,1.26-3.04,1.68
			c-1.33,0.42-3.25,0.87-5.76,1.36c-3.91,0.77-6.6,1.75-8.06,2.93c-1.47,1.19-2.2,2.9-2.2,5.13c0,3.84,2.2,5.76,6.6,5.76
			c1.74,0,3.37-0.29,4.87-0.89c1.5-0.59,2.79-1.4,3.87-2.41c1.08-1.01,1.96-2.2,2.62-3.56c0.66-1.36,0.99-2.81,0.99-4.35
			L387.07,61.02z"/>
		<rect x="-55" y="-254.93" style="clip-path:url(#SVGID_1_);fill:none;" width="512" height="512"/>
	</g>
</g>
</svg>
