<svg width="129" height="26" viewBox="0 0 129 26" fill="none" xmlns="http://www.w3.org/2000/svg">
<path d="M13.7646 7.73019C13.6476 6.52689 13.2163 5.63118 12.4674 5.03967C11.7185 4.45154 10.6118 4.15409 9.14074 4.15409C7.76327 4.15409 6.72349 4.3907 6.02473 4.8639C5.32597 5.33711 4.97491 6.01988 4.97491 6.9156C4.97491 7.67273 5.24907 8.27438 5.79738 8.72055C6.34569 9.1701 7.27514 9.5588 8.58239 9.88667C9.91305 10.2179 11.1768 10.5424 12.3804 10.8601C13.5841 11.1779 14.6138 11.5395 15.4797 11.9384C15.9913 12.175 16.4727 12.4454 16.914 12.753C17.3587 13.0605 17.7432 13.4391 18.0675 13.8853C18.3951 14.3348 18.6526 14.8655 18.8398 15.4773C19.027 16.0925 19.1206 16.8124 19.1206 17.6371C19.1206 18.9351 18.8933 20.0505 18.4386 20.9834C17.9839 21.9163 17.342 22.6869 16.5128 23.3021C15.6837 23.9173 14.7041 24.3702 13.5707 24.6643C12.4373 24.9583 11.1969 25.1071 9.84284 25.1071C8.39517 25.1071 7.07788 24.9482 5.88431 24.6305C4.69407 24.3128 3.66766 23.8226 2.80173 23.1602C1.93915 22.501 1.26044 21.6797 0.772315 20.6995C0.280842 19.7193 0.0234035 18.57 0 17.2484H4.69407C4.74088 18.4517 5.22567 19.4015 6.14843 20.0978C7.0712 20.7941 8.31493 21.1423 9.87627 21.1423C11.3239 21.1423 12.4373 20.855 13.2196 20.2736C14.002 19.6956 14.3931 18.8742 14.3931 17.8129C14.3931 17.458 14.3397 17.1403 14.236 16.8563C14.129 16.5724 13.9451 16.3088 13.6743 16.0587C13.4069 15.8119 13.0391 15.5854 12.571 15.386C12.1029 15.1866 11.5078 15.0041 10.7857 14.8385C9.33799 14.5072 8.11767 14.2199 7.12803 13.9698C6.13506 13.723 5.23235 13.4087 4.41323 13.0301C3.15278 12.4623 2.1899 11.7254 1.52457 10.8162C0.859242 9.90695 0.524907 8.71041 0.524907 7.22318C0.524907 6.16184 0.698762 5.18839 1.04981 4.30281C1.40087 3.41724 1.93246 2.65673 2.64459 2.01789C3.35673 1.37906 4.24272 0.885575 5.30591 0.530669C6.36909 0.175763 7.60948 0 9.03375 0C10.5048 0 11.8121 0.189283 12.9555 0.567849C14.0989 0.946416 15.0618 1.47709 15.8442 2.15986C16.6265 2.84601 17.2317 3.65722 17.6663 4.60364C18.0976 5.54667 18.3383 6.58435 18.3851 7.72005H13.7646V7.73019Z" fill="white"/>
<path d="M28.8899 24.7555C27.4891 24.7555 26.242 24.5325 25.142 24.0829C24.0454 23.6334 23.116 23.008 22.357 22.207C21.5981 21.4059 21.0197 20.4358 20.6252 19.3035C20.2273 18.1712 20.03 16.9341 20.03 15.5854C20.03 14.2165 20.234 12.9659 20.6419 11.8336C21.0498 10.7013 21.6415 9.73456 22.4105 8.93011C23.1795 8.12903 24.1089 7.5071 25.1955 7.07107C26.2821 6.63505 27.5125 6.41534 28.8899 6.41534C30.244 6.41534 31.4576 6.63505 32.5309 7.07107C33.6041 7.5071 34.5201 8.12227 35.2791 8.91321C36.038 9.70414 36.6198 10.6641 37.031 11.7998C37.4389 12.9321 37.6428 14.1962 37.6428 15.5888C37.6428 16.9814 37.4389 18.2388 37.031 19.3576C36.6231 20.4798 36.038 21.4397 35.2791 22.2442C34.5201 23.0486 33.5974 23.6672 32.5141 24.1032C31.4275 24.5392 30.2206 24.7555 28.8899 24.7555ZM28.8899 20.8989C31.6683 20.8989 33.0558 19.1277 33.0558 15.5888C33.0558 12.0736 31.6683 10.3159 28.8899 10.3159C26.1116 10.3159 24.7241 12.0736 24.7241 15.5888C24.7241 19.1277 26.1116 20.8989 28.8899 20.8989Z" fill="white"/>
<path d="M43.8381 0.506989H39.2878V24.2958H43.8381V0.506989Z" fill="white"/>
<path d="M51.1266 24.2959L44.9615 6.87842H50.04L53.6475 18.3841L57.2884 6.87842H62.0861L55.8875 24.2959H51.1266Z" fill="white"/>
<path d="M66.2887 16.7921C66.3589 18.1137 66.7367 19.1649 67.4254 19.9423C68.1142 20.7231 69.0202 21.1118 70.1402 21.1118C70.8858 21.1118 71.5478 20.9394 72.1195 20.598C72.6912 20.2567 73.059 19.7767 73.2228 19.1649H77.9135C77.3753 20.9597 76.4425 22.3388 75.1118 23.3089C73.7812 24.2755 72.1931 24.7589 70.3509 24.7589C64.6103 24.7589 61.735 21.5952 61.735 15.2711C61.735 13.9258 61.9223 12.709 62.2967 11.624C62.6712 10.539 63.2128 9.6061 63.9249 8.82869C64.6371 8.05128 65.5063 7.45301 66.5328 7.04064C67.5592 6.62827 68.7394 6.42209 70.07 6.42209C72.7313 6.42209 74.744 7.284 76.1115 9.00783C77.4756 10.7317 78.1609 13.3275 78.1609 16.7955H66.2887V16.7921ZM73.4635 13.8886C73.4401 13.2498 73.3298 12.6921 73.1325 12.2054C72.9353 11.722 72.6712 11.3198 72.3435 11.0021C72.0159 10.6843 71.6447 10.4477 71.2235 10.2923C70.8022 10.1402 70.3709 10.0624 69.9263 10.0624C69.0169 10.0624 68.2278 10.397 67.5625 11.073C66.8972 11.7457 66.5194 12.682 66.4258 13.8886H73.4635V13.8886Z" fill="white"/>
<path d="M90.7621 24.2958V13.7467C90.7621 12.4014 90.5414 11.4922 90.0967 11.0223C89.6521 10.5491 88.8931 10.3125 87.8199 10.3125C85.4628 10.3125 84.2826 11.6476 84.2826 14.3111V24.2924H79.7323V6.87839H84.0753V9.42695C84.6136 8.4366 85.3224 7.68622 86.2118 7.17921C87.0977 6.67221 88.2412 6.4187 89.642 6.4187C90.4578 6.4187 91.2168 6.54376 91.9189 6.79051C92.621 7.03725 93.2194 7.40906 93.7209 7.90593C94.2224 8.4028 94.6203 9.00783 94.9112 9.72778C95.202 10.4477 95.3491 11.2792 95.3491 12.2223V24.2924H90.7621V24.2958Z" fill="white"/>
<path d="M107.114 12.8273H111.35V17.7824C111.35 18.7018 111.217 19.584 110.949 20.4189C110.682 21.2571 110.261 22.0008 109.689 22.6497C109.117 23.2987 108.395 23.8125 107.519 24.191C106.643 24.5696 105.6 24.7589 104.386 24.7589C103.126 24.7589 102.053 24.5696 101.163 24.191C100.277 23.8125 99.545 23.3055 98.9733 22.67C98.4016 22.0312 97.987 21.2909 97.7296 20.4392C97.4722 19.5908 97.3451 18.6917 97.3451 17.7486V2.17334H101.829V6.88176H111.354V10.1401H101.829V17.289C101.829 18.401 102.033 19.2562 102.44 19.8578C102.848 20.4595 103.52 20.7603 104.453 20.7603C105.362 20.7603 106.035 20.4662 106.466 19.8747C106.897 19.2866 107.114 18.4483 107.114 17.3599V12.8273Z" fill="white"/>
<path d="M123.992 24.2992C123.851 23.8497 123.758 23.3325 123.711 22.741C123.173 23.3528 122.46 23.8429 121.574 24.208C120.688 24.573 119.662 24.7555 118.492 24.7555C116.509 24.7555 115.055 24.3127 114.132 23.4306C113.209 22.545 112.748 21.3958 112.748 19.9761C112.748 18.7255 112.945 17.7284 113.343 16.9848C113.738 16.2412 114.289 15.6564 114.988 15.2339C115.687 14.808 116.523 14.4971 117.492 14.2943C118.462 14.0948 119.518 13.9123 120.662 13.7467C121.805 13.5811 122.574 13.3614 122.972 13.091C123.37 12.8206 123.567 12.3778 123.567 11.7626C123.567 11.1947 123.306 10.7553 122.778 10.4342C122.253 10.1165 121.544 9.95764 120.658 9.95764C119.609 9.95764 118.856 10.1942 118.398 10.6641C117.944 11.1373 117.656 11.7626 117.542 12.54H113.306C113.33 11.6443 113.477 10.8196 113.744 10.0624C114.012 9.30529 114.443 8.6597 115.038 8.11551C115.633 7.57132 116.409 7.1522 117.368 6.85813C118.325 6.56407 119.492 6.41534 120.869 6.41534C122.223 6.41534 123.373 6.56745 124.319 6.87503C125.265 7.18262 126.024 7.62541 126.596 8.2034C127.168 8.78139 127.582 9.50134 127.84 10.3633C128.097 11.2252 128.224 12.1986 128.224 13.2836V24.2925H123.992V24.2992ZM123.677 15.7646C123.443 16.0012 123.106 16.1905 122.661 16.3324C122.216 16.4744 121.574 16.6265 120.735 16.7921C119.428 17.0524 118.529 17.3836 118.04 17.7825C117.549 18.1847 117.305 18.7627 117.305 19.5164C117.305 20.8144 118.04 21.4634 119.512 21.4634C120.093 21.4634 120.638 21.3653 121.14 21.1625C121.641 20.9631 122.073 20.6893 122.434 20.3479C122.795 20.0066 123.089 19.6043 123.31 19.1446C123.53 18.685 123.641 18.1948 123.641 17.6743L123.677 15.7646Z" fill="white"/>
</svg>
