<svg id="solventa-white" xmlns="http://www.w3.org/2000/svg" width="128.224" height="25.107" viewBox="0 0 128.224 25.107">
  <path id="Path_18" data-name="Path 18" d="M13.765,7.73a3.7,3.7,0,0,0-1.3-2.691,5.309,5.309,0,0,0-3.327-.886,5.585,5.585,0,0,0-3.116.71,2.326,2.326,0,0,0-1.05,2.052,2.206,2.206,0,0,0,.822,1.8A7.379,7.379,0,0,0,8.582,9.887q2,.5,3.8.973a19.084,19.084,0,0,1,3.1,1.078,9.419,9.419,0,0,1,1.434.815,4.785,4.785,0,0,1,1.153,1.132,5.324,5.324,0,0,1,.772,1.592,7.446,7.446,0,0,1,.281,2.16,7.571,7.571,0,0,1-.682,3.346A6.259,6.259,0,0,1,16.513,23.3a8.428,8.428,0,0,1-2.942,1.362,14.813,14.813,0,0,1-3.728.443,15.364,15.364,0,0,1-3.959-.477A8.7,8.7,0,0,1,2.8,23.16,6.969,6.969,0,0,1,.772,20.7,7.927,7.927,0,0,1,0,17.248H4.694A3.564,3.564,0,0,0,6.148,20.1a6.048,6.048,0,0,0,3.728,1.045,5.525,5.525,0,0,0,3.343-.869,2.879,2.879,0,0,0,1.174-2.461,2.769,2.769,0,0,0-.157-.957,2.092,2.092,0,0,0-.562-.8,3.84,3.84,0,0,0-1.1-.673,10.81,10.81,0,0,0-1.785-.547q-2.172-.5-3.658-.869a15.183,15.183,0,0,1-2.715-.94,7.074,7.074,0,0,1-2.889-2.214,5.942,5.942,0,0,1-1-3.593A7.857,7.857,0,0,1,1.05,4.3,6,6,0,0,1,2.645,2.018,7.459,7.459,0,0,1,5.306.531,11.781,11.781,0,0,1,9.034,0a12.462,12.462,0,0,1,3.922.568A8.3,8.3,0,0,1,15.844,2.16,7.213,7.213,0,0,1,17.666,4.6a8.231,8.231,0,0,1,.719,3.116h-4.62Z" fill="#6b2377"/>
  <path id="Path_19" data-name="Path 19" d="M28.89,24.756a9.826,9.826,0,0,1-3.748-.673A7.716,7.716,0,0,1,20.625,19.3a11.136,11.136,0,0,1-.6-3.718,11,11,0,0,1,.612-3.752,8.131,8.131,0,0,1,1.769-2.9A7.876,7.876,0,0,1,25.2,7.071a9.847,9.847,0,0,1,3.694-.656,9.6,9.6,0,0,1,3.641.656,7.854,7.854,0,0,1,2.748,1.842A8.067,8.067,0,0,1,37.031,11.8a11.123,11.123,0,0,1,.612,3.789,10.95,10.95,0,0,1-.612,3.769,8.259,8.259,0,0,1-1.752,2.887A7.693,7.693,0,0,1,32.514,24.1,9.648,9.648,0,0,1,28.89,24.756Zm0-3.857q4.168,0,4.166-5.31,0-5.273-4.166-5.273t-4.166,5.273Q24.724,20.9,28.89,20.9Z" fill="#6b2377"/>
  <path id="Path_20" data-name="Path 20" d="M43.838.507h-4.55V24.3h4.55Z" fill="#6b2377"/>
  <path id="Path_21" data-name="Path 21" d="M51.127,24.3,44.961,6.878H50.04l3.607,11.506L57.288,6.878h4.8L55.888,24.3Z" fill="#6b2377"/>
  <path id="Path_22" data-name="Path 22" d="M66.289,16.792a5,5,0,0,0,1.137,3.15,3.446,3.446,0,0,0,2.715,1.169,3.792,3.792,0,0,0,1.979-.514,2.324,2.324,0,0,0,1.1-1.433h4.691a7.658,7.658,0,0,1-2.8,4.144,7.884,7.884,0,0,1-4.761,1.45q-8.611,0-8.616-9.488a11.138,11.138,0,0,1,.562-3.647,7.892,7.892,0,0,1,1.628-2.8,7.049,7.049,0,0,1,2.608-1.788,9.437,9.437,0,0,1,3.537-.619,7.247,7.247,0,0,1,6.042,2.586q2.046,2.586,2.049,7.788H66.289Zm7.175-2.9a4.93,4.93,0,0,0-.331-1.683,3.484,3.484,0,0,0-.789-1.2,3.164,3.164,0,0,0-1.12-.71,3.79,3.79,0,0,0-1.3-.23,3.2,3.2,0,0,0-2.364,1.011,4.328,4.328,0,0,0-1.137,2.816Z" fill="#6b2377"/>
  <path id="Path_23" data-name="Path 23" d="M90.762,24.3V13.747a4.065,4.065,0,0,0-.665-2.724,3.03,3.03,0,0,0-2.277-.71q-3.536,0-3.537,4v9.981h-4.55V6.878h4.343V9.427a5.563,5.563,0,0,1,2.136-2.248,7.71,7.71,0,0,1,5.707-.389,4.763,4.763,0,0,1,1.8,1.115,5.345,5.345,0,0,1,1.19,1.822,6.623,6.623,0,0,1,.438,2.495v12.07H90.762Z" fill="#6b2377"/>
  <path id="Path_24" data-name="Path 24" d="M107.114,12.827h4.236v4.955a8.589,8.589,0,0,1-.4,2.636,6.168,6.168,0,0,1-1.26,2.231,6.025,6.025,0,0,1-2.17,1.541,7.859,7.859,0,0,1-3.133.568,8.213,8.213,0,0,1-3.223-.568,6.137,6.137,0,0,1-2.19-1.521,5.82,5.82,0,0,1-1.244-2.231,9.229,9.229,0,0,1-.384-2.691V2.173h4.484V6.882h9.525V10.14h-9.525v7.149a4.561,4.561,0,0,0,.611,2.569,2.255,2.255,0,0,0,2.013.9,2.325,2.325,0,0,0,2.013-.886,4.2,4.2,0,0,0,.648-2.515Z" fill="#6b2377"/>
  <path id="Path_25" data-name="Path 25" d="M123.992,24.3a7.1,7.1,0,0,1-.281-1.558,5.659,5.659,0,0,1-2.137,1.467,8.041,8.041,0,0,1-3.082.548,6.137,6.137,0,0,1-4.36-1.325,4.568,4.568,0,0,1-1.384-3.454,6.364,6.364,0,0,1,.6-2.991,4.441,4.441,0,0,1,1.645-1.751,7.888,7.888,0,0,1,2.5-.94q1.455-.3,3.17-.548a6.088,6.088,0,0,0,2.31-.656,1.488,1.488,0,0,0,.6-1.328,1.48,1.48,0,0,0-.789-1.328,4.08,4.08,0,0,0-2.12-.477,3.058,3.058,0,0,0-2.26.706,3.328,3.328,0,0,0-.856,1.876h-4.236a8.054,8.054,0,0,1,.438-2.478,4.742,4.742,0,0,1,1.294-1.947,6,6,0,0,1,2.33-1.257,12.039,12.039,0,0,1,3.5-.443,11.254,11.254,0,0,1,3.45.46A5.553,5.553,0,0,1,126.6,8.2a5.078,5.078,0,0,1,1.244,2.16,10.217,10.217,0,0,1,.384,2.92V24.292h-4.232Zm-.315-8.535a2.449,2.449,0,0,1-1.016.568,18.675,18.675,0,0,1-1.926.46,6.513,6.513,0,0,0-2.695.99,2.112,2.112,0,0,0-.735,1.734q0,1.947,2.207,1.947a4.312,4.312,0,0,0,1.628-.3,4,4,0,0,0,2.17-2.018,3.363,3.363,0,0,0,.331-1.47Z" fill="#6b2377"/>
</svg>
