<?xml version="1.0" encoding="utf-8"?>
<!-- Generator: Adobe Illustrator 23.0.3, SVG Export Plug-In . SVG Version: 6.00 Build 0)  -->
<svg version="1.1" id="Capa_1" xmlns="http://www.w3.org/2000/svg" xmlns:xlink="http://www.w3.org/1999/xlink" x="0px" y="0px"
	 viewBox="0 0 28.06 28.05" style="enable-background:new 0 0 28.06 28.05;" xml:space="preserve">
<style type="text/css">
	.st0{fill:#F4F4F4;}
	.st1{fill:none;stroke:#642075;stroke-miterlimit:10;}
	.st2{fill:#FFFFFF;}
	.st3{fill:#E5E5E5;}
	.st4{fill:#85A939;}
	.st5{fill:#FFFFFF;stroke:#85A939;stroke-width:1.3;stroke-miterlimit:10;}
	.st6{fill:#642075;}
	.st7{fill:none;stroke:#FFFFFF;stroke-miterlimit:10;}
	.st8{clip-path:url(#SVGID_4_);}
	.st9{fill:#6B2378;}
	.st10{fill:#ABAAB0;}
	.st11{clip-path:url(#SVGID_6_);}
	.st12{fill:none;stroke:#6B2378;stroke-miterlimit:10;}
	.st13{fill:#979797;}
	.st14{fill:url(#SVGID_7_);}
	.st15{opacity:0.4;fill:url(#SVGID_8_);}
	.st16{opacity:0.4;}
	.st17{fill:url(#SVGID_9_);}
	.st18{fill:url(#SVGID_10_);}
	.st19{fill:url(#SVGID_11_);}
	.st20{fill:url(#SVGID_12_);}
	.st21{fill:url(#SVGID_13_);}
	.st22{fill:url(#SVGID_14_);}
	.st23{opacity:0.4;clip-path:url(#SVGID_16_);}
	.st24{fill:url(#SVGID_17_);}
	.st25{fill:url(#SVGID_18_);}
	.st26{fill:url(#SVGID_19_);}
	.st27{fill:url(#SVGID_20_);}
	.st28{fill:url(#SVGID_21_);}
	.st29{clip-path:url(#SVGID_23_);}
	.st30{fill:#ECEDEF;}
	.st31{clip-path:url(#SVGID_23_);fill:none;}
	.st32{fill:#040006;}
	.st33{fill:#4E3580;}
	.st34{fill:none;}
	.st35{fill:#D7D8DC;}
	.st36{fill:url(#SVGID_24_);}
	.st37{fill:none;stroke:#FFFFFF;stroke-width:0.4707;stroke-miterlimit:10;}
	.st38{opacity:0.4;clip-path:url(#SVGID_26_);}
	.st39{opacity:0.4;fill:url(#SVGID_27_);}
	.st40{fill:url(#SVGID_28_);}
	.st41{fill:url(#SVGID_29_);}
	.st42{fill:url(#SVGID_30_);}
	.st43{fill:url(#SVGID_31_);}
	.st44{fill:url(#SVGID_32_);}
	.st45{fill:url(#SVGID_33_);}
	.st46{fill:#713A75;}
	.st47{fill:#515365;}
	.st48{fill:#FF4B55;}
	.st49{fill:#FFE15A;}
	.st50{fill:#41479B;}
	.st51{clip-path:url(#SVGID_35_);}
	.st52{fill:#82AFFF;}
	.st53{fill:#F5F5F5;}
	.st54{fill:none;stroke:#642075;stroke-width:0.75;stroke-miterlimit:10;}
	.st55{opacity:0.35;}
	.st56{fill:none;stroke:#FFFFFF;stroke-width:1.3785;stroke-linecap:round;stroke-miterlimit:10;}
	.st57{fill:none;stroke:#FFFFFF;stroke-width:0.5;stroke-miterlimit:10;}
	.st58{opacity:0.5;fill:none;stroke:#FFFFFF;stroke-width:0.25;stroke-miterlimit:10;}
	.st59{clip-path:url(#SVGID_45_);}
	.st60{clip-path:url(#SVGID_47_);}
	.st61{opacity:0.5;}
	.st62{fill:#FFFFFF;stroke:url(#SVGID_48_);stroke-width:4.5;stroke-linecap:round;stroke-miterlimit:10;}
	.st63{clip-path:url(#SVGID_50_);fill:#FFFFFF;}
	.st64{clip-path:url(#SVGID_52_);fill:#FFFFFF;}
	.st65{clip-path:url(#SVGID_54_);fill:#FFFFFF;}
	.st66{clip-path:url(#SVGID_56_);}
	.st67{clip-path:url(#SVGID_58_);}
	.st68{fill:#6B2378;stroke:#FFFFFF;stroke-width:0.7;stroke-miterlimit:10;}
	.st69{fill:#6B2378;stroke:#6B2378;stroke-width:0.1473;stroke-miterlimit:10;}
	.st70{clip-path:url(#SVGID_60_);}
	.st71{clip-path:url(#SVGID_62_);fill:#F4F4F4;}
	.st72{opacity:0.3;}
	.st73{fill:none;stroke:url(#SVGID_63_);stroke-miterlimit:10;}
	.st74{fill:none;stroke:url(#SVGID_64_);stroke-miterlimit:10;}
	.st75{fill:none;stroke:url(#SVGID_65_);stroke-miterlimit:10;}
	.st76{fill:none;stroke:url(#SVGID_66_);stroke-miterlimit:10;}
	.st77{fill:none;stroke:url(#SVGID_67_);stroke-miterlimit:10;}
	.st78{fill:none;stroke:url(#SVGID_68_);stroke-miterlimit:10;}
	.st79{fill:none;stroke:url(#SVGID_69_);stroke-miterlimit:10;}
	.st80{fill:none;stroke:url(#SVGID_70_);stroke-miterlimit:10;}
	.st81{fill:#BBA1BF;}
	.st82{opacity:0.9;fill:url(#SVGID_71_);}
	.st83{opacity:0.9;fill:url(#SVGID_72_);}
	.st84{opacity:0.9;fill:url(#SVGID_73_);}
	.st85{fill:#FFFFFF;stroke:url(#SVGID_76_);stroke-width:4.5;stroke-linecap:round;stroke-miterlimit:10;}
	.st86{clip-path:url(#SVGID_78_);fill:#FFFFFF;}
	.st87{clip-path:url(#SVGID_80_);fill:#FFFFFF;}
	.st88{clip-path:url(#SVGID_82_);fill:#FFFFFF;}
	.st89{fill:#FFFFFF;stroke:url(#SVGID_83_);stroke-width:4.5;stroke-linecap:round;stroke-miterlimit:10;}
	.st90{clip-path:url(#SVGID_85_);fill:#FFFFFF;}
	.st91{clip-path:url(#SVGID_87_);fill:#FFFFFF;}
	.st92{clip-path:url(#SVGID_89_);fill:#FFFFFF;}
	.st93{fill:url(#SVGID_90_);}
	.st94{fill:#6B2378;stroke:#FFFFFF;stroke-width:0.1651;stroke-miterlimit:10;}
	.st95{fill:url(#SVGID_91_);}
	.st96{fill:url(#SVGID_92_);}
	.st97{opacity:0.4;fill:url(#SVGID_93_);}
	.st98{fill:url(#SVGID_94_);}
	.st99{fill:url(#SVGID_95_);}
	.st100{fill:url(#SVGID_96_);}
	.st101{fill:url(#SVGID_97_);}
	.st102{fill:url(#SVGID_98_);}
	.st103{fill:url(#SVGID_99_);}
	.st104{opacity:0.4;clip-path:url(#SVGID_101_);}
	.st105{fill:url(#SVGID_102_);}
	.st106{fill:url(#SVGID_103_);}
	.st107{fill:url(#SVGID_104_);}
	.st108{fill:url(#SVGID_105_);}
	.st109{fill:url(#SVGID_106_);}
	.st110{clip-path:url(#SVGID_108_);}
	.st111{clip-path:url(#SVGID_108_);fill:none;}
	.st112{fill:url(#SVGID_109_);}
	.st113{fill:none;stroke:#FFFFFF;stroke-width:0.25;stroke-miterlimit:10;}
	.st114{opacity:0.4;clip-path:url(#SVGID_111_);}
	.st115{opacity:0.4;fill:url(#SVGID_112_);}
	.st116{fill:url(#SVGID_113_);}
	.st117{fill:url(#SVGID_114_);}
	.st118{fill:url(#SVGID_115_);}
	.st119{fill:url(#SVGID_116_);}
	.st120{fill:url(#SVGID_117_);}
	.st121{fill:url(#SVGID_118_);}
	.st122{clip-path:url(#SVGID_120_);}
	.st123{fill:url(#SVGID_121_);}
	.st124{fill:url(#SVGID_122_);}
	.st125{fill:none;stroke:url(#SVGID_123_);stroke-miterlimit:10;}
	.st126{fill:none;stroke:url(#SVGID_124_);stroke-miterlimit:10;}
	.st127{fill:none;stroke:url(#SVGID_125_);stroke-miterlimit:10;}
	.st128{fill:none;stroke:url(#SVGID_126_);stroke-miterlimit:10;}
	.st129{fill:none;stroke:url(#SVGID_127_);stroke-miterlimit:10;}
	.st130{fill:none;stroke:url(#SVGID_128_);stroke-miterlimit:10;}
	.st131{fill:none;stroke:url(#SVGID_129_);stroke-miterlimit:10;}
	.st132{fill:none;stroke:url(#SVGID_130_);stroke-miterlimit:10;}
	.st133{opacity:0.9;fill:url(#SVGID_131_);}
	.st134{opacity:0.9;fill:url(#SVGID_132_);}
	.st135{opacity:0.9;fill:url(#SVGID_133_);}
</style>
<path id="Trazado_33_5_" class="st68" d="M23.64,4.3C18.37-0.97,9.82-0.96,4.56,4.31C0.25,8.62-0.63,15.29,2.41,20.57L0.5,27.56
	l7.15-1.88c1.98,1.08,4.19,1.64,6.45,1.64h0.01c7.43,0,13.61-6.05,13.61-13.49C27.67,10.24,26.21,6.81,23.64,4.3z M14.1,25.05
	c-2.01,0-3.98-0.54-5.71-1.56l-0.41-0.24l-4.24,1.11l1.13-4.14L4.6,19.79C1.39,14.49,3.07,7.58,8.38,4.36
	c5.3-3.22,12.21-1.53,15.43,3.77c1.04,1.72,1.61,3.69,1.63,5.7C25.37,20.05,20.31,25.05,14.1,25.05L14.1,25.05z M20.25,16.65
	c-0.33-0.17-1.99-0.98-2.3-1.09c-0.31-0.11-0.53-0.17-0.76,0.17c-0.22,0.34-0.87,1.09-1.07,1.32c-0.19,0.22-0.39,0.26-0.73,0.08
	c-1.98-0.99-3.28-1.77-4.59-4.01c-0.35-0.59,0.35-0.55,0.99-1.84c0.09-0.19,0.08-0.41-0.03-0.59c-0.08-0.17-0.76-1.83-1.04-2.5
	c-0.27-0.66-0.55-0.56-0.76-0.58C9.77,7.61,9.54,7.61,9.32,7.61c-0.34,0.01-0.67,0.16-0.9,0.42c-0.77,0.73-1.2,1.75-1.18,2.81
	c0,1.66,1.21,3.26,1.37,3.49s2.38,3.63,5.76,5.09c2.14,0.92,2.98,1,4.04,0.84c0.65-0.1,1.99-0.81,2.27-1.6
	c0.22-0.5,0.29-1.06,0.19-1.6C20.81,16.9,20.58,16.82,20.25,16.65L20.25,16.65z"/>
</svg>
